%TF.GenerationSoftware,KiCad,Pcbnew,(5.0.1)-3*%
%TF.CreationDate,2018-12-01T13:50:14+01:00*%
%TF.ProjectId,CastVolumeKnob,43617374566F6C756D654B6E6F622E6B,rev?*%
%TF.SameCoordinates,PX853a720PY5faea10*%
%TF.FileFunction,Copper,L1,Top,Signal*%
%TF.FilePolarity,Positive*%
%FSLAX46Y46*%
G04 Gerber Fmt 4.6, Leading zero omitted, Abs format (unit mm)*
G04 Created by KiCad (PCBNEW (5.0.1)-3) date 01/12/2018 13:50:14*
%MOMM*%
%LPD*%
G01*
G04 APERTURE LIST*
%ADD10C,0.100000*%
%ADD11C,0.200000*%
%ADD12R,1.500000X1.050000*%
%ADD13O,1.500000X1.050000*%
%ADD14O,1.600000X1.600000*%
%ADD15C,1.600000*%
%ADD16R,1.700000X1.700000*%
%ADD17O,1.700000X1.700000*%
%ADD18C,1.800000*%
%ADD19R,1.905000X2.000000*%
%ADD20O,1.905000X2.000000*%
%ADD21O,1.050000X1.500000*%
%ADD22R,1.050000X1.500000*%
%ADD23C,5.500000*%
%ADD24R,2.400000X1.600000*%
%ADD25O,2.400000X1.600000*%
%ADD26C,0.800000*%
%ADD27C,0.300000*%
G04 APERTURE END LIST*
D10*
X6000000Y0D02*
G75*
G03X6000000Y0I-6000000J0D01*
G01*
D11*
X35000000Y0D02*
G75*
G03X35000000Y0I-35000000J0D01*
G01*
D12*
X-25146000Y-14478000D03*
D13*
X-25146000Y-11938000D03*
X-25146000Y-13208000D03*
D14*
X-14224000Y-21590000D03*
D15*
X-14224000Y-11430000D03*
D16*
X-5080000Y-30988000D03*
D17*
X-2540000Y-30988000D03*
X0Y-30988000D03*
X2540000Y-30988000D03*
X5080000Y-30988000D03*
D16*
X29464000Y13208000D03*
D17*
X26924000Y13208000D03*
X24384000Y13208000D03*
X-14478000Y4826000D03*
X-14478000Y7366000D03*
X-14478000Y9906000D03*
X-14478000Y12446000D03*
X-14478000Y14986000D03*
X-14478000Y17526000D03*
X-14478000Y20066000D03*
D16*
X-14478000Y22606000D03*
D18*
X12700000Y22606000D03*
X-10160000Y22606000D03*
X12700000Y20066000D03*
X-10160000Y20066000D03*
X12700000Y17526000D03*
X-10160000Y17526000D03*
X12700000Y14986000D03*
X-10160000Y14986000D03*
X12700000Y12446000D03*
X-10160000Y12446000D03*
X12700000Y9906000D03*
X-10160000Y9906000D03*
X12700000Y7366000D03*
X-10160000Y7366000D03*
X12700000Y4826000D03*
X-10160000Y4826000D03*
D19*
X-25146000Y9906000D03*
D20*
X-27686000Y9906000D03*
X-30226000Y9906000D03*
D21*
X-12954000Y-26670000D03*
X-14224000Y-26670000D03*
D22*
X-11684000Y-26670000D03*
D23*
X-23000000Y-20000000D03*
D15*
X23876000Y-14478000D03*
X23876000Y-11978000D03*
D16*
X-18288000Y23876000D03*
D17*
X-20828000Y23876000D03*
D16*
X17018000Y22606000D03*
D17*
X17018000Y20066000D03*
X17018000Y17526000D03*
X17018000Y14986000D03*
X17018000Y12446000D03*
X17018000Y9906000D03*
X17018000Y7366000D03*
X17018000Y4826000D03*
X23622000Y-20320000D03*
X21082000Y-20320000D03*
X18542000Y-20320000D03*
X16002000Y-20320000D03*
X13462000Y-20320000D03*
X10922000Y-20320000D03*
D15*
X-10922000Y-21590000D03*
D14*
X-10922000Y-11430000D03*
D15*
X-20574000Y-11430000D03*
D14*
X-20574000Y-1270000D03*
X-17272000Y-1270000D03*
D15*
X-17272000Y-11430000D03*
D24*
X11938000Y-6604000D03*
D25*
X19558000Y-14224000D03*
X11938000Y-9144000D03*
X19558000Y-11684000D03*
X11938000Y-11684000D03*
X19558000Y-9144000D03*
X11938000Y-14224000D03*
X19558000Y-6604000D03*
D23*
X23000000Y20000000D03*
D26*
X-6096000Y9906000D03*
X12191999Y1766011D03*
X14224003Y-11938003D03*
X7366000Y4572000D03*
X14224020Y-14420295D03*
X-19050000Y-17272000D03*
X20066000Y-762000D03*
X7366000Y-762000D03*
X-7366000Y2032000D03*
X15239996Y-6858000D03*
X0Y-9143982D03*
X0Y-12954000D03*
X-1524000Y-10413994D03*
X-1524000Y-12954000D03*
X16256000Y-16002000D03*
X19304000Y-16764000D03*
X6857999Y-10413997D03*
X6858000Y-17272000D03*
X-17272000Y-17272000D03*
D27*
X23622000Y-14224000D02*
X23876000Y-14478000D01*
X19558000Y-14224000D02*
X23622000Y-14224000D01*
X23622000Y-21470000D02*
X23622000Y-20320000D01*
X0Y-32190081D02*
X321919Y-32512000D01*
X321919Y-32512000D02*
X5842000Y-32512000D01*
X5842000Y-32512000D02*
X12192000Y-26162000D01*
X0Y-30988000D02*
X0Y-32190081D01*
X12192000Y-26162000D02*
X18930000Y-26162000D01*
X18930000Y-26162000D02*
X23622000Y-21470000D01*
X-18288000Y21082000D02*
X-18288000Y23876000D01*
X-21082000Y18288000D02*
X-18288000Y21082000D01*
X-24892000Y18288000D02*
X-21082000Y18288000D01*
X-27686000Y9906000D02*
X-27686000Y15494000D01*
X-27686000Y15494000D02*
X-24892000Y18288000D01*
X-18288000Y25026000D02*
X-18288000Y23876000D01*
X-17406000Y25908000D02*
X-18288000Y25026000D01*
X-15240000Y25908000D02*
X-17406000Y25908000D01*
X-14478000Y25146000D02*
X-15240000Y25908000D01*
X-14478000Y22606000D02*
X-14478000Y25146000D01*
X-18071999Y-470001D02*
X-17272000Y-1270000D01*
X-27686000Y9144000D02*
X-18071999Y-470001D01*
X-27686000Y9906000D02*
X-27686000Y9144000D01*
X12591998Y1366012D02*
X12191999Y1766011D01*
X13716000Y242010D02*
X12591998Y1366012D01*
X13716000Y-9144000D02*
X13716000Y242010D01*
X11938000Y-9144000D02*
X13716000Y-9144000D01*
X14224000Y-9652000D02*
X14224000Y-11938000D01*
X13716000Y-9144000D02*
X14224000Y-9652000D01*
X14224000Y-11938000D02*
X14224003Y-11938003D01*
X6966001Y4971999D02*
X7366000Y4572000D01*
X2032000Y9906000D02*
X6966001Y4971999D01*
X-6096000Y9906000D02*
X2032000Y9906000D01*
X11938000Y-11684000D02*
X12338000Y-11684000D01*
X14224020Y-13854610D02*
X14224020Y-14420295D01*
X12338000Y-11684000D02*
X14224020Y-13570020D01*
X14224020Y-13570020D02*
X14224020Y-13854610D01*
X-10668000Y-11684000D02*
X-10922000Y-11430000D01*
X11938000Y-11684000D02*
X-10668000Y-11684000D01*
X-8636000Y-9144000D02*
X-10922000Y-11430000D01*
X-8636000Y11684000D02*
X-8636000Y-9144000D01*
X-10160000Y12446000D02*
X-9398000Y12446000D01*
X-9398000Y12446000D02*
X-8636000Y11684000D01*
X-26670000Y-13208000D02*
X-25146000Y-13208000D01*
X-14224000Y-17780000D02*
X-15748000Y-16256000D01*
X-14224000Y-21590000D02*
X-14224000Y-17780000D01*
X-15748000Y-16256000D02*
X-26670000Y-16256000D01*
X-26670000Y-16256000D02*
X-27178000Y-15748000D01*
X-27178000Y-15748000D02*
X-27178000Y-13716000D01*
X-27178000Y-13716000D02*
X-26670000Y-13208000D01*
X-11721999Y-12229999D02*
X-15748000Y-16256000D01*
X-10922000Y-11430000D02*
X-11721999Y-12229999D01*
X-24638000Y-11430000D02*
X-25146000Y-11938000D01*
X-20574000Y-11430000D02*
X-24638000Y-11430000D01*
X29464000Y-762000D02*
X29464000Y13208000D01*
X26670000Y-3556000D02*
X29464000Y-762000D01*
X26670000Y-20066000D02*
X26670000Y-3556000D01*
X12700000Y-26924000D02*
X19812000Y-26924000D01*
X-19050000Y-24130000D02*
X-14732000Y-28448000D01*
X-19050000Y-17272000D02*
X-19050000Y-24130000D01*
X19812000Y-26924000D02*
X26670000Y-20066000D01*
X-14732000Y-28448000D02*
X-10668000Y-28448000D01*
X-10668000Y-28448000D02*
X-5773813Y-33342187D01*
X-5773813Y-33342187D02*
X6281813Y-33342187D01*
X6281813Y-33342187D02*
X12700000Y-26924000D01*
X-30226000Y8382000D02*
X-30226000Y9906000D01*
X-20574000Y-1270000D02*
X-30226000Y8382000D01*
X26924000Y13208000D02*
X26924000Y6096000D01*
X26924000Y6096000D02*
X20066000Y-762000D01*
X-7366000Y3048000D02*
X-7366000Y2032000D01*
X-7366000Y4572000D02*
X-7366000Y3048000D01*
X-4318000Y7620000D02*
X-7366000Y4572000D01*
X2794000Y7620000D02*
X-4318000Y7620000D01*
X7366000Y-762000D02*
X7366000Y3048000D01*
X7366000Y3048000D02*
X2794000Y7620000D01*
X19558000Y-5504000D02*
X18796000Y-4742000D01*
X19558000Y-6604000D02*
X19558000Y-5504000D01*
X18168000Y22606000D02*
X17018000Y22606000D01*
X18796000Y21978000D02*
X18168000Y22606000D01*
X18796000Y-4742000D02*
X18796000Y21978000D01*
X15239996Y-7423685D02*
X15239996Y-6858000D01*
X15239996Y-15494004D02*
X15239996Y-7423685D01*
X14720002Y-16013998D02*
X15239996Y-15494004D01*
X5068002Y-16013998D02*
X14720002Y-16013998D01*
X2540000Y-30988000D02*
X2540000Y-18542000D01*
X2540000Y-18542000D02*
X5068002Y-16013998D01*
X-13424001Y-10630001D02*
X-14224000Y-11430000D01*
X508000Y20066000D02*
X-4064000Y24638000D01*
X12700000Y20066000D02*
X508000Y20066000D01*
X-4064000Y24638000D02*
X-11176000Y24638000D01*
X-11176000Y24638000D02*
X-12192000Y23622000D01*
X-12192000Y23622000D02*
X-12192000Y-9398000D01*
X-12192000Y-9398000D02*
X-13424001Y-10630001D01*
X-17272000Y-14478000D02*
X-14224000Y-11430000D01*
X-25146000Y-14478000D02*
X-17272000Y-14478000D01*
X12700000Y17526000D02*
X9398000Y14224000D01*
X9398000Y14224000D02*
X9398000Y-311667D01*
X565685Y-9143982D02*
X0Y-9143982D01*
X9398000Y-311667D02*
X565685Y-9143982D01*
X0Y-14986000D02*
X0Y-12954000D01*
X-2540000Y-30988000D02*
X-2540000Y-17526000D01*
X-2540000Y-17526000D02*
X0Y-14986000D01*
X12700000Y14986000D02*
X10922000Y13208000D01*
X10922000Y13208000D02*
X10922000Y-1016000D01*
X10922000Y-1016000D02*
X1524006Y-10413994D01*
X-958315Y-10413994D02*
X-1524000Y-10413994D01*
X1524006Y-10413994D02*
X-958315Y-10413994D01*
X-5080000Y-16510000D02*
X-1524000Y-12954000D01*
X-5080000Y-30988000D02*
X-5080000Y-16510000D01*
X17018000Y-7004000D02*
X19158000Y-9144000D01*
X17018000Y4826000D02*
X17018000Y-7004000D01*
X19158000Y-9144000D02*
X19558000Y-9144000D01*
X16256000Y-15436315D02*
X16256000Y-16002000D01*
X19158000Y-9144000D02*
X16256000Y-12046000D01*
X16256000Y-12046000D02*
X16256000Y-15436315D01*
X18542000Y-16764000D02*
X19304000Y-16764000D01*
X17272000Y-15494000D02*
X18542000Y-16764000D01*
X17272000Y-12954000D02*
X17272000Y-15494000D01*
X19558000Y-11684000D02*
X18542000Y-11684000D01*
X18542000Y-11684000D02*
X17272000Y-12954000D01*
X10667996Y-6604000D02*
X11938000Y-6604000D01*
X6857999Y-10413997D02*
X10667996Y-6604000D01*
X9719919Y-20320000D02*
X10922000Y-20320000D01*
X9340315Y-20320000D02*
X9719919Y-20320000D01*
X6858000Y-17837685D02*
X9340315Y-20320000D01*
X6858000Y-17272000D02*
X6858000Y-17837685D01*
X-12954000Y-25620000D02*
X-12954000Y-26670000D01*
X-12954000Y-24753370D02*
X-12954000Y-25620000D01*
X-10922000Y-22721370D02*
X-12954000Y-24753370D01*
X-10922000Y-21590000D02*
X-10922000Y-22721370D01*
X-17272000Y-20244002D02*
X-17272000Y-17272000D01*
X-17272000Y-22572000D02*
X-17272000Y-20244002D01*
X-14224000Y-26670000D02*
X-14224000Y-25620000D01*
X-14224000Y-25620000D02*
X-17272000Y-22572000D01*
X-15748000Y-9906000D02*
X-17272000Y-11430000D01*
X-15748000Y762000D02*
X-15748000Y-9906000D01*
X-25146000Y9906000D02*
X-24892000Y9906000D01*
X-24892000Y9906000D02*
X-15748000Y762000D01*
M02*
