M48
;DRILL file {KiCad (5.0.1)-3} date 30/01/2019 15:28:05
;FORMAT={-:-/ absolute / inch / decimal}
FMAT,2
INCH,TZ
T1C0.0157
T2C0.0295
T3C0.0315
T4C0.0394
T5C0.0400
T6C0.0433
T7C0.1260
T8C0.1378
%
G90
G05
M72
T1
X-0.75Y-0.68
X-0.68Y-0.68
X-0.29Y0.08
X-0.24Y0.39
X-0.06Y-0.41
X-0.06Y-0.51
X0.Y-0.36
X0.Y-0.51
X0.27Y-0.41
X0.27Y-0.68
X0.29Y0.18
X0.29Y-0.03
X0.48Y0.0695
X0.56Y-0.47
X0.56Y-0.5677
X0.6Y-0.27
X0.64Y-0.63
X0.76Y-0.66
X0.79Y-0.03
T2
X-0.99Y-0.47
X-0.99Y-0.52
X-0.99Y-0.57
X-0.56Y-1.05
X-0.51Y-1.05
X-0.46Y-1.05
T3
X-0.68Y-0.05
X-0.68Y-0.45
X0.47Y-0.26
X0.47Y-0.36
X0.47Y-0.46
X0.47Y-0.56
X0.77Y-0.26
X0.77Y-0.36
X0.77Y-0.46
X0.77Y-0.56
X0.94Y-0.4716
X0.94Y-0.57
X-0.43Y-0.45
X-0.43Y-0.85
X-0.81Y-0.05
X-0.81Y-0.45
X-0.56Y-0.45
X-0.56Y-0.85
T4
X0.43Y-0.8
X0.53Y-0.8
X0.63Y-0.8
X0.73Y-0.8
X0.83Y-0.8
X0.93Y-0.8
X-0.82Y0.94
X-0.72Y0.94
X0.67Y0.89
X0.67Y0.79
X0.67Y0.69
X0.67Y0.59
X0.67Y0.49
X0.67Y0.39
X0.67Y0.29
X0.67Y0.19
X0.96Y0.52
X1.06Y0.52
X1.16Y0.52
X-0.2Y-1.22
X-0.1Y-1.22
X0.Y-1.22
X0.1Y-1.22
X0.2Y-1.22
X-0.57Y0.89
X-0.57Y0.79
X-0.57Y0.69
X-0.57Y0.59
X-0.57Y0.49
X-0.57Y0.39
X-0.57Y0.29
X-0.57Y0.19
T5
X-0.4Y0.89
X-0.4Y0.79
X-0.4Y0.69
X-0.4Y0.59
X-0.4Y0.49
X-0.4Y0.39
X-0.4Y0.29
X-0.4Y0.19
X0.5Y0.89
X0.5Y0.79
X0.5Y0.69
X0.5Y0.59
X0.5Y0.49
X0.5Y0.39
X0.5Y0.29
X0.5Y0.19
T6
X-1.19Y0.39
X-1.09Y0.39
X-0.99Y0.39
T7
X0.9055Y0.7874
X-0.9055Y-0.7874
T8
X-1.09Y-0.2659
T0
M30
