%TF.GenerationSoftware,KiCad,Pcbnew,(5.0.1)-3*%
%TF.CreationDate,2019-01-30T15:27:52+01:00*%
%TF.ProjectId,CastVolumeKnob,43617374566F6C756D654B6E6F622E6B,rev?*%
%TF.SameCoordinates,PX853a720PY5faea10*%
%TF.FileFunction,Copper,L2,Bot,Signal*%
%TF.FilePolarity,Positive*%
%FSLAX46Y46*%
G04 Gerber Fmt 4.6, Leading zero omitted, Abs format (unit mm)*
G04 Created by KiCad (PCBNEW (5.0.1)-3) date 30/01/2019 15:27:52*
%MOMM*%
%LPD*%
G01*
G04 APERTURE LIST*
%ADD10C,0.100000*%
%ADD11C,0.200000*%
%ADD12R,1.700000X1.700000*%
%ADD13O,1.700000X1.700000*%
%ADD14R,1.500000X1.050000*%
%ADD15O,1.500000X1.050000*%
%ADD16O,1.600000X1.600000*%
%ADD17C,1.600000*%
%ADD18C,1.800000*%
%ADD19O,1.050000X1.500000*%
%ADD20R,1.050000X1.500000*%
%ADD21C,5.500000*%
%ADD22R,2.400000X1.600000*%
%ADD23O,2.400000X1.600000*%
%ADD24R,1.905000X2.000000*%
%ADD25O,1.905000X2.000000*%
%ADD26C,0.800000*%
%ADD27C,0.300000*%
%ADD28C,0.254000*%
G04 APERTURE END LIST*
D10*
X6000000Y0D02*
G75*
G03X6000000Y0I-6000000J0D01*
G01*
D11*
X35000000Y0D02*
G75*
G03X35000000Y0I-35000000J0D01*
G01*
D12*
X-18288000Y23876000D03*
D13*
X-20828000Y23876000D03*
D14*
X-25146000Y-14478000D03*
D15*
X-25146000Y-11938000D03*
X-25146000Y-13208000D03*
D16*
X-14224000Y-21590000D03*
D17*
X-14224000Y-11430000D03*
D12*
X-5080000Y-30988000D03*
D13*
X-2540000Y-30988000D03*
X0Y-30988000D03*
X2540000Y-30988000D03*
X5080000Y-30988000D03*
D12*
X29464000Y13208000D03*
D13*
X26924000Y13208000D03*
X24384000Y13208000D03*
X-14478000Y4826000D03*
X-14478000Y7366000D03*
X-14478000Y9906000D03*
X-14478000Y12446000D03*
X-14478000Y14986000D03*
X-14478000Y17526000D03*
X-14478000Y20066000D03*
D12*
X-14478000Y22606000D03*
D18*
X12700000Y22606000D03*
X-10160000Y22606000D03*
X12700000Y20066000D03*
X-10160000Y20066000D03*
X12700000Y17526000D03*
X-10160000Y17526000D03*
X12700000Y14986000D03*
X-10160000Y14986000D03*
X12700000Y12446000D03*
X-10160000Y12446000D03*
X12700000Y9906000D03*
X-10160000Y9906000D03*
X12700000Y7366000D03*
X-10160000Y7366000D03*
X12700000Y4826000D03*
X-10160000Y4826000D03*
D19*
X-12954000Y-26670000D03*
X-14224000Y-26670000D03*
D20*
X-11684000Y-26670000D03*
D21*
X-23000000Y-20000000D03*
D17*
X23876000Y-14478000D03*
X23876000Y-11978000D03*
D12*
X17018000Y22606000D03*
D13*
X17018000Y20066000D03*
X17018000Y17526000D03*
X17018000Y14986000D03*
X17018000Y12446000D03*
X17018000Y9906000D03*
X17018000Y7366000D03*
X17018000Y4826000D03*
X23622000Y-20320000D03*
X21082000Y-20320000D03*
X18542000Y-20320000D03*
X16002000Y-20320000D03*
X13462000Y-20320000D03*
X10922000Y-20320000D03*
D17*
X-10922000Y-21590000D03*
D16*
X-10922000Y-11430000D03*
D17*
X-20574000Y-11430000D03*
D16*
X-20574000Y-1270000D03*
X-17272000Y-1270000D03*
D17*
X-17272000Y-11430000D03*
D22*
X11938000Y-6604000D03*
D23*
X19558000Y-14224000D03*
X11938000Y-9144000D03*
X19558000Y-11684000D03*
X11938000Y-11684000D03*
X19558000Y-9144000D03*
X11938000Y-14224000D03*
X19558000Y-6604000D03*
D21*
X23000000Y20000000D03*
D24*
X-25146000Y9906000D03*
D25*
X-27686000Y9906000D03*
X-30226000Y9906000D03*
D26*
X-6096000Y9906000D03*
X12191999Y1766011D03*
X14224003Y-11938003D03*
X7366000Y4572000D03*
X14224020Y-14420295D03*
X-19050000Y-17272000D03*
X20066000Y-762000D03*
X7366000Y-762000D03*
X-7366000Y2032000D03*
X15239996Y-6858000D03*
X0Y-9143982D03*
X0Y-12954000D03*
X-1524000Y-10413994D03*
X-1524000Y-12954000D03*
X16256000Y-16002000D03*
X19304000Y-16764000D03*
X6857999Y-10413997D03*
X6858000Y-17272000D03*
X-17272000Y-17272000D03*
D27*
X23622000Y-14224000D02*
X23876000Y-14478000D01*
X23876000Y-20066000D02*
X23622000Y-20320000D01*
X23876000Y-14478000D02*
X23876000Y-20066000D01*
X-11432792Y20066000D02*
X-14478000Y20066000D01*
X-10160000Y20066000D02*
X-11432792Y20066000D01*
X-14478000Y22606000D02*
X-10160000Y22606000D01*
X-10160000Y4826000D02*
X-14478000Y4826000D01*
X-13275919Y7366000D02*
X-10160000Y7366000D01*
X-14478000Y7366000D02*
X-13275919Y7366000D01*
X-11432792Y9906000D02*
X-14478000Y9906000D01*
X-10160000Y9906000D02*
X-11432792Y9906000D01*
X12338000Y-9144000D02*
X11938000Y-9144000D01*
X16002000Y-20320000D02*
X15494000Y-19812000D01*
X11938000Y-9144000D02*
X11538000Y-9144000D01*
X-6096000Y9906000D02*
X-10160000Y9906000D01*
X9386010Y4572000D02*
X7931685Y4572000D01*
X7931685Y4572000D02*
X7366000Y4572000D01*
X12191999Y1766011D02*
X9386010Y4572000D01*
X14624002Y-12338002D02*
X14224003Y-11938003D01*
X15240000Y-12954000D02*
X14624002Y-12338002D01*
X15240000Y-17272000D02*
X15240000Y-12954000D01*
X16002000Y-20320000D02*
X16002000Y-18034000D01*
X16002000Y-18034000D02*
X15240000Y-17272000D01*
X-14478000Y12446000D02*
X-10160000Y12446000D01*
X12338000Y-11684000D02*
X11938000Y-11684000D01*
X13462000Y-17018000D02*
X14224000Y-16256000D01*
X13462000Y-20320000D02*
X13462000Y-17018000D01*
X14224000Y-16256000D02*
X14224000Y-14420315D01*
X14224000Y-14420315D02*
X14224020Y-14420295D01*
X-10160000Y14986000D02*
X-14478000Y14986000D01*
X-13275919Y17526000D02*
X-10160000Y17526000D01*
X-14478000Y17526000D02*
X-13275919Y17526000D01*
X-20574000Y-12561370D02*
X-19050000Y-14085370D01*
X-20574000Y-11430000D02*
X-20574000Y-12561370D01*
X-19050000Y-14085370D02*
X-19050000Y-17272000D01*
X20066000Y-762000D02*
X7366000Y-762000D01*
X-20574000Y-1270000D02*
X-17272000Y2032000D01*
X-7931685Y2032000D02*
X-7366000Y2032000D01*
X-17272000Y2032000D02*
X-7931685Y2032000D01*
X13972792Y22606000D02*
X17018000Y22606000D01*
X12700000Y22606000D02*
X13972792Y22606000D01*
X19558000Y-6604000D02*
X15493996Y-6604000D01*
X15493996Y-6604000D02*
X15239996Y-6858000D01*
X15815919Y20066000D02*
X12700000Y20066000D01*
X17018000Y20066000D02*
X15815919Y20066000D01*
X12700000Y17526000D02*
X17018000Y17526000D01*
X0Y-9709667D02*
X0Y-12954000D01*
X0Y-9143982D02*
X0Y-9709667D01*
X17018000Y14986000D02*
X12700000Y14986000D01*
X-1524000Y-10413994D02*
X-1524000Y-12954000D01*
X13972792Y12446000D02*
X17018000Y12446000D01*
X12700000Y12446000D02*
X13972792Y12446000D01*
X17018000Y9906000D02*
X12700000Y9906000D01*
X12700000Y7366000D02*
X17018000Y7366000D01*
X17018000Y4826000D02*
X12700000Y4826000D01*
X19158000Y-9144000D02*
X19558000Y-9144000D01*
X18542000Y-20320000D02*
X18542000Y-18382004D01*
X16256000Y-16096004D02*
X16256000Y-16002000D01*
X18542000Y-18382004D02*
X16256000Y-16096004D01*
X21082000Y-18542000D02*
X19703999Y-17163999D01*
X21082000Y-20320000D02*
X21082000Y-18542000D01*
X19703999Y-17163999D02*
X19304000Y-16764000D01*
X6858000Y-16706315D02*
X6858000Y-17272000D01*
X6857999Y-10413997D02*
X6858000Y-16706315D01*
X-17272000Y-17272000D02*
X-17272000Y-11430000D01*
D28*
G36*
X1554363Y34229727D02*
X3819483Y34051458D01*
X6067809Y33723463D01*
X8289454Y33247183D01*
X10474650Y32624714D01*
X12613788Y31858791D01*
X14697462Y30952784D01*
X16716511Y29910675D01*
X18662057Y28737047D01*
X20525544Y27437060D01*
X22298779Y26016431D01*
X23973964Y24481406D01*
X25543735Y22838735D01*
X27001188Y21095640D01*
X28339916Y19259787D01*
X29554031Y17339247D01*
X30638195Y15342465D01*
X31587641Y13278222D01*
X32398194Y11155593D01*
X33066290Y8983912D01*
X33588992Y6772729D01*
X33964000Y4531765D01*
X34189667Y2270875D01*
X34265000Y0D01*
X34224092Y-1673837D01*
X34037918Y-3938321D01*
X33702076Y-6185489D01*
X33218045Y-8405458D01*
X32587952Y-10588467D01*
X31814567Y-12724919D01*
X30901292Y-14805418D01*
X29852141Y-16820817D01*
X28671729Y-18762254D01*
X27365246Y-20621192D01*
X25938436Y-22389457D01*
X24397572Y-24059274D01*
X22749432Y-25623302D01*
X21001260Y-27074661D01*
X19160745Y-28406972D01*
X17235978Y-29614376D01*
X15235424Y-30691563D01*
X13167879Y-31633798D01*
X11042434Y-32436937D01*
X8868435Y-33097448D01*
X6655440Y-33612428D01*
X4413181Y-33979612D01*
X2151517Y-34197386D01*
X-119607Y-34264791D01*
X-2390206Y-34181532D01*
X-4650294Y-33947975D01*
X-6889935Y-33565146D01*
X-9099280Y-33034729D01*
X-11268616Y-32359056D01*
X-13388402Y-31541099D01*
X-15449319Y-30584453D01*
X-16264782Y-30138000D01*
X-6577440Y-30138000D01*
X-6577440Y-31838000D01*
X-6528157Y-32085765D01*
X-6387809Y-32295809D01*
X-6177765Y-32436157D01*
X-5930000Y-32485440D01*
X-4230000Y-32485440D01*
X-3982235Y-32436157D01*
X-3772191Y-32295809D01*
X-3631843Y-32085765D01*
X-3622816Y-32040381D01*
X-3610625Y-32058625D01*
X-3119418Y-32386839D01*
X-2686256Y-32473000D01*
X-2393744Y-32473000D01*
X-1960582Y-32386839D01*
X-1469375Y-32058625D01*
X-1270000Y-31760239D01*
X-1070625Y-32058625D01*
X-579418Y-32386839D01*
X-146256Y-32473000D01*
X146256Y-32473000D01*
X579418Y-32386839D01*
X1070625Y-32058625D01*
X1270000Y-31760239D01*
X1469375Y-32058625D01*
X1960582Y-32386839D01*
X2393744Y-32473000D01*
X2686256Y-32473000D01*
X3119418Y-32386839D01*
X3610625Y-32058625D01*
X3823843Y-31739522D01*
X3884817Y-31869358D01*
X4313076Y-32259645D01*
X4723110Y-32429476D01*
X4953000Y-32308155D01*
X4953000Y-31115000D01*
X5207000Y-31115000D01*
X5207000Y-32308155D01*
X5436890Y-32429476D01*
X5846924Y-32259645D01*
X6275183Y-31869358D01*
X6521486Y-31344892D01*
X6400819Y-31115000D01*
X5207000Y-31115000D01*
X4953000Y-31115000D01*
X4933000Y-31115000D01*
X4933000Y-30861000D01*
X4953000Y-30861000D01*
X4953000Y-29667845D01*
X5207000Y-29667845D01*
X5207000Y-30861000D01*
X6400819Y-30861000D01*
X6521486Y-30631108D01*
X6275183Y-30106642D01*
X5846924Y-29716355D01*
X5436890Y-29546524D01*
X5207000Y-29667845D01*
X4953000Y-29667845D01*
X4723110Y-29546524D01*
X4313076Y-29716355D01*
X3884817Y-30106642D01*
X3823843Y-30236478D01*
X3610625Y-29917375D01*
X3119418Y-29589161D01*
X2686256Y-29503000D01*
X2393744Y-29503000D01*
X1960582Y-29589161D01*
X1469375Y-29917375D01*
X1270000Y-30215761D01*
X1070625Y-29917375D01*
X579418Y-29589161D01*
X146256Y-29503000D01*
X-146256Y-29503000D01*
X-579418Y-29589161D01*
X-1070625Y-29917375D01*
X-1270000Y-30215761D01*
X-1469375Y-29917375D01*
X-1960582Y-29589161D01*
X-2393744Y-29503000D01*
X-2686256Y-29503000D01*
X-3119418Y-29589161D01*
X-3610625Y-29917375D01*
X-3622816Y-29935619D01*
X-3631843Y-29890235D01*
X-3772191Y-29680191D01*
X-3982235Y-29539843D01*
X-4230000Y-29490560D01*
X-5930000Y-29490560D01*
X-6177765Y-29539843D01*
X-6387809Y-29680191D01*
X-6528157Y-29890235D01*
X-6577440Y-30138000D01*
X-16264782Y-30138000D01*
X-17442304Y-29493326D01*
X-19358594Y-28272514D01*
X-21189764Y-26927386D01*
X-21898287Y-26330754D01*
X-15384000Y-26330754D01*
X-15384000Y-27009245D01*
X-15316695Y-27347608D01*
X-15060313Y-27731313D01*
X-14676609Y-27987695D01*
X-14224000Y-28077725D01*
X-13771392Y-27987695D01*
X-13589000Y-27865825D01*
X-13406609Y-27987695D01*
X-12954000Y-28077725D01*
X-12501392Y-27987695D01*
X-12500016Y-27986776D01*
X-12335309Y-28055000D01*
X-11969750Y-28055000D01*
X-11811000Y-27896250D01*
X-11811000Y-27094710D01*
X-11794000Y-27009246D01*
X-11794000Y-26797000D01*
X-11557000Y-26797000D01*
X-11557000Y-27896250D01*
X-11398250Y-28055000D01*
X-11032691Y-28055000D01*
X-10799302Y-27958327D01*
X-10620673Y-27779699D01*
X-10524000Y-27546310D01*
X-10524000Y-26955750D01*
X-10682750Y-26797000D01*
X-11557000Y-26797000D01*
X-11794000Y-26797000D01*
X-11794000Y-26330755D01*
X-11811000Y-26245291D01*
X-11811000Y-25443750D01*
X-11557000Y-25443750D01*
X-11557000Y-26543000D01*
X-10682750Y-26543000D01*
X-10524000Y-26384250D01*
X-10524000Y-25793690D01*
X-10620673Y-25560301D01*
X-10799302Y-25381673D01*
X-11032691Y-25285000D01*
X-11398250Y-25285000D01*
X-11557000Y-25443750D01*
X-11811000Y-25443750D01*
X-11969750Y-25285000D01*
X-12335309Y-25285000D01*
X-12500016Y-25353224D01*
X-12501391Y-25352305D01*
X-12954000Y-25262275D01*
X-13406608Y-25352305D01*
X-13588999Y-25474175D01*
X-13771391Y-25352305D01*
X-14224000Y-25262275D01*
X-14676608Y-25352305D01*
X-15060312Y-25608687D01*
X-15316695Y-25992391D01*
X-15384000Y-26330754D01*
X-21898287Y-26330754D01*
X-22927760Y-25463857D01*
X-24564942Y-23888362D01*
X-26094110Y-22207828D01*
X-27508541Y-20429645D01*
X-28272269Y-19326682D01*
X-26385000Y-19326682D01*
X-26385000Y-20673318D01*
X-25869664Y-21917448D01*
X-24917448Y-22869664D01*
X-23673318Y-23385000D01*
X-22326682Y-23385000D01*
X-21082552Y-22869664D01*
X-20130336Y-21917448D01*
X-19994703Y-21590000D01*
X-15687113Y-21590000D01*
X-15575740Y-22149909D01*
X-15258577Y-22624577D01*
X-14783909Y-22941740D01*
X-14365333Y-23025000D01*
X-14082667Y-23025000D01*
X-13664091Y-22941740D01*
X-13189423Y-22624577D01*
X-12872260Y-22149909D01*
X-12760887Y-21590000D01*
X-12817664Y-21304561D01*
X-12357000Y-21304561D01*
X-12357000Y-21875439D01*
X-12138534Y-22402862D01*
X-11734862Y-22806534D01*
X-11207439Y-23025000D01*
X-10636561Y-23025000D01*
X-10109138Y-22806534D01*
X-9705466Y-22402862D01*
X-9487000Y-21875439D01*
X-9487000Y-21304561D01*
X-9705466Y-20777138D01*
X-10109138Y-20373466D01*
X-10238216Y-20320000D01*
X9407908Y-20320000D01*
X9523161Y-20899418D01*
X9851375Y-21390625D01*
X10342582Y-21718839D01*
X10775744Y-21805000D01*
X11068256Y-21805000D01*
X11501418Y-21718839D01*
X11992625Y-21390625D01*
X12192000Y-21092239D01*
X12391375Y-21390625D01*
X12882582Y-21718839D01*
X13315744Y-21805000D01*
X13608256Y-21805000D01*
X14041418Y-21718839D01*
X14532625Y-21390625D01*
X14732000Y-21092239D01*
X14931375Y-21390625D01*
X15422582Y-21718839D01*
X15855744Y-21805000D01*
X16148256Y-21805000D01*
X16581418Y-21718839D01*
X17072625Y-21390625D01*
X17272000Y-21092239D01*
X17471375Y-21390625D01*
X17962582Y-21718839D01*
X18395744Y-21805000D01*
X18688256Y-21805000D01*
X19121418Y-21718839D01*
X19612625Y-21390625D01*
X19812000Y-21092239D01*
X20011375Y-21390625D01*
X20502582Y-21718839D01*
X20935744Y-21805000D01*
X21228256Y-21805000D01*
X21661418Y-21718839D01*
X22152625Y-21390625D01*
X22352000Y-21092239D01*
X22551375Y-21390625D01*
X23042582Y-21718839D01*
X23475744Y-21805000D01*
X23768256Y-21805000D01*
X24201418Y-21718839D01*
X24692625Y-21390625D01*
X25020839Y-20899418D01*
X25136092Y-20320000D01*
X25020839Y-19740582D01*
X24692625Y-19249375D01*
X24661000Y-19228244D01*
X24661000Y-15706075D01*
X24688862Y-15694534D01*
X25092534Y-15290862D01*
X25311000Y-14763439D01*
X25311000Y-14192561D01*
X25092534Y-13665138D01*
X24688862Y-13261466D01*
X24623701Y-13234475D01*
X24630005Y-13231864D01*
X24704139Y-12985745D01*
X23876000Y-12157605D01*
X23047861Y-12985745D01*
X23121995Y-13231864D01*
X23128746Y-13234290D01*
X23063138Y-13261466D01*
X22659466Y-13665138D01*
X22441000Y-14192561D01*
X22441000Y-14763439D01*
X22659466Y-15290862D01*
X23063138Y-15694534D01*
X23091000Y-15706075D01*
X23091001Y-18911530D01*
X23042582Y-18921161D01*
X22551375Y-19249375D01*
X22352000Y-19547761D01*
X22152625Y-19249375D01*
X21867000Y-19058526D01*
X21867000Y-18619312D01*
X21882378Y-18542000D01*
X21867000Y-18464688D01*
X21867000Y-18464684D01*
X21821454Y-18235708D01*
X21647953Y-17976047D01*
X21582408Y-17932251D01*
X20339000Y-16688843D01*
X20339000Y-16558126D01*
X20181431Y-16177720D01*
X19890280Y-15886569D01*
X19509874Y-15729000D01*
X19098126Y-15729000D01*
X18717720Y-15886569D01*
X18426569Y-16177720D01*
X18269000Y-16558126D01*
X18269000Y-16969874D01*
X18289486Y-17019333D01*
X17291000Y-16020847D01*
X17291000Y-15796126D01*
X17133431Y-15415720D01*
X16842280Y-15124569D01*
X16461874Y-14967000D01*
X16050126Y-14967000D01*
X16025000Y-14977408D01*
X16025000Y-13031312D01*
X16040378Y-12954000D01*
X16025000Y-12876688D01*
X16025000Y-12876684D01*
X15979454Y-12647708D01*
X15805953Y-12388047D01*
X15740408Y-12344251D01*
X15259003Y-11862846D01*
X15259003Y-11732129D01*
X15101434Y-11351723D01*
X14810283Y-11060572D01*
X14429877Y-10903003D01*
X14018129Y-10903003D01*
X13645222Y-11057466D01*
X13372577Y-10649423D01*
X13020242Y-10414000D01*
X13372577Y-10178577D01*
X13689740Y-9703909D01*
X13801113Y-9144000D01*
X13689740Y-8584091D01*
X13372577Y-8109423D01*
X13251894Y-8028785D01*
X13385765Y-8002157D01*
X13595809Y-7861809D01*
X13736157Y-7651765D01*
X13785440Y-7404000D01*
X13785440Y-6652126D01*
X14204996Y-6652126D01*
X14204996Y-7063874D01*
X14362565Y-7444280D01*
X14653716Y-7735431D01*
X15034122Y-7893000D01*
X15445870Y-7893000D01*
X15826276Y-7735431D01*
X16117427Y-7444280D01*
X16140325Y-7389000D01*
X17956661Y-7389000D01*
X18123423Y-7638577D01*
X18475758Y-7874000D01*
X18123423Y-8109423D01*
X17806260Y-8584091D01*
X17694887Y-9144000D01*
X17806260Y-9703909D01*
X18123423Y-10178577D01*
X18475758Y-10414000D01*
X18123423Y-10649423D01*
X17806260Y-11124091D01*
X17694887Y-11684000D01*
X17806260Y-12243909D01*
X18123423Y-12718577D01*
X18475758Y-12954000D01*
X18123423Y-13189423D01*
X17806260Y-13664091D01*
X17694887Y-14224000D01*
X17806260Y-14783909D01*
X18123423Y-15258577D01*
X18598091Y-15575740D01*
X19016667Y-15659000D01*
X20099333Y-15659000D01*
X20517909Y-15575740D01*
X20992577Y-15258577D01*
X21309740Y-14783909D01*
X21421113Y-14224000D01*
X21309740Y-13664091D01*
X20992577Y-13189423D01*
X20640242Y-12954000D01*
X20992577Y-12718577D01*
X21309740Y-12243909D01*
X21405752Y-11761223D01*
X22429035Y-11761223D01*
X22456222Y-12331454D01*
X22622136Y-12732005D01*
X22868255Y-12806139D01*
X23696395Y-11978000D01*
X24055605Y-11978000D01*
X24883745Y-12806139D01*
X25129864Y-12732005D01*
X25322965Y-12194777D01*
X25295778Y-11624546D01*
X25129864Y-11223995D01*
X24883745Y-11149861D01*
X24055605Y-11978000D01*
X23696395Y-11978000D01*
X22868255Y-11149861D01*
X22622136Y-11223995D01*
X22429035Y-11761223D01*
X21405752Y-11761223D01*
X21421113Y-11684000D01*
X21309740Y-11124091D01*
X21206951Y-10970255D01*
X23047861Y-10970255D01*
X23876000Y-11798395D01*
X24704139Y-10970255D01*
X24630005Y-10724136D01*
X24092777Y-10531035D01*
X23522546Y-10558222D01*
X23121995Y-10724136D01*
X23047861Y-10970255D01*
X21206951Y-10970255D01*
X20992577Y-10649423D01*
X20640242Y-10414000D01*
X20992577Y-10178577D01*
X21309740Y-9703909D01*
X21421113Y-9144000D01*
X21309740Y-8584091D01*
X20992577Y-8109423D01*
X20640242Y-7874000D01*
X20992577Y-7638577D01*
X21309740Y-7163909D01*
X21421113Y-6604000D01*
X21309740Y-6044091D01*
X20992577Y-5569423D01*
X20517909Y-5252260D01*
X20099333Y-5169000D01*
X19016667Y-5169000D01*
X18598091Y-5252260D01*
X18123423Y-5569423D01*
X17956661Y-5819000D01*
X15571306Y-5819000D01*
X15493995Y-5803622D01*
X15416685Y-5819000D01*
X15416680Y-5819000D01*
X15396571Y-5823000D01*
X15034122Y-5823000D01*
X14653716Y-5980569D01*
X14362565Y-6271720D01*
X14204996Y-6652126D01*
X13785440Y-6652126D01*
X13785440Y-5804000D01*
X13736157Y-5556235D01*
X13595809Y-5346191D01*
X13385765Y-5205843D01*
X13138000Y-5156560D01*
X10738000Y-5156560D01*
X10490235Y-5205843D01*
X10280191Y-5346191D01*
X10139843Y-5556235D01*
X10090560Y-5804000D01*
X10090560Y-7404000D01*
X10139843Y-7651765D01*
X10280191Y-7861809D01*
X10490235Y-8002157D01*
X10624106Y-8028785D01*
X10503423Y-8109423D01*
X10186260Y-8584091D01*
X10074887Y-9144000D01*
X10186260Y-9703909D01*
X10503423Y-10178577D01*
X10855758Y-10414000D01*
X10503423Y-10649423D01*
X10186260Y-11124091D01*
X10074887Y-11684000D01*
X10186260Y-12243909D01*
X10503423Y-12718577D01*
X10859499Y-12956499D01*
X10433500Y-13299104D01*
X10163633Y-13792181D01*
X10146096Y-13874961D01*
X10268085Y-14097000D01*
X11811000Y-14097000D01*
X11811000Y-14077000D01*
X12065000Y-14077000D01*
X12065000Y-14097000D01*
X12085000Y-14097000D01*
X12085000Y-14351000D01*
X12065000Y-14351000D01*
X12065000Y-15659000D01*
X12465000Y-15659000D01*
X13004483Y-15501166D01*
X13439001Y-15151710D01*
X13439000Y-15930843D01*
X12961590Y-16408253D01*
X12896048Y-16452047D01*
X12852254Y-16517589D01*
X12852251Y-16517592D01*
X12722546Y-16711709D01*
X12661622Y-17018000D01*
X12677001Y-17095317D01*
X12677000Y-19058526D01*
X12391375Y-19249375D01*
X12192000Y-19547761D01*
X11992625Y-19249375D01*
X11501418Y-18921161D01*
X11068256Y-18835000D01*
X10775744Y-18835000D01*
X10342582Y-18921161D01*
X9851375Y-19249375D01*
X9523161Y-19740582D01*
X9407908Y-20320000D01*
X-10238216Y-20320000D01*
X-10636561Y-20155000D01*
X-11207439Y-20155000D01*
X-11734862Y-20373466D01*
X-12138534Y-20777138D01*
X-12357000Y-21304561D01*
X-12817664Y-21304561D01*
X-12872260Y-21030091D01*
X-13189423Y-20555423D01*
X-13664091Y-20238260D01*
X-14082667Y-20155000D01*
X-14365333Y-20155000D01*
X-14783909Y-20238260D01*
X-15258577Y-20555423D01*
X-15575740Y-21030091D01*
X-15687113Y-21590000D01*
X-19994703Y-21590000D01*
X-19615000Y-20673318D01*
X-19615000Y-19326682D01*
X-20130336Y-18082552D01*
X-21082552Y-17130336D01*
X-22326682Y-16615000D01*
X-23673318Y-16615000D01*
X-24917448Y-17130336D01*
X-25869664Y-18082552D01*
X-26385000Y-19326682D01*
X-28272269Y-19326682D01*
X-28802015Y-18561632D01*
X-29968844Y-16612002D01*
X-31003899Y-14589327D01*
X-31902628Y-12502503D01*
X-32102528Y-11938000D01*
X-26553725Y-11938000D01*
X-26463695Y-12390609D01*
X-26341826Y-12573000D01*
X-26463695Y-12755391D01*
X-26553725Y-13208000D01*
X-26463843Y-13659867D01*
X-26494157Y-13705235D01*
X-26543440Y-13953000D01*
X-26543440Y-15003000D01*
X-26494157Y-15250765D01*
X-26353809Y-15460809D01*
X-26143765Y-15601157D01*
X-25896000Y-15650440D01*
X-24396000Y-15650440D01*
X-24148235Y-15601157D01*
X-23938191Y-15460809D01*
X-23797843Y-15250765D01*
X-23748560Y-15003000D01*
X-23748560Y-13953000D01*
X-23797843Y-13705235D01*
X-23828157Y-13659867D01*
X-23738275Y-13208000D01*
X-23828305Y-12755391D01*
X-23950174Y-12573000D01*
X-23828305Y-12390609D01*
X-23738275Y-11938000D01*
X-23828305Y-11485391D01*
X-24056039Y-11144561D01*
X-22009000Y-11144561D01*
X-22009000Y-11715439D01*
X-21790534Y-12242862D01*
X-21386862Y-12646534D01*
X-21354796Y-12659816D01*
X-21313454Y-12867661D01*
X-21183749Y-13061778D01*
X-21183746Y-13061781D01*
X-21139952Y-13127323D01*
X-21074410Y-13171117D01*
X-19835000Y-14410528D01*
X-19834999Y-16593288D01*
X-19927431Y-16685720D01*
X-20085000Y-17066126D01*
X-20085000Y-17477874D01*
X-19927431Y-17858280D01*
X-19636280Y-18149431D01*
X-19255874Y-18307000D01*
X-18844126Y-18307000D01*
X-18463720Y-18149431D01*
X-18172569Y-17858280D01*
X-18161000Y-17830350D01*
X-18149431Y-17858280D01*
X-17858280Y-18149431D01*
X-17477874Y-18307000D01*
X-17066126Y-18307000D01*
X-16685720Y-18149431D01*
X-16394569Y-17858280D01*
X-16237000Y-17477874D01*
X-16237000Y-17066126D01*
X-16394569Y-16685720D01*
X-16487000Y-16593289D01*
X-16487000Y-12658075D01*
X-16459138Y-12646534D01*
X-16055466Y-12242862D01*
X-15837000Y-11715439D01*
X-15837000Y-11144561D01*
X-15659000Y-11144561D01*
X-15659000Y-11715439D01*
X-15440534Y-12242862D01*
X-15036862Y-12646534D01*
X-14509439Y-12865000D01*
X-13938561Y-12865000D01*
X-13411138Y-12646534D01*
X-13007466Y-12242862D01*
X-12789000Y-11715439D01*
X-12789000Y-11430000D01*
X-12385113Y-11430000D01*
X-12273740Y-11989909D01*
X-11956577Y-12464577D01*
X-11481909Y-12781740D01*
X-11063333Y-12865000D01*
X-10780667Y-12865000D01*
X-10362091Y-12781740D01*
X-9887423Y-12464577D01*
X-9570260Y-11989909D01*
X-9458887Y-11430000D01*
X-9570260Y-10870091D01*
X-9887423Y-10395423D01*
X-10167741Y-10208120D01*
X-2559000Y-10208120D01*
X-2559000Y-10619868D01*
X-2401431Y-11000274D01*
X-2309000Y-11092705D01*
X-2308999Y-12275288D01*
X-2401431Y-12367720D01*
X-2559000Y-12748126D01*
X-2559000Y-13159874D01*
X-2401431Y-13540280D01*
X-2110280Y-13831431D01*
X-1729874Y-13989000D01*
X-1318126Y-13989000D01*
X-937720Y-13831431D01*
X-762000Y-13655711D01*
X-586280Y-13831431D01*
X-205874Y-13989000D01*
X205874Y-13989000D01*
X586280Y-13831431D01*
X877431Y-13540280D01*
X1035000Y-13159874D01*
X1035000Y-12748126D01*
X877431Y-12367720D01*
X785000Y-12275289D01*
X785000Y-10208123D01*
X5822999Y-10208123D01*
X5822999Y-10619871D01*
X5980568Y-11000277D01*
X6072999Y-11092708D01*
X6073001Y-16593288D01*
X5980569Y-16685720D01*
X5823000Y-17066126D01*
X5823000Y-17477874D01*
X5980569Y-17858280D01*
X6271720Y-18149431D01*
X6652126Y-18307000D01*
X7063874Y-18307000D01*
X7444280Y-18149431D01*
X7735431Y-17858280D01*
X7893000Y-17477874D01*
X7893000Y-17066126D01*
X7735431Y-16685720D01*
X7643000Y-16593289D01*
X7643000Y-14573039D01*
X10146096Y-14573039D01*
X10163633Y-14655819D01*
X10433500Y-15148896D01*
X10871517Y-15501166D01*
X11411000Y-15659000D01*
X11811000Y-15659000D01*
X11811000Y-14351000D01*
X10268085Y-14351000D01*
X10146096Y-14573039D01*
X7643000Y-14573039D01*
X7642998Y-11092709D01*
X7735430Y-11000277D01*
X7892999Y-10619871D01*
X7892999Y-10208123D01*
X7735430Y-9827717D01*
X7444279Y-9536566D01*
X7063873Y-9378997D01*
X6652125Y-9378997D01*
X6271719Y-9536566D01*
X5980568Y-9827717D01*
X5822999Y-10208123D01*
X785000Y-10208123D01*
X785000Y-9822693D01*
X877431Y-9730262D01*
X1035000Y-9349856D01*
X1035000Y-8938108D01*
X877431Y-8557702D01*
X586280Y-8266551D01*
X205874Y-8108982D01*
X-205874Y-8108982D01*
X-586280Y-8266551D01*
X-877431Y-8557702D01*
X-1035000Y-8938108D01*
X-1035000Y-9349856D01*
X-961794Y-9526591D01*
X-1318126Y-9378994D01*
X-1729874Y-9378994D01*
X-2110280Y-9536563D01*
X-2401431Y-9827714D01*
X-2559000Y-10208120D01*
X-10167741Y-10208120D01*
X-10362091Y-10078260D01*
X-10780667Y-9995000D01*
X-11063333Y-9995000D01*
X-11481909Y-10078260D01*
X-11956577Y-10395423D01*
X-12273740Y-10870091D01*
X-12385113Y-11430000D01*
X-12789000Y-11430000D01*
X-12789000Y-11144561D01*
X-13007466Y-10617138D01*
X-13411138Y-10213466D01*
X-13938561Y-9995000D01*
X-14509439Y-9995000D01*
X-15036862Y-10213466D01*
X-15440534Y-10617138D01*
X-15659000Y-11144561D01*
X-15837000Y-11144561D01*
X-16055466Y-10617138D01*
X-16459138Y-10213466D01*
X-16986561Y-9995000D01*
X-17557439Y-9995000D01*
X-18084862Y-10213466D01*
X-18488534Y-10617138D01*
X-18707000Y-11144561D01*
X-18707000Y-11715439D01*
X-18488534Y-12242862D01*
X-18084862Y-12646534D01*
X-18056999Y-12658075D01*
X-18057000Y-16593289D01*
X-18149431Y-16685720D01*
X-18161000Y-16713650D01*
X-18172569Y-16685720D01*
X-18265000Y-16593289D01*
X-18265000Y-14162680D01*
X-18249622Y-14085369D01*
X-18265000Y-14008058D01*
X-18265000Y-14008054D01*
X-18310546Y-13779078D01*
X-18376173Y-13680861D01*
X-18440251Y-13584961D01*
X-18440253Y-13584959D01*
X-18484047Y-13519417D01*
X-18549589Y-13475623D01*
X-19569908Y-12455304D01*
X-19357466Y-12242862D01*
X-19139000Y-11715439D01*
X-19139000Y-11144561D01*
X-19357466Y-10617138D01*
X-19761138Y-10213466D01*
X-20288561Y-9995000D01*
X-20859439Y-9995000D01*
X-21386862Y-10213466D01*
X-21790534Y-10617138D01*
X-22009000Y-11144561D01*
X-24056039Y-11144561D01*
X-24084687Y-11101687D01*
X-24468391Y-10845305D01*
X-24806754Y-10778000D01*
X-25485246Y-10778000D01*
X-25823609Y-10845305D01*
X-26207313Y-11101687D01*
X-26463695Y-11485391D01*
X-26553725Y-11938000D01*
X-32102528Y-11938000D01*
X-32661078Y-10360704D01*
X-33275916Y-8173349D01*
X-33575020Y-6754000D01*
X-30117724Y-6754000D01*
X-29932620Y-7684580D01*
X-29405489Y-8473489D01*
X-28616580Y-9000620D01*
X-27920897Y-9139000D01*
X-27451103Y-9139000D01*
X-26755420Y-9000620D01*
X-25966511Y-8473489D01*
X-25439380Y-7684580D01*
X-25254276Y-6754000D01*
X-25439380Y-5823420D01*
X-25966511Y-5034511D01*
X-26755420Y-4507380D01*
X-27451103Y-4369000D01*
X-27920897Y-4369000D01*
X-28616580Y-4507380D01*
X-29405489Y-5034511D01*
X-29932620Y-5823420D01*
X-30117724Y-6754000D01*
X-33575020Y-6754000D01*
X-33744438Y-5950055D01*
X-34064583Y-3700598D01*
X-34234944Y-1434869D01*
X-34236382Y-1270000D01*
X-22037113Y-1270000D01*
X-21925740Y-1829909D01*
X-21608577Y-2304577D01*
X-21133909Y-2621740D01*
X-20715333Y-2705000D01*
X-20432667Y-2705000D01*
X-20014091Y-2621740D01*
X-19539423Y-2304577D01*
X-19222260Y-1829909D01*
X-19110887Y-1270000D01*
X-18735113Y-1270000D01*
X-18623740Y-1829909D01*
X-18306577Y-2304577D01*
X-17831909Y-2621740D01*
X-17413333Y-2705000D01*
X-17130667Y-2705000D01*
X-16712091Y-2621740D01*
X-16237423Y-2304577D01*
X-15920260Y-1829909D01*
X-15808887Y-1270000D01*
X-15920260Y-710091D01*
X-16237423Y-235423D01*
X-16712091Y81740D01*
X-17130667Y165000D01*
X-17413333Y165000D01*
X-17831909Y81740D01*
X-18306577Y-235423D01*
X-18623740Y-710091D01*
X-18735113Y-1270000D01*
X-19110887Y-1270000D01*
X-19169446Y-975603D01*
X-16946842Y1247000D01*
X-8044711Y1247000D01*
X-7952280Y1154569D01*
X-7571874Y997000D01*
X-7160126Y997000D01*
X-6779720Y1154569D01*
X-6534612Y1399677D01*
X-6639747Y933156D01*
X-6702998Y-163818D01*
X-6586236Y-1256392D01*
X-6292596Y-2315224D01*
X-5829964Y-3311880D01*
X-5210764Y-4219593D01*
X-4451625Y-5013986D01*
X-3572935Y-5673725D01*
X-2598292Y-6181092D01*
X-1553870Y-6522462D01*
X-467717Y-6688667D01*
X630996Y-6675243D01*
X1712764Y-6482551D01*
X2748534Y-6115765D01*
X3710490Y-5584737D01*
X4572799Y-4903727D01*
X5312302Y-4091023D01*
X5909140Y-3168453D01*
X6347283Y-2160791D01*
X6538764Y-1398475D01*
X6779720Y-1639431D01*
X7160126Y-1797000D01*
X7571874Y-1797000D01*
X7952280Y-1639431D01*
X8044711Y-1547000D01*
X19387289Y-1547000D01*
X19479720Y-1639431D01*
X19860126Y-1797000D01*
X20271874Y-1797000D01*
X20652280Y-1639431D01*
X20943431Y-1348280D01*
X21101000Y-967874D01*
X21101000Y-556126D01*
X20943431Y-175720D01*
X20652280Y115431D01*
X20271874Y273000D01*
X19860126Y273000D01*
X19479720Y115431D01*
X19387289Y23000D01*
X8044711Y23000D01*
X7952280Y115431D01*
X7571874Y273000D01*
X7160126Y273000D01*
X6779720Y115431D01*
X6704029Y39740D01*
X6696995Y327538D01*
X6553574Y1416933D01*
X6234151Y2468275D01*
X5747307Y3453330D01*
X5106114Y4345644D01*
X4672373Y4777874D01*
X6331000Y4777874D01*
X6331000Y4366126D01*
X6488569Y3985720D01*
X6779720Y3694569D01*
X7160126Y3537000D01*
X7571874Y3537000D01*
X7952280Y3694569D01*
X8044711Y3787000D01*
X9060853Y3787000D01*
X11156999Y1690854D01*
X11156999Y1560137D01*
X11314568Y1179731D01*
X11605719Y888580D01*
X11986125Y731011D01*
X12397873Y731011D01*
X12778279Y888580D01*
X13069430Y1179731D01*
X13226999Y1560137D01*
X13226999Y1971885D01*
X13069430Y2352291D01*
X12778279Y2643442D01*
X12397873Y2801011D01*
X12267156Y2801011D01*
X9995759Y5072408D01*
X9951963Y5137953D01*
X9692302Y5311454D01*
X9463326Y5357000D01*
X9463322Y5357000D01*
X9386010Y5372378D01*
X9308698Y5357000D01*
X8044711Y5357000D01*
X7952280Y5449431D01*
X7571874Y5607000D01*
X7160126Y5607000D01*
X6779720Y5449431D01*
X6488569Y5158280D01*
X6331000Y4777874D01*
X4672373Y4777874D01*
X4327794Y5121252D01*
X3433247Y5759326D01*
X2446499Y6242729D01*
X1394048Y6558480D01*
X304159Y6698098D01*
X-793899Y6657834D01*
X-1870635Y6438769D01*
X-2897135Y6046787D01*
X-3845830Y5492414D01*
X-4691243Y4790539D01*
X-5410669Y3960011D01*
X-5984788Y3023134D01*
X-6331000Y2170516D01*
X-6331000Y2237874D01*
X-6488569Y2618280D01*
X-6779720Y2909431D01*
X-7160126Y3067000D01*
X-7571874Y3067000D01*
X-7952280Y2909431D01*
X-8044711Y2817000D01*
X-17194690Y2817000D01*
X-17272001Y2832378D01*
X-17349312Y2817000D01*
X-17349316Y2817000D01*
X-17578292Y2771454D01*
X-17697375Y2691885D01*
X-17772409Y2641749D01*
X-17772411Y2641747D01*
X-17837953Y2597953D01*
X-17881747Y2532411D01*
X-20279604Y134554D01*
X-20432667Y165000D01*
X-20715333Y165000D01*
X-21133909Y81740D01*
X-21608577Y-235423D01*
X-21925740Y-710091D01*
X-22037113Y-1270000D01*
X-34236382Y-1270000D01*
X-34254772Y837169D01*
X-34123979Y3105525D01*
X-33843141Y5360227D01*
X-33413493Y7591359D01*
X-32836923Y9789112D01*
X-32729606Y10109850D01*
X-31813500Y10109850D01*
X-31813500Y9702151D01*
X-31721391Y9239090D01*
X-31370523Y8713977D01*
X-30845411Y8363109D01*
X-30226000Y8239900D01*
X-29606590Y8363109D01*
X-29081477Y8713977D01*
X-28956000Y8901767D01*
X-28830523Y8713977D01*
X-28305411Y8363109D01*
X-27686000Y8239900D01*
X-27066590Y8363109D01*
X-26674509Y8625088D01*
X-26556309Y8448191D01*
X-26346265Y8307843D01*
X-26098500Y8258560D01*
X-24193500Y8258560D01*
X-23945735Y8307843D01*
X-23735691Y8448191D01*
X-23595343Y8658235D01*
X-23546060Y8906000D01*
X-23546060Y10906000D01*
X-23595343Y11153765D01*
X-23735691Y11363809D01*
X-23945735Y11504157D01*
X-24193500Y11553440D01*
X-26098500Y11553440D01*
X-26346265Y11504157D01*
X-26556309Y11363809D01*
X-26674509Y11186912D01*
X-27066589Y11448891D01*
X-27686000Y11572100D01*
X-28305410Y11448891D01*
X-28830523Y11098023D01*
X-28956000Y10910233D01*
X-29081477Y11098023D01*
X-29606589Y11448891D01*
X-30226000Y11572100D01*
X-30845410Y11448891D01*
X-31370523Y11098023D01*
X-31721391Y10572911D01*
X-31813500Y10109850D01*
X-32729606Y10109850D01*
X-32115967Y11943821D01*
X-31253796Y14046013D01*
X-30254199Y16086443D01*
X-29426418Y17526000D01*
X-15992092Y17526000D01*
X-15876839Y16946582D01*
X-15548625Y16455375D01*
X-15250239Y16256000D01*
X-15548625Y16056625D01*
X-15876839Y15565418D01*
X-15992092Y14986000D01*
X-15876839Y14406582D01*
X-15548625Y13915375D01*
X-15250239Y13716000D01*
X-15548625Y13516625D01*
X-15876839Y13025418D01*
X-15992092Y12446000D01*
X-15876839Y11866582D01*
X-15548625Y11375375D01*
X-15250239Y11176000D01*
X-15548625Y10976625D01*
X-15876839Y10485418D01*
X-15992092Y9906000D01*
X-15876839Y9326582D01*
X-15548625Y8835375D01*
X-15250239Y8636000D01*
X-15548625Y8436625D01*
X-15876839Y7945418D01*
X-15992092Y7366000D01*
X-15876839Y6786582D01*
X-15548625Y6295375D01*
X-15250239Y6096000D01*
X-15548625Y5896625D01*
X-15876839Y5405418D01*
X-15992092Y4826000D01*
X-15876839Y4246582D01*
X-15548625Y3755375D01*
X-15057418Y3427161D01*
X-14624256Y3341000D01*
X-14331744Y3341000D01*
X-13898582Y3427161D01*
X-13407375Y3755375D01*
X-13216526Y4041000D01*
X-11496314Y4041000D01*
X-11461310Y3956493D01*
X-11029507Y3524690D01*
X-10465330Y3291000D01*
X-9854670Y3291000D01*
X-9290493Y3524690D01*
X-8858690Y3956493D01*
X-8625000Y4520670D01*
X-8625000Y5131330D01*
X-8858690Y5695507D01*
X-9259183Y6096000D01*
X-8858690Y6496493D01*
X-8625000Y7060670D01*
X-8625000Y7671330D01*
X-8858690Y8235507D01*
X-9259183Y8636000D01*
X-8858690Y9036493D01*
X-8823686Y9121000D01*
X-6774711Y9121000D01*
X-6682280Y9028569D01*
X-6301874Y8871000D01*
X-5890126Y8871000D01*
X-5509720Y9028569D01*
X-5218569Y9319720D01*
X-5061000Y9700126D01*
X-5061000Y10111874D01*
X-5218569Y10492280D01*
X-5509720Y10783431D01*
X-5890126Y10941000D01*
X-6301874Y10941000D01*
X-6682280Y10783431D01*
X-6774711Y10691000D01*
X-8823686Y10691000D01*
X-8858690Y10775507D01*
X-9259183Y11176000D01*
X-8858690Y11576493D01*
X-8625000Y12140670D01*
X-8625000Y12751330D01*
X-8858690Y13315507D01*
X-9259183Y13716000D01*
X-8858690Y14116493D01*
X-8625000Y14680670D01*
X-8625000Y15291330D01*
X-8858690Y15855507D01*
X-9259183Y16256000D01*
X-8858690Y16656493D01*
X-8625000Y17220670D01*
X-8625000Y17831330D01*
X-8858690Y18395507D01*
X-9290493Y18827310D01*
X-9310115Y18835438D01*
X-9259446Y18985841D01*
X-10160000Y19886395D01*
X-11060554Y18985841D01*
X-11009885Y18835438D01*
X-11029507Y18827310D01*
X-11461310Y18395507D01*
X-11496314Y18311000D01*
X-13216526Y18311000D01*
X-13407375Y18596625D01*
X-13726478Y18809843D01*
X-13596642Y18870817D01*
X-13206355Y19299076D01*
X-13036524Y19709110D01*
X-13157845Y19939000D01*
X-14351000Y19939000D01*
X-14351000Y19919000D01*
X-14605000Y19919000D01*
X-14605000Y19939000D01*
X-15798155Y19939000D01*
X-15919476Y19709110D01*
X-15749645Y19299076D01*
X-15359358Y18870817D01*
X-15229522Y18809843D01*
X-15548625Y18596625D01*
X-15876839Y18105418D01*
X-15992092Y17526000D01*
X-29426418Y17526000D01*
X-29121573Y18056140D01*
X-27860898Y19946444D01*
X-26477716Y21749041D01*
X-24978110Y23456007D01*
X-24914789Y23519108D01*
X-22269486Y23519108D01*
X-22023183Y22994642D01*
X-21594924Y22604355D01*
X-21184890Y22434524D01*
X-20955000Y22555845D01*
X-20955000Y23749000D01*
X-22148819Y23749000D01*
X-22269486Y23519108D01*
X-24914789Y23519108D01*
X-24198509Y24232892D01*
X-22269486Y24232892D01*
X-22148819Y24003000D01*
X-20955000Y24003000D01*
X-20955000Y25196155D01*
X-20701000Y25196155D01*
X-20701000Y24003000D01*
X-20681000Y24003000D01*
X-20681000Y23749000D01*
X-20701000Y23749000D01*
X-20701000Y22555845D01*
X-20471110Y22434524D01*
X-20061076Y22604355D01*
X-19756739Y22881708D01*
X-19736157Y22778235D01*
X-19595809Y22568191D01*
X-19385765Y22427843D01*
X-19138000Y22378560D01*
X-17438000Y22378560D01*
X-17190235Y22427843D01*
X-16980191Y22568191D01*
X-16839843Y22778235D01*
X-16790560Y23026000D01*
X-16790560Y23456000D01*
X-15975440Y23456000D01*
X-15975440Y21756000D01*
X-15926157Y21508235D01*
X-15785809Y21298191D01*
X-15575765Y21157843D01*
X-15472292Y21137261D01*
X-15749645Y20832924D01*
X-15919476Y20422890D01*
X-15798155Y20193000D01*
X-14605000Y20193000D01*
X-14605000Y20213000D01*
X-14351000Y20213000D01*
X-14351000Y20193000D01*
X-13157845Y20193000D01*
X-13097861Y20306664D01*
X-11706458Y20306664D01*
X-11680839Y19696540D01*
X-11496643Y19251852D01*
X-11240159Y19165446D01*
X-10339605Y20066000D01*
X-9980395Y20066000D01*
X-9079841Y19165446D01*
X-8823357Y19251852D01*
X-8613542Y19825336D01*
X-8639161Y20435460D01*
X-8823357Y20880148D01*
X-9079841Y20966554D01*
X-9980395Y20066000D01*
X-10339605Y20066000D01*
X-11240159Y20966554D01*
X-11496643Y20880148D01*
X-11706458Y20306664D01*
X-13097861Y20306664D01*
X-13036524Y20422890D01*
X-13206355Y20832924D01*
X-13483708Y21137261D01*
X-13380235Y21157843D01*
X-13170191Y21298191D01*
X-13029843Y21508235D01*
X-12980560Y21756000D01*
X-12980560Y21821000D01*
X-11496314Y21821000D01*
X-11461310Y21736493D01*
X-11029507Y21304690D01*
X-11009885Y21296562D01*
X-11060554Y21146159D01*
X-10160000Y20245605D01*
X-9259446Y21146159D01*
X-9310115Y21296562D01*
X-9290493Y21304690D01*
X-8858690Y21736493D01*
X-8625000Y22300670D01*
X-8625000Y22911330D01*
X11165000Y22911330D01*
X11165000Y22300670D01*
X11398690Y21736493D01*
X11799183Y21336000D01*
X11398690Y20935507D01*
X11165000Y20371330D01*
X11165000Y19760670D01*
X11398690Y19196493D01*
X11799183Y18796000D01*
X11398690Y18395507D01*
X11165000Y17831330D01*
X11165000Y17220670D01*
X11398690Y16656493D01*
X11799183Y16256000D01*
X11398690Y15855507D01*
X11165000Y15291330D01*
X11165000Y14680670D01*
X11398690Y14116493D01*
X11799183Y13716000D01*
X11398690Y13315507D01*
X11165000Y12751330D01*
X11165000Y12140670D01*
X11398690Y11576493D01*
X11799183Y11176000D01*
X11398690Y10775507D01*
X11165000Y10211330D01*
X11165000Y9600670D01*
X11398690Y9036493D01*
X11799183Y8636000D01*
X11398690Y8235507D01*
X11165000Y7671330D01*
X11165000Y7060670D01*
X11398690Y6496493D01*
X11799183Y6096000D01*
X11398690Y5695507D01*
X11165000Y5131330D01*
X11165000Y4520670D01*
X11398690Y3956493D01*
X11830493Y3524690D01*
X12394670Y3291000D01*
X13005330Y3291000D01*
X13569507Y3524690D01*
X14001310Y3956493D01*
X14036314Y4041000D01*
X15756526Y4041000D01*
X15947375Y3755375D01*
X16438582Y3427161D01*
X16871744Y3341000D01*
X17164256Y3341000D01*
X17597418Y3427161D01*
X18088625Y3755375D01*
X18416839Y4246582D01*
X18532092Y4826000D01*
X18416839Y5405418D01*
X18088625Y5896625D01*
X17790239Y6096000D01*
X18088625Y6295375D01*
X18416839Y6786582D01*
X18532092Y7366000D01*
X18416839Y7945418D01*
X18088625Y8436625D01*
X17790239Y8636000D01*
X18088625Y8835375D01*
X18416839Y9326582D01*
X18532092Y9906000D01*
X18416839Y10485418D01*
X18088625Y10976625D01*
X17790239Y11176000D01*
X18088625Y11375375D01*
X18416839Y11866582D01*
X18532092Y12446000D01*
X18451512Y12851108D01*
X22942514Y12851108D01*
X23188817Y12326642D01*
X23617076Y11936355D01*
X24027110Y11766524D01*
X24257000Y11887845D01*
X24257000Y13081000D01*
X23063181Y13081000D01*
X22942514Y12851108D01*
X18451512Y12851108D01*
X18416839Y13025418D01*
X18088625Y13516625D01*
X18016389Y13564892D01*
X22942514Y13564892D01*
X23063181Y13335000D01*
X24257000Y13335000D01*
X24257000Y14528155D01*
X24511000Y14528155D01*
X24511000Y13335000D01*
X24531000Y13335000D01*
X24531000Y13081000D01*
X24511000Y13081000D01*
X24511000Y11887845D01*
X24740890Y11766524D01*
X25150924Y11936355D01*
X25579183Y12326642D01*
X25640157Y12456478D01*
X25853375Y12137375D01*
X26344582Y11809161D01*
X26777744Y11723000D01*
X27070256Y11723000D01*
X27503418Y11809161D01*
X27994625Y12137375D01*
X28006816Y12155619D01*
X28015843Y12110235D01*
X28156191Y11900191D01*
X28366235Y11759843D01*
X28614000Y11710560D01*
X30314000Y11710560D01*
X30561765Y11759843D01*
X30771809Y11900191D01*
X30912157Y12110235D01*
X30961440Y12358000D01*
X30961440Y14058000D01*
X30912157Y14305765D01*
X30771809Y14515809D01*
X30561765Y14656157D01*
X30314000Y14705440D01*
X28614000Y14705440D01*
X28366235Y14656157D01*
X28156191Y14515809D01*
X28015843Y14305765D01*
X28006816Y14260381D01*
X27994625Y14278625D01*
X27503418Y14606839D01*
X27070256Y14693000D01*
X26777744Y14693000D01*
X26344582Y14606839D01*
X25853375Y14278625D01*
X25640157Y13959522D01*
X25579183Y14089358D01*
X25150924Y14479645D01*
X24740890Y14649476D01*
X24511000Y14528155D01*
X24257000Y14528155D01*
X24027110Y14649476D01*
X23617076Y14479645D01*
X23188817Y14089358D01*
X22942514Y13564892D01*
X18016389Y13564892D01*
X17790239Y13716000D01*
X18088625Y13915375D01*
X18416839Y14406582D01*
X18532092Y14986000D01*
X18416839Y15565418D01*
X18088625Y16056625D01*
X17790239Y16256000D01*
X18088625Y16455375D01*
X18416839Y16946582D01*
X18532092Y17526000D01*
X18416839Y18105418D01*
X18088625Y18596625D01*
X17790239Y18796000D01*
X18088625Y18995375D01*
X18416839Y19486582D01*
X18532092Y20066000D01*
X18416839Y20645418D01*
X18398197Y20673318D01*
X19615000Y20673318D01*
X19615000Y19326682D01*
X20130336Y18082552D01*
X21082552Y17130336D01*
X22326682Y16615000D01*
X23673318Y16615000D01*
X24917448Y17130336D01*
X25869664Y18082552D01*
X26385000Y19326682D01*
X26385000Y20673318D01*
X25869664Y21917448D01*
X24917448Y22869664D01*
X23673318Y23385000D01*
X22326682Y23385000D01*
X21082552Y22869664D01*
X20130336Y21917448D01*
X19615000Y20673318D01*
X18398197Y20673318D01*
X18088625Y21136625D01*
X18070381Y21148816D01*
X18115765Y21157843D01*
X18325809Y21298191D01*
X18466157Y21508235D01*
X18515440Y21756000D01*
X18515440Y23456000D01*
X18466157Y23703765D01*
X18325809Y23913809D01*
X18115765Y24054157D01*
X17868000Y24103440D01*
X16168000Y24103440D01*
X15920235Y24054157D01*
X15710191Y23913809D01*
X15569843Y23703765D01*
X15520560Y23456000D01*
X15520560Y23391000D01*
X14036314Y23391000D01*
X14001310Y23475507D01*
X13569507Y23907310D01*
X13005330Y24141000D01*
X12394670Y24141000D01*
X11830493Y23907310D01*
X11398690Y23475507D01*
X11165000Y22911330D01*
X-8625000Y22911330D01*
X-8858690Y23475507D01*
X-9290493Y23907310D01*
X-9854670Y24141000D01*
X-10465330Y24141000D01*
X-11029507Y23907310D01*
X-11461310Y23475507D01*
X-11496314Y23391000D01*
X-12980560Y23391000D01*
X-12980560Y23456000D01*
X-13029843Y23703765D01*
X-13170191Y23913809D01*
X-13380235Y24054157D01*
X-13628000Y24103440D01*
X-15328000Y24103440D01*
X-15575765Y24054157D01*
X-15785809Y23913809D01*
X-15926157Y23703765D01*
X-15975440Y23456000D01*
X-16790560Y23456000D01*
X-16790560Y24726000D01*
X-16839843Y24973765D01*
X-16980191Y25183809D01*
X-17190235Y25324157D01*
X-17438000Y25373440D01*
X-19138000Y25373440D01*
X-19385765Y25324157D01*
X-19595809Y25183809D01*
X-19736157Y24973765D01*
X-19756739Y24870292D01*
X-20061076Y25147645D01*
X-20471110Y25317476D01*
X-20701000Y25196155D01*
X-20955000Y25196155D01*
X-21184890Y25317476D01*
X-21594924Y25147645D01*
X-22023183Y24757358D01*
X-22269486Y24232892D01*
X-24198509Y24232892D01*
X-23368674Y25059835D01*
X-21656484Y26553473D01*
X-19849069Y27930354D01*
X-17954377Y29184423D01*
X-15980738Y30310167D01*
X-13936831Y31302635D01*
X-11831643Y32157463D01*
X-9674430Y32870893D01*
X-7474678Y33439788D01*
X-5242060Y33861645D01*
X-2986392Y34134611D01*
X-717592Y34257485D01*
X1554363Y34229727D01*
X1554363Y34229727D01*
G37*
X1554363Y34229727D02*
X3819483Y34051458D01*
X6067809Y33723463D01*
X8289454Y33247183D01*
X10474650Y32624714D01*
X12613788Y31858791D01*
X14697462Y30952784D01*
X16716511Y29910675D01*
X18662057Y28737047D01*
X20525544Y27437060D01*
X22298779Y26016431D01*
X23973964Y24481406D01*
X25543735Y22838735D01*
X27001188Y21095640D01*
X28339916Y19259787D01*
X29554031Y17339247D01*
X30638195Y15342465D01*
X31587641Y13278222D01*
X32398194Y11155593D01*
X33066290Y8983912D01*
X33588992Y6772729D01*
X33964000Y4531765D01*
X34189667Y2270875D01*
X34265000Y0D01*
X34224092Y-1673837D01*
X34037918Y-3938321D01*
X33702076Y-6185489D01*
X33218045Y-8405458D01*
X32587952Y-10588467D01*
X31814567Y-12724919D01*
X30901292Y-14805418D01*
X29852141Y-16820817D01*
X28671729Y-18762254D01*
X27365246Y-20621192D01*
X25938436Y-22389457D01*
X24397572Y-24059274D01*
X22749432Y-25623302D01*
X21001260Y-27074661D01*
X19160745Y-28406972D01*
X17235978Y-29614376D01*
X15235424Y-30691563D01*
X13167879Y-31633798D01*
X11042434Y-32436937D01*
X8868435Y-33097448D01*
X6655440Y-33612428D01*
X4413181Y-33979612D01*
X2151517Y-34197386D01*
X-119607Y-34264791D01*
X-2390206Y-34181532D01*
X-4650294Y-33947975D01*
X-6889935Y-33565146D01*
X-9099280Y-33034729D01*
X-11268616Y-32359056D01*
X-13388402Y-31541099D01*
X-15449319Y-30584453D01*
X-16264782Y-30138000D01*
X-6577440Y-30138000D01*
X-6577440Y-31838000D01*
X-6528157Y-32085765D01*
X-6387809Y-32295809D01*
X-6177765Y-32436157D01*
X-5930000Y-32485440D01*
X-4230000Y-32485440D01*
X-3982235Y-32436157D01*
X-3772191Y-32295809D01*
X-3631843Y-32085765D01*
X-3622816Y-32040381D01*
X-3610625Y-32058625D01*
X-3119418Y-32386839D01*
X-2686256Y-32473000D01*
X-2393744Y-32473000D01*
X-1960582Y-32386839D01*
X-1469375Y-32058625D01*
X-1270000Y-31760239D01*
X-1070625Y-32058625D01*
X-579418Y-32386839D01*
X-146256Y-32473000D01*
X146256Y-32473000D01*
X579418Y-32386839D01*
X1070625Y-32058625D01*
X1270000Y-31760239D01*
X1469375Y-32058625D01*
X1960582Y-32386839D01*
X2393744Y-32473000D01*
X2686256Y-32473000D01*
X3119418Y-32386839D01*
X3610625Y-32058625D01*
X3823843Y-31739522D01*
X3884817Y-31869358D01*
X4313076Y-32259645D01*
X4723110Y-32429476D01*
X4953000Y-32308155D01*
X4953000Y-31115000D01*
X5207000Y-31115000D01*
X5207000Y-32308155D01*
X5436890Y-32429476D01*
X5846924Y-32259645D01*
X6275183Y-31869358D01*
X6521486Y-31344892D01*
X6400819Y-31115000D01*
X5207000Y-31115000D01*
X4953000Y-31115000D01*
X4933000Y-31115000D01*
X4933000Y-30861000D01*
X4953000Y-30861000D01*
X4953000Y-29667845D01*
X5207000Y-29667845D01*
X5207000Y-30861000D01*
X6400819Y-30861000D01*
X6521486Y-30631108D01*
X6275183Y-30106642D01*
X5846924Y-29716355D01*
X5436890Y-29546524D01*
X5207000Y-29667845D01*
X4953000Y-29667845D01*
X4723110Y-29546524D01*
X4313076Y-29716355D01*
X3884817Y-30106642D01*
X3823843Y-30236478D01*
X3610625Y-29917375D01*
X3119418Y-29589161D01*
X2686256Y-29503000D01*
X2393744Y-29503000D01*
X1960582Y-29589161D01*
X1469375Y-29917375D01*
X1270000Y-30215761D01*
X1070625Y-29917375D01*
X579418Y-29589161D01*
X146256Y-29503000D01*
X-146256Y-29503000D01*
X-579418Y-29589161D01*
X-1070625Y-29917375D01*
X-1270000Y-30215761D01*
X-1469375Y-29917375D01*
X-1960582Y-29589161D01*
X-2393744Y-29503000D01*
X-2686256Y-29503000D01*
X-3119418Y-29589161D01*
X-3610625Y-29917375D01*
X-3622816Y-29935619D01*
X-3631843Y-29890235D01*
X-3772191Y-29680191D01*
X-3982235Y-29539843D01*
X-4230000Y-29490560D01*
X-5930000Y-29490560D01*
X-6177765Y-29539843D01*
X-6387809Y-29680191D01*
X-6528157Y-29890235D01*
X-6577440Y-30138000D01*
X-16264782Y-30138000D01*
X-17442304Y-29493326D01*
X-19358594Y-28272514D01*
X-21189764Y-26927386D01*
X-21898287Y-26330754D01*
X-15384000Y-26330754D01*
X-15384000Y-27009245D01*
X-15316695Y-27347608D01*
X-15060313Y-27731313D01*
X-14676609Y-27987695D01*
X-14224000Y-28077725D01*
X-13771392Y-27987695D01*
X-13589000Y-27865825D01*
X-13406609Y-27987695D01*
X-12954000Y-28077725D01*
X-12501392Y-27987695D01*
X-12500016Y-27986776D01*
X-12335309Y-28055000D01*
X-11969750Y-28055000D01*
X-11811000Y-27896250D01*
X-11811000Y-27094710D01*
X-11794000Y-27009246D01*
X-11794000Y-26797000D01*
X-11557000Y-26797000D01*
X-11557000Y-27896250D01*
X-11398250Y-28055000D01*
X-11032691Y-28055000D01*
X-10799302Y-27958327D01*
X-10620673Y-27779699D01*
X-10524000Y-27546310D01*
X-10524000Y-26955750D01*
X-10682750Y-26797000D01*
X-11557000Y-26797000D01*
X-11794000Y-26797000D01*
X-11794000Y-26330755D01*
X-11811000Y-26245291D01*
X-11811000Y-25443750D01*
X-11557000Y-25443750D01*
X-11557000Y-26543000D01*
X-10682750Y-26543000D01*
X-10524000Y-26384250D01*
X-10524000Y-25793690D01*
X-10620673Y-25560301D01*
X-10799302Y-25381673D01*
X-11032691Y-25285000D01*
X-11398250Y-25285000D01*
X-11557000Y-25443750D01*
X-11811000Y-25443750D01*
X-11969750Y-25285000D01*
X-12335309Y-25285000D01*
X-12500016Y-25353224D01*
X-12501391Y-25352305D01*
X-12954000Y-25262275D01*
X-13406608Y-25352305D01*
X-13588999Y-25474175D01*
X-13771391Y-25352305D01*
X-14224000Y-25262275D01*
X-14676608Y-25352305D01*
X-15060312Y-25608687D01*
X-15316695Y-25992391D01*
X-15384000Y-26330754D01*
X-21898287Y-26330754D01*
X-22927760Y-25463857D01*
X-24564942Y-23888362D01*
X-26094110Y-22207828D01*
X-27508541Y-20429645D01*
X-28272269Y-19326682D01*
X-26385000Y-19326682D01*
X-26385000Y-20673318D01*
X-25869664Y-21917448D01*
X-24917448Y-22869664D01*
X-23673318Y-23385000D01*
X-22326682Y-23385000D01*
X-21082552Y-22869664D01*
X-20130336Y-21917448D01*
X-19994703Y-21590000D01*
X-15687113Y-21590000D01*
X-15575740Y-22149909D01*
X-15258577Y-22624577D01*
X-14783909Y-22941740D01*
X-14365333Y-23025000D01*
X-14082667Y-23025000D01*
X-13664091Y-22941740D01*
X-13189423Y-22624577D01*
X-12872260Y-22149909D01*
X-12760887Y-21590000D01*
X-12817664Y-21304561D01*
X-12357000Y-21304561D01*
X-12357000Y-21875439D01*
X-12138534Y-22402862D01*
X-11734862Y-22806534D01*
X-11207439Y-23025000D01*
X-10636561Y-23025000D01*
X-10109138Y-22806534D01*
X-9705466Y-22402862D01*
X-9487000Y-21875439D01*
X-9487000Y-21304561D01*
X-9705466Y-20777138D01*
X-10109138Y-20373466D01*
X-10238216Y-20320000D01*
X9407908Y-20320000D01*
X9523161Y-20899418D01*
X9851375Y-21390625D01*
X10342582Y-21718839D01*
X10775744Y-21805000D01*
X11068256Y-21805000D01*
X11501418Y-21718839D01*
X11992625Y-21390625D01*
X12192000Y-21092239D01*
X12391375Y-21390625D01*
X12882582Y-21718839D01*
X13315744Y-21805000D01*
X13608256Y-21805000D01*
X14041418Y-21718839D01*
X14532625Y-21390625D01*
X14732000Y-21092239D01*
X14931375Y-21390625D01*
X15422582Y-21718839D01*
X15855744Y-21805000D01*
X16148256Y-21805000D01*
X16581418Y-21718839D01*
X17072625Y-21390625D01*
X17272000Y-21092239D01*
X17471375Y-21390625D01*
X17962582Y-21718839D01*
X18395744Y-21805000D01*
X18688256Y-21805000D01*
X19121418Y-21718839D01*
X19612625Y-21390625D01*
X19812000Y-21092239D01*
X20011375Y-21390625D01*
X20502582Y-21718839D01*
X20935744Y-21805000D01*
X21228256Y-21805000D01*
X21661418Y-21718839D01*
X22152625Y-21390625D01*
X22352000Y-21092239D01*
X22551375Y-21390625D01*
X23042582Y-21718839D01*
X23475744Y-21805000D01*
X23768256Y-21805000D01*
X24201418Y-21718839D01*
X24692625Y-21390625D01*
X25020839Y-20899418D01*
X25136092Y-20320000D01*
X25020839Y-19740582D01*
X24692625Y-19249375D01*
X24661000Y-19228244D01*
X24661000Y-15706075D01*
X24688862Y-15694534D01*
X25092534Y-15290862D01*
X25311000Y-14763439D01*
X25311000Y-14192561D01*
X25092534Y-13665138D01*
X24688862Y-13261466D01*
X24623701Y-13234475D01*
X24630005Y-13231864D01*
X24704139Y-12985745D01*
X23876000Y-12157605D01*
X23047861Y-12985745D01*
X23121995Y-13231864D01*
X23128746Y-13234290D01*
X23063138Y-13261466D01*
X22659466Y-13665138D01*
X22441000Y-14192561D01*
X22441000Y-14763439D01*
X22659466Y-15290862D01*
X23063138Y-15694534D01*
X23091000Y-15706075D01*
X23091001Y-18911530D01*
X23042582Y-18921161D01*
X22551375Y-19249375D01*
X22352000Y-19547761D01*
X22152625Y-19249375D01*
X21867000Y-19058526D01*
X21867000Y-18619312D01*
X21882378Y-18542000D01*
X21867000Y-18464688D01*
X21867000Y-18464684D01*
X21821454Y-18235708D01*
X21647953Y-17976047D01*
X21582408Y-17932251D01*
X20339000Y-16688843D01*
X20339000Y-16558126D01*
X20181431Y-16177720D01*
X19890280Y-15886569D01*
X19509874Y-15729000D01*
X19098126Y-15729000D01*
X18717720Y-15886569D01*
X18426569Y-16177720D01*
X18269000Y-16558126D01*
X18269000Y-16969874D01*
X18289486Y-17019333D01*
X17291000Y-16020847D01*
X17291000Y-15796126D01*
X17133431Y-15415720D01*
X16842280Y-15124569D01*
X16461874Y-14967000D01*
X16050126Y-14967000D01*
X16025000Y-14977408D01*
X16025000Y-13031312D01*
X16040378Y-12954000D01*
X16025000Y-12876688D01*
X16025000Y-12876684D01*
X15979454Y-12647708D01*
X15805953Y-12388047D01*
X15740408Y-12344251D01*
X15259003Y-11862846D01*
X15259003Y-11732129D01*
X15101434Y-11351723D01*
X14810283Y-11060572D01*
X14429877Y-10903003D01*
X14018129Y-10903003D01*
X13645222Y-11057466D01*
X13372577Y-10649423D01*
X13020242Y-10414000D01*
X13372577Y-10178577D01*
X13689740Y-9703909D01*
X13801113Y-9144000D01*
X13689740Y-8584091D01*
X13372577Y-8109423D01*
X13251894Y-8028785D01*
X13385765Y-8002157D01*
X13595809Y-7861809D01*
X13736157Y-7651765D01*
X13785440Y-7404000D01*
X13785440Y-6652126D01*
X14204996Y-6652126D01*
X14204996Y-7063874D01*
X14362565Y-7444280D01*
X14653716Y-7735431D01*
X15034122Y-7893000D01*
X15445870Y-7893000D01*
X15826276Y-7735431D01*
X16117427Y-7444280D01*
X16140325Y-7389000D01*
X17956661Y-7389000D01*
X18123423Y-7638577D01*
X18475758Y-7874000D01*
X18123423Y-8109423D01*
X17806260Y-8584091D01*
X17694887Y-9144000D01*
X17806260Y-9703909D01*
X18123423Y-10178577D01*
X18475758Y-10414000D01*
X18123423Y-10649423D01*
X17806260Y-11124091D01*
X17694887Y-11684000D01*
X17806260Y-12243909D01*
X18123423Y-12718577D01*
X18475758Y-12954000D01*
X18123423Y-13189423D01*
X17806260Y-13664091D01*
X17694887Y-14224000D01*
X17806260Y-14783909D01*
X18123423Y-15258577D01*
X18598091Y-15575740D01*
X19016667Y-15659000D01*
X20099333Y-15659000D01*
X20517909Y-15575740D01*
X20992577Y-15258577D01*
X21309740Y-14783909D01*
X21421113Y-14224000D01*
X21309740Y-13664091D01*
X20992577Y-13189423D01*
X20640242Y-12954000D01*
X20992577Y-12718577D01*
X21309740Y-12243909D01*
X21405752Y-11761223D01*
X22429035Y-11761223D01*
X22456222Y-12331454D01*
X22622136Y-12732005D01*
X22868255Y-12806139D01*
X23696395Y-11978000D01*
X24055605Y-11978000D01*
X24883745Y-12806139D01*
X25129864Y-12732005D01*
X25322965Y-12194777D01*
X25295778Y-11624546D01*
X25129864Y-11223995D01*
X24883745Y-11149861D01*
X24055605Y-11978000D01*
X23696395Y-11978000D01*
X22868255Y-11149861D01*
X22622136Y-11223995D01*
X22429035Y-11761223D01*
X21405752Y-11761223D01*
X21421113Y-11684000D01*
X21309740Y-11124091D01*
X21206951Y-10970255D01*
X23047861Y-10970255D01*
X23876000Y-11798395D01*
X24704139Y-10970255D01*
X24630005Y-10724136D01*
X24092777Y-10531035D01*
X23522546Y-10558222D01*
X23121995Y-10724136D01*
X23047861Y-10970255D01*
X21206951Y-10970255D01*
X20992577Y-10649423D01*
X20640242Y-10414000D01*
X20992577Y-10178577D01*
X21309740Y-9703909D01*
X21421113Y-9144000D01*
X21309740Y-8584091D01*
X20992577Y-8109423D01*
X20640242Y-7874000D01*
X20992577Y-7638577D01*
X21309740Y-7163909D01*
X21421113Y-6604000D01*
X21309740Y-6044091D01*
X20992577Y-5569423D01*
X20517909Y-5252260D01*
X20099333Y-5169000D01*
X19016667Y-5169000D01*
X18598091Y-5252260D01*
X18123423Y-5569423D01*
X17956661Y-5819000D01*
X15571306Y-5819000D01*
X15493995Y-5803622D01*
X15416685Y-5819000D01*
X15416680Y-5819000D01*
X15396571Y-5823000D01*
X15034122Y-5823000D01*
X14653716Y-5980569D01*
X14362565Y-6271720D01*
X14204996Y-6652126D01*
X13785440Y-6652126D01*
X13785440Y-5804000D01*
X13736157Y-5556235D01*
X13595809Y-5346191D01*
X13385765Y-5205843D01*
X13138000Y-5156560D01*
X10738000Y-5156560D01*
X10490235Y-5205843D01*
X10280191Y-5346191D01*
X10139843Y-5556235D01*
X10090560Y-5804000D01*
X10090560Y-7404000D01*
X10139843Y-7651765D01*
X10280191Y-7861809D01*
X10490235Y-8002157D01*
X10624106Y-8028785D01*
X10503423Y-8109423D01*
X10186260Y-8584091D01*
X10074887Y-9144000D01*
X10186260Y-9703909D01*
X10503423Y-10178577D01*
X10855758Y-10414000D01*
X10503423Y-10649423D01*
X10186260Y-11124091D01*
X10074887Y-11684000D01*
X10186260Y-12243909D01*
X10503423Y-12718577D01*
X10859499Y-12956499D01*
X10433500Y-13299104D01*
X10163633Y-13792181D01*
X10146096Y-13874961D01*
X10268085Y-14097000D01*
X11811000Y-14097000D01*
X11811000Y-14077000D01*
X12065000Y-14077000D01*
X12065000Y-14097000D01*
X12085000Y-14097000D01*
X12085000Y-14351000D01*
X12065000Y-14351000D01*
X12065000Y-15659000D01*
X12465000Y-15659000D01*
X13004483Y-15501166D01*
X13439001Y-15151710D01*
X13439000Y-15930843D01*
X12961590Y-16408253D01*
X12896048Y-16452047D01*
X12852254Y-16517589D01*
X12852251Y-16517592D01*
X12722546Y-16711709D01*
X12661622Y-17018000D01*
X12677001Y-17095317D01*
X12677000Y-19058526D01*
X12391375Y-19249375D01*
X12192000Y-19547761D01*
X11992625Y-19249375D01*
X11501418Y-18921161D01*
X11068256Y-18835000D01*
X10775744Y-18835000D01*
X10342582Y-18921161D01*
X9851375Y-19249375D01*
X9523161Y-19740582D01*
X9407908Y-20320000D01*
X-10238216Y-20320000D01*
X-10636561Y-20155000D01*
X-11207439Y-20155000D01*
X-11734862Y-20373466D01*
X-12138534Y-20777138D01*
X-12357000Y-21304561D01*
X-12817664Y-21304561D01*
X-12872260Y-21030091D01*
X-13189423Y-20555423D01*
X-13664091Y-20238260D01*
X-14082667Y-20155000D01*
X-14365333Y-20155000D01*
X-14783909Y-20238260D01*
X-15258577Y-20555423D01*
X-15575740Y-21030091D01*
X-15687113Y-21590000D01*
X-19994703Y-21590000D01*
X-19615000Y-20673318D01*
X-19615000Y-19326682D01*
X-20130336Y-18082552D01*
X-21082552Y-17130336D01*
X-22326682Y-16615000D01*
X-23673318Y-16615000D01*
X-24917448Y-17130336D01*
X-25869664Y-18082552D01*
X-26385000Y-19326682D01*
X-28272269Y-19326682D01*
X-28802015Y-18561632D01*
X-29968844Y-16612002D01*
X-31003899Y-14589327D01*
X-31902628Y-12502503D01*
X-32102528Y-11938000D01*
X-26553725Y-11938000D01*
X-26463695Y-12390609D01*
X-26341826Y-12573000D01*
X-26463695Y-12755391D01*
X-26553725Y-13208000D01*
X-26463843Y-13659867D01*
X-26494157Y-13705235D01*
X-26543440Y-13953000D01*
X-26543440Y-15003000D01*
X-26494157Y-15250765D01*
X-26353809Y-15460809D01*
X-26143765Y-15601157D01*
X-25896000Y-15650440D01*
X-24396000Y-15650440D01*
X-24148235Y-15601157D01*
X-23938191Y-15460809D01*
X-23797843Y-15250765D01*
X-23748560Y-15003000D01*
X-23748560Y-13953000D01*
X-23797843Y-13705235D01*
X-23828157Y-13659867D01*
X-23738275Y-13208000D01*
X-23828305Y-12755391D01*
X-23950174Y-12573000D01*
X-23828305Y-12390609D01*
X-23738275Y-11938000D01*
X-23828305Y-11485391D01*
X-24056039Y-11144561D01*
X-22009000Y-11144561D01*
X-22009000Y-11715439D01*
X-21790534Y-12242862D01*
X-21386862Y-12646534D01*
X-21354796Y-12659816D01*
X-21313454Y-12867661D01*
X-21183749Y-13061778D01*
X-21183746Y-13061781D01*
X-21139952Y-13127323D01*
X-21074410Y-13171117D01*
X-19835000Y-14410528D01*
X-19834999Y-16593288D01*
X-19927431Y-16685720D01*
X-20085000Y-17066126D01*
X-20085000Y-17477874D01*
X-19927431Y-17858280D01*
X-19636280Y-18149431D01*
X-19255874Y-18307000D01*
X-18844126Y-18307000D01*
X-18463720Y-18149431D01*
X-18172569Y-17858280D01*
X-18161000Y-17830350D01*
X-18149431Y-17858280D01*
X-17858280Y-18149431D01*
X-17477874Y-18307000D01*
X-17066126Y-18307000D01*
X-16685720Y-18149431D01*
X-16394569Y-17858280D01*
X-16237000Y-17477874D01*
X-16237000Y-17066126D01*
X-16394569Y-16685720D01*
X-16487000Y-16593289D01*
X-16487000Y-12658075D01*
X-16459138Y-12646534D01*
X-16055466Y-12242862D01*
X-15837000Y-11715439D01*
X-15837000Y-11144561D01*
X-15659000Y-11144561D01*
X-15659000Y-11715439D01*
X-15440534Y-12242862D01*
X-15036862Y-12646534D01*
X-14509439Y-12865000D01*
X-13938561Y-12865000D01*
X-13411138Y-12646534D01*
X-13007466Y-12242862D01*
X-12789000Y-11715439D01*
X-12789000Y-11430000D01*
X-12385113Y-11430000D01*
X-12273740Y-11989909D01*
X-11956577Y-12464577D01*
X-11481909Y-12781740D01*
X-11063333Y-12865000D01*
X-10780667Y-12865000D01*
X-10362091Y-12781740D01*
X-9887423Y-12464577D01*
X-9570260Y-11989909D01*
X-9458887Y-11430000D01*
X-9570260Y-10870091D01*
X-9887423Y-10395423D01*
X-10167741Y-10208120D01*
X-2559000Y-10208120D01*
X-2559000Y-10619868D01*
X-2401431Y-11000274D01*
X-2309000Y-11092705D01*
X-2308999Y-12275288D01*
X-2401431Y-12367720D01*
X-2559000Y-12748126D01*
X-2559000Y-13159874D01*
X-2401431Y-13540280D01*
X-2110280Y-13831431D01*
X-1729874Y-13989000D01*
X-1318126Y-13989000D01*
X-937720Y-13831431D01*
X-762000Y-13655711D01*
X-586280Y-13831431D01*
X-205874Y-13989000D01*
X205874Y-13989000D01*
X586280Y-13831431D01*
X877431Y-13540280D01*
X1035000Y-13159874D01*
X1035000Y-12748126D01*
X877431Y-12367720D01*
X785000Y-12275289D01*
X785000Y-10208123D01*
X5822999Y-10208123D01*
X5822999Y-10619871D01*
X5980568Y-11000277D01*
X6072999Y-11092708D01*
X6073001Y-16593288D01*
X5980569Y-16685720D01*
X5823000Y-17066126D01*
X5823000Y-17477874D01*
X5980569Y-17858280D01*
X6271720Y-18149431D01*
X6652126Y-18307000D01*
X7063874Y-18307000D01*
X7444280Y-18149431D01*
X7735431Y-17858280D01*
X7893000Y-17477874D01*
X7893000Y-17066126D01*
X7735431Y-16685720D01*
X7643000Y-16593289D01*
X7643000Y-14573039D01*
X10146096Y-14573039D01*
X10163633Y-14655819D01*
X10433500Y-15148896D01*
X10871517Y-15501166D01*
X11411000Y-15659000D01*
X11811000Y-15659000D01*
X11811000Y-14351000D01*
X10268085Y-14351000D01*
X10146096Y-14573039D01*
X7643000Y-14573039D01*
X7642998Y-11092709D01*
X7735430Y-11000277D01*
X7892999Y-10619871D01*
X7892999Y-10208123D01*
X7735430Y-9827717D01*
X7444279Y-9536566D01*
X7063873Y-9378997D01*
X6652125Y-9378997D01*
X6271719Y-9536566D01*
X5980568Y-9827717D01*
X5822999Y-10208123D01*
X785000Y-10208123D01*
X785000Y-9822693D01*
X877431Y-9730262D01*
X1035000Y-9349856D01*
X1035000Y-8938108D01*
X877431Y-8557702D01*
X586280Y-8266551D01*
X205874Y-8108982D01*
X-205874Y-8108982D01*
X-586280Y-8266551D01*
X-877431Y-8557702D01*
X-1035000Y-8938108D01*
X-1035000Y-9349856D01*
X-961794Y-9526591D01*
X-1318126Y-9378994D01*
X-1729874Y-9378994D01*
X-2110280Y-9536563D01*
X-2401431Y-9827714D01*
X-2559000Y-10208120D01*
X-10167741Y-10208120D01*
X-10362091Y-10078260D01*
X-10780667Y-9995000D01*
X-11063333Y-9995000D01*
X-11481909Y-10078260D01*
X-11956577Y-10395423D01*
X-12273740Y-10870091D01*
X-12385113Y-11430000D01*
X-12789000Y-11430000D01*
X-12789000Y-11144561D01*
X-13007466Y-10617138D01*
X-13411138Y-10213466D01*
X-13938561Y-9995000D01*
X-14509439Y-9995000D01*
X-15036862Y-10213466D01*
X-15440534Y-10617138D01*
X-15659000Y-11144561D01*
X-15837000Y-11144561D01*
X-16055466Y-10617138D01*
X-16459138Y-10213466D01*
X-16986561Y-9995000D01*
X-17557439Y-9995000D01*
X-18084862Y-10213466D01*
X-18488534Y-10617138D01*
X-18707000Y-11144561D01*
X-18707000Y-11715439D01*
X-18488534Y-12242862D01*
X-18084862Y-12646534D01*
X-18056999Y-12658075D01*
X-18057000Y-16593289D01*
X-18149431Y-16685720D01*
X-18161000Y-16713650D01*
X-18172569Y-16685720D01*
X-18265000Y-16593289D01*
X-18265000Y-14162680D01*
X-18249622Y-14085369D01*
X-18265000Y-14008058D01*
X-18265000Y-14008054D01*
X-18310546Y-13779078D01*
X-18376173Y-13680861D01*
X-18440251Y-13584961D01*
X-18440253Y-13584959D01*
X-18484047Y-13519417D01*
X-18549589Y-13475623D01*
X-19569908Y-12455304D01*
X-19357466Y-12242862D01*
X-19139000Y-11715439D01*
X-19139000Y-11144561D01*
X-19357466Y-10617138D01*
X-19761138Y-10213466D01*
X-20288561Y-9995000D01*
X-20859439Y-9995000D01*
X-21386862Y-10213466D01*
X-21790534Y-10617138D01*
X-22009000Y-11144561D01*
X-24056039Y-11144561D01*
X-24084687Y-11101687D01*
X-24468391Y-10845305D01*
X-24806754Y-10778000D01*
X-25485246Y-10778000D01*
X-25823609Y-10845305D01*
X-26207313Y-11101687D01*
X-26463695Y-11485391D01*
X-26553725Y-11938000D01*
X-32102528Y-11938000D01*
X-32661078Y-10360704D01*
X-33275916Y-8173349D01*
X-33575020Y-6754000D01*
X-30117724Y-6754000D01*
X-29932620Y-7684580D01*
X-29405489Y-8473489D01*
X-28616580Y-9000620D01*
X-27920897Y-9139000D01*
X-27451103Y-9139000D01*
X-26755420Y-9000620D01*
X-25966511Y-8473489D01*
X-25439380Y-7684580D01*
X-25254276Y-6754000D01*
X-25439380Y-5823420D01*
X-25966511Y-5034511D01*
X-26755420Y-4507380D01*
X-27451103Y-4369000D01*
X-27920897Y-4369000D01*
X-28616580Y-4507380D01*
X-29405489Y-5034511D01*
X-29932620Y-5823420D01*
X-30117724Y-6754000D01*
X-33575020Y-6754000D01*
X-33744438Y-5950055D01*
X-34064583Y-3700598D01*
X-34234944Y-1434869D01*
X-34236382Y-1270000D01*
X-22037113Y-1270000D01*
X-21925740Y-1829909D01*
X-21608577Y-2304577D01*
X-21133909Y-2621740D01*
X-20715333Y-2705000D01*
X-20432667Y-2705000D01*
X-20014091Y-2621740D01*
X-19539423Y-2304577D01*
X-19222260Y-1829909D01*
X-19110887Y-1270000D01*
X-18735113Y-1270000D01*
X-18623740Y-1829909D01*
X-18306577Y-2304577D01*
X-17831909Y-2621740D01*
X-17413333Y-2705000D01*
X-17130667Y-2705000D01*
X-16712091Y-2621740D01*
X-16237423Y-2304577D01*
X-15920260Y-1829909D01*
X-15808887Y-1270000D01*
X-15920260Y-710091D01*
X-16237423Y-235423D01*
X-16712091Y81740D01*
X-17130667Y165000D01*
X-17413333Y165000D01*
X-17831909Y81740D01*
X-18306577Y-235423D01*
X-18623740Y-710091D01*
X-18735113Y-1270000D01*
X-19110887Y-1270000D01*
X-19169446Y-975603D01*
X-16946842Y1247000D01*
X-8044711Y1247000D01*
X-7952280Y1154569D01*
X-7571874Y997000D01*
X-7160126Y997000D01*
X-6779720Y1154569D01*
X-6534612Y1399677D01*
X-6639747Y933156D01*
X-6702998Y-163818D01*
X-6586236Y-1256392D01*
X-6292596Y-2315224D01*
X-5829964Y-3311880D01*
X-5210764Y-4219593D01*
X-4451625Y-5013986D01*
X-3572935Y-5673725D01*
X-2598292Y-6181092D01*
X-1553870Y-6522462D01*
X-467717Y-6688667D01*
X630996Y-6675243D01*
X1712764Y-6482551D01*
X2748534Y-6115765D01*
X3710490Y-5584737D01*
X4572799Y-4903727D01*
X5312302Y-4091023D01*
X5909140Y-3168453D01*
X6347283Y-2160791D01*
X6538764Y-1398475D01*
X6779720Y-1639431D01*
X7160126Y-1797000D01*
X7571874Y-1797000D01*
X7952280Y-1639431D01*
X8044711Y-1547000D01*
X19387289Y-1547000D01*
X19479720Y-1639431D01*
X19860126Y-1797000D01*
X20271874Y-1797000D01*
X20652280Y-1639431D01*
X20943431Y-1348280D01*
X21101000Y-967874D01*
X21101000Y-556126D01*
X20943431Y-175720D01*
X20652280Y115431D01*
X20271874Y273000D01*
X19860126Y273000D01*
X19479720Y115431D01*
X19387289Y23000D01*
X8044711Y23000D01*
X7952280Y115431D01*
X7571874Y273000D01*
X7160126Y273000D01*
X6779720Y115431D01*
X6704029Y39740D01*
X6696995Y327538D01*
X6553574Y1416933D01*
X6234151Y2468275D01*
X5747307Y3453330D01*
X5106114Y4345644D01*
X4672373Y4777874D01*
X6331000Y4777874D01*
X6331000Y4366126D01*
X6488569Y3985720D01*
X6779720Y3694569D01*
X7160126Y3537000D01*
X7571874Y3537000D01*
X7952280Y3694569D01*
X8044711Y3787000D01*
X9060853Y3787000D01*
X11156999Y1690854D01*
X11156999Y1560137D01*
X11314568Y1179731D01*
X11605719Y888580D01*
X11986125Y731011D01*
X12397873Y731011D01*
X12778279Y888580D01*
X13069430Y1179731D01*
X13226999Y1560137D01*
X13226999Y1971885D01*
X13069430Y2352291D01*
X12778279Y2643442D01*
X12397873Y2801011D01*
X12267156Y2801011D01*
X9995759Y5072408D01*
X9951963Y5137953D01*
X9692302Y5311454D01*
X9463326Y5357000D01*
X9463322Y5357000D01*
X9386010Y5372378D01*
X9308698Y5357000D01*
X8044711Y5357000D01*
X7952280Y5449431D01*
X7571874Y5607000D01*
X7160126Y5607000D01*
X6779720Y5449431D01*
X6488569Y5158280D01*
X6331000Y4777874D01*
X4672373Y4777874D01*
X4327794Y5121252D01*
X3433247Y5759326D01*
X2446499Y6242729D01*
X1394048Y6558480D01*
X304159Y6698098D01*
X-793899Y6657834D01*
X-1870635Y6438769D01*
X-2897135Y6046787D01*
X-3845830Y5492414D01*
X-4691243Y4790539D01*
X-5410669Y3960011D01*
X-5984788Y3023134D01*
X-6331000Y2170516D01*
X-6331000Y2237874D01*
X-6488569Y2618280D01*
X-6779720Y2909431D01*
X-7160126Y3067000D01*
X-7571874Y3067000D01*
X-7952280Y2909431D01*
X-8044711Y2817000D01*
X-17194690Y2817000D01*
X-17272001Y2832378D01*
X-17349312Y2817000D01*
X-17349316Y2817000D01*
X-17578292Y2771454D01*
X-17697375Y2691885D01*
X-17772409Y2641749D01*
X-17772411Y2641747D01*
X-17837953Y2597953D01*
X-17881747Y2532411D01*
X-20279604Y134554D01*
X-20432667Y165000D01*
X-20715333Y165000D01*
X-21133909Y81740D01*
X-21608577Y-235423D01*
X-21925740Y-710091D01*
X-22037113Y-1270000D01*
X-34236382Y-1270000D01*
X-34254772Y837169D01*
X-34123979Y3105525D01*
X-33843141Y5360227D01*
X-33413493Y7591359D01*
X-32836923Y9789112D01*
X-32729606Y10109850D01*
X-31813500Y10109850D01*
X-31813500Y9702151D01*
X-31721391Y9239090D01*
X-31370523Y8713977D01*
X-30845411Y8363109D01*
X-30226000Y8239900D01*
X-29606590Y8363109D01*
X-29081477Y8713977D01*
X-28956000Y8901767D01*
X-28830523Y8713977D01*
X-28305411Y8363109D01*
X-27686000Y8239900D01*
X-27066590Y8363109D01*
X-26674509Y8625088D01*
X-26556309Y8448191D01*
X-26346265Y8307843D01*
X-26098500Y8258560D01*
X-24193500Y8258560D01*
X-23945735Y8307843D01*
X-23735691Y8448191D01*
X-23595343Y8658235D01*
X-23546060Y8906000D01*
X-23546060Y10906000D01*
X-23595343Y11153765D01*
X-23735691Y11363809D01*
X-23945735Y11504157D01*
X-24193500Y11553440D01*
X-26098500Y11553440D01*
X-26346265Y11504157D01*
X-26556309Y11363809D01*
X-26674509Y11186912D01*
X-27066589Y11448891D01*
X-27686000Y11572100D01*
X-28305410Y11448891D01*
X-28830523Y11098023D01*
X-28956000Y10910233D01*
X-29081477Y11098023D01*
X-29606589Y11448891D01*
X-30226000Y11572100D01*
X-30845410Y11448891D01*
X-31370523Y11098023D01*
X-31721391Y10572911D01*
X-31813500Y10109850D01*
X-32729606Y10109850D01*
X-32115967Y11943821D01*
X-31253796Y14046013D01*
X-30254199Y16086443D01*
X-29426418Y17526000D01*
X-15992092Y17526000D01*
X-15876839Y16946582D01*
X-15548625Y16455375D01*
X-15250239Y16256000D01*
X-15548625Y16056625D01*
X-15876839Y15565418D01*
X-15992092Y14986000D01*
X-15876839Y14406582D01*
X-15548625Y13915375D01*
X-15250239Y13716000D01*
X-15548625Y13516625D01*
X-15876839Y13025418D01*
X-15992092Y12446000D01*
X-15876839Y11866582D01*
X-15548625Y11375375D01*
X-15250239Y11176000D01*
X-15548625Y10976625D01*
X-15876839Y10485418D01*
X-15992092Y9906000D01*
X-15876839Y9326582D01*
X-15548625Y8835375D01*
X-15250239Y8636000D01*
X-15548625Y8436625D01*
X-15876839Y7945418D01*
X-15992092Y7366000D01*
X-15876839Y6786582D01*
X-15548625Y6295375D01*
X-15250239Y6096000D01*
X-15548625Y5896625D01*
X-15876839Y5405418D01*
X-15992092Y4826000D01*
X-15876839Y4246582D01*
X-15548625Y3755375D01*
X-15057418Y3427161D01*
X-14624256Y3341000D01*
X-14331744Y3341000D01*
X-13898582Y3427161D01*
X-13407375Y3755375D01*
X-13216526Y4041000D01*
X-11496314Y4041000D01*
X-11461310Y3956493D01*
X-11029507Y3524690D01*
X-10465330Y3291000D01*
X-9854670Y3291000D01*
X-9290493Y3524690D01*
X-8858690Y3956493D01*
X-8625000Y4520670D01*
X-8625000Y5131330D01*
X-8858690Y5695507D01*
X-9259183Y6096000D01*
X-8858690Y6496493D01*
X-8625000Y7060670D01*
X-8625000Y7671330D01*
X-8858690Y8235507D01*
X-9259183Y8636000D01*
X-8858690Y9036493D01*
X-8823686Y9121000D01*
X-6774711Y9121000D01*
X-6682280Y9028569D01*
X-6301874Y8871000D01*
X-5890126Y8871000D01*
X-5509720Y9028569D01*
X-5218569Y9319720D01*
X-5061000Y9700126D01*
X-5061000Y10111874D01*
X-5218569Y10492280D01*
X-5509720Y10783431D01*
X-5890126Y10941000D01*
X-6301874Y10941000D01*
X-6682280Y10783431D01*
X-6774711Y10691000D01*
X-8823686Y10691000D01*
X-8858690Y10775507D01*
X-9259183Y11176000D01*
X-8858690Y11576493D01*
X-8625000Y12140670D01*
X-8625000Y12751330D01*
X-8858690Y13315507D01*
X-9259183Y13716000D01*
X-8858690Y14116493D01*
X-8625000Y14680670D01*
X-8625000Y15291330D01*
X-8858690Y15855507D01*
X-9259183Y16256000D01*
X-8858690Y16656493D01*
X-8625000Y17220670D01*
X-8625000Y17831330D01*
X-8858690Y18395507D01*
X-9290493Y18827310D01*
X-9310115Y18835438D01*
X-9259446Y18985841D01*
X-10160000Y19886395D01*
X-11060554Y18985841D01*
X-11009885Y18835438D01*
X-11029507Y18827310D01*
X-11461310Y18395507D01*
X-11496314Y18311000D01*
X-13216526Y18311000D01*
X-13407375Y18596625D01*
X-13726478Y18809843D01*
X-13596642Y18870817D01*
X-13206355Y19299076D01*
X-13036524Y19709110D01*
X-13157845Y19939000D01*
X-14351000Y19939000D01*
X-14351000Y19919000D01*
X-14605000Y19919000D01*
X-14605000Y19939000D01*
X-15798155Y19939000D01*
X-15919476Y19709110D01*
X-15749645Y19299076D01*
X-15359358Y18870817D01*
X-15229522Y18809843D01*
X-15548625Y18596625D01*
X-15876839Y18105418D01*
X-15992092Y17526000D01*
X-29426418Y17526000D01*
X-29121573Y18056140D01*
X-27860898Y19946444D01*
X-26477716Y21749041D01*
X-24978110Y23456007D01*
X-24914789Y23519108D01*
X-22269486Y23519108D01*
X-22023183Y22994642D01*
X-21594924Y22604355D01*
X-21184890Y22434524D01*
X-20955000Y22555845D01*
X-20955000Y23749000D01*
X-22148819Y23749000D01*
X-22269486Y23519108D01*
X-24914789Y23519108D01*
X-24198509Y24232892D01*
X-22269486Y24232892D01*
X-22148819Y24003000D01*
X-20955000Y24003000D01*
X-20955000Y25196155D01*
X-20701000Y25196155D01*
X-20701000Y24003000D01*
X-20681000Y24003000D01*
X-20681000Y23749000D01*
X-20701000Y23749000D01*
X-20701000Y22555845D01*
X-20471110Y22434524D01*
X-20061076Y22604355D01*
X-19756739Y22881708D01*
X-19736157Y22778235D01*
X-19595809Y22568191D01*
X-19385765Y22427843D01*
X-19138000Y22378560D01*
X-17438000Y22378560D01*
X-17190235Y22427843D01*
X-16980191Y22568191D01*
X-16839843Y22778235D01*
X-16790560Y23026000D01*
X-16790560Y23456000D01*
X-15975440Y23456000D01*
X-15975440Y21756000D01*
X-15926157Y21508235D01*
X-15785809Y21298191D01*
X-15575765Y21157843D01*
X-15472292Y21137261D01*
X-15749645Y20832924D01*
X-15919476Y20422890D01*
X-15798155Y20193000D01*
X-14605000Y20193000D01*
X-14605000Y20213000D01*
X-14351000Y20213000D01*
X-14351000Y20193000D01*
X-13157845Y20193000D01*
X-13097861Y20306664D01*
X-11706458Y20306664D01*
X-11680839Y19696540D01*
X-11496643Y19251852D01*
X-11240159Y19165446D01*
X-10339605Y20066000D01*
X-9980395Y20066000D01*
X-9079841Y19165446D01*
X-8823357Y19251852D01*
X-8613542Y19825336D01*
X-8639161Y20435460D01*
X-8823357Y20880148D01*
X-9079841Y20966554D01*
X-9980395Y20066000D01*
X-10339605Y20066000D01*
X-11240159Y20966554D01*
X-11496643Y20880148D01*
X-11706458Y20306664D01*
X-13097861Y20306664D01*
X-13036524Y20422890D01*
X-13206355Y20832924D01*
X-13483708Y21137261D01*
X-13380235Y21157843D01*
X-13170191Y21298191D01*
X-13029843Y21508235D01*
X-12980560Y21756000D01*
X-12980560Y21821000D01*
X-11496314Y21821000D01*
X-11461310Y21736493D01*
X-11029507Y21304690D01*
X-11009885Y21296562D01*
X-11060554Y21146159D01*
X-10160000Y20245605D01*
X-9259446Y21146159D01*
X-9310115Y21296562D01*
X-9290493Y21304690D01*
X-8858690Y21736493D01*
X-8625000Y22300670D01*
X-8625000Y22911330D01*
X11165000Y22911330D01*
X11165000Y22300670D01*
X11398690Y21736493D01*
X11799183Y21336000D01*
X11398690Y20935507D01*
X11165000Y20371330D01*
X11165000Y19760670D01*
X11398690Y19196493D01*
X11799183Y18796000D01*
X11398690Y18395507D01*
X11165000Y17831330D01*
X11165000Y17220670D01*
X11398690Y16656493D01*
X11799183Y16256000D01*
X11398690Y15855507D01*
X11165000Y15291330D01*
X11165000Y14680670D01*
X11398690Y14116493D01*
X11799183Y13716000D01*
X11398690Y13315507D01*
X11165000Y12751330D01*
X11165000Y12140670D01*
X11398690Y11576493D01*
X11799183Y11176000D01*
X11398690Y10775507D01*
X11165000Y10211330D01*
X11165000Y9600670D01*
X11398690Y9036493D01*
X11799183Y8636000D01*
X11398690Y8235507D01*
X11165000Y7671330D01*
X11165000Y7060670D01*
X11398690Y6496493D01*
X11799183Y6096000D01*
X11398690Y5695507D01*
X11165000Y5131330D01*
X11165000Y4520670D01*
X11398690Y3956493D01*
X11830493Y3524690D01*
X12394670Y3291000D01*
X13005330Y3291000D01*
X13569507Y3524690D01*
X14001310Y3956493D01*
X14036314Y4041000D01*
X15756526Y4041000D01*
X15947375Y3755375D01*
X16438582Y3427161D01*
X16871744Y3341000D01*
X17164256Y3341000D01*
X17597418Y3427161D01*
X18088625Y3755375D01*
X18416839Y4246582D01*
X18532092Y4826000D01*
X18416839Y5405418D01*
X18088625Y5896625D01*
X17790239Y6096000D01*
X18088625Y6295375D01*
X18416839Y6786582D01*
X18532092Y7366000D01*
X18416839Y7945418D01*
X18088625Y8436625D01*
X17790239Y8636000D01*
X18088625Y8835375D01*
X18416839Y9326582D01*
X18532092Y9906000D01*
X18416839Y10485418D01*
X18088625Y10976625D01*
X17790239Y11176000D01*
X18088625Y11375375D01*
X18416839Y11866582D01*
X18532092Y12446000D01*
X18451512Y12851108D01*
X22942514Y12851108D01*
X23188817Y12326642D01*
X23617076Y11936355D01*
X24027110Y11766524D01*
X24257000Y11887845D01*
X24257000Y13081000D01*
X23063181Y13081000D01*
X22942514Y12851108D01*
X18451512Y12851108D01*
X18416839Y13025418D01*
X18088625Y13516625D01*
X18016389Y13564892D01*
X22942514Y13564892D01*
X23063181Y13335000D01*
X24257000Y13335000D01*
X24257000Y14528155D01*
X24511000Y14528155D01*
X24511000Y13335000D01*
X24531000Y13335000D01*
X24531000Y13081000D01*
X24511000Y13081000D01*
X24511000Y11887845D01*
X24740890Y11766524D01*
X25150924Y11936355D01*
X25579183Y12326642D01*
X25640157Y12456478D01*
X25853375Y12137375D01*
X26344582Y11809161D01*
X26777744Y11723000D01*
X27070256Y11723000D01*
X27503418Y11809161D01*
X27994625Y12137375D01*
X28006816Y12155619D01*
X28015843Y12110235D01*
X28156191Y11900191D01*
X28366235Y11759843D01*
X28614000Y11710560D01*
X30314000Y11710560D01*
X30561765Y11759843D01*
X30771809Y11900191D01*
X30912157Y12110235D01*
X30961440Y12358000D01*
X30961440Y14058000D01*
X30912157Y14305765D01*
X30771809Y14515809D01*
X30561765Y14656157D01*
X30314000Y14705440D01*
X28614000Y14705440D01*
X28366235Y14656157D01*
X28156191Y14515809D01*
X28015843Y14305765D01*
X28006816Y14260381D01*
X27994625Y14278625D01*
X27503418Y14606839D01*
X27070256Y14693000D01*
X26777744Y14693000D01*
X26344582Y14606839D01*
X25853375Y14278625D01*
X25640157Y13959522D01*
X25579183Y14089358D01*
X25150924Y14479645D01*
X24740890Y14649476D01*
X24511000Y14528155D01*
X24257000Y14528155D01*
X24027110Y14649476D01*
X23617076Y14479645D01*
X23188817Y14089358D01*
X22942514Y13564892D01*
X18016389Y13564892D01*
X17790239Y13716000D01*
X18088625Y13915375D01*
X18416839Y14406582D01*
X18532092Y14986000D01*
X18416839Y15565418D01*
X18088625Y16056625D01*
X17790239Y16256000D01*
X18088625Y16455375D01*
X18416839Y16946582D01*
X18532092Y17526000D01*
X18416839Y18105418D01*
X18088625Y18596625D01*
X17790239Y18796000D01*
X18088625Y18995375D01*
X18416839Y19486582D01*
X18532092Y20066000D01*
X18416839Y20645418D01*
X18398197Y20673318D01*
X19615000Y20673318D01*
X19615000Y19326682D01*
X20130336Y18082552D01*
X21082552Y17130336D01*
X22326682Y16615000D01*
X23673318Y16615000D01*
X24917448Y17130336D01*
X25869664Y18082552D01*
X26385000Y19326682D01*
X26385000Y20673318D01*
X25869664Y21917448D01*
X24917448Y22869664D01*
X23673318Y23385000D01*
X22326682Y23385000D01*
X21082552Y22869664D01*
X20130336Y21917448D01*
X19615000Y20673318D01*
X18398197Y20673318D01*
X18088625Y21136625D01*
X18070381Y21148816D01*
X18115765Y21157843D01*
X18325809Y21298191D01*
X18466157Y21508235D01*
X18515440Y21756000D01*
X18515440Y23456000D01*
X18466157Y23703765D01*
X18325809Y23913809D01*
X18115765Y24054157D01*
X17868000Y24103440D01*
X16168000Y24103440D01*
X15920235Y24054157D01*
X15710191Y23913809D01*
X15569843Y23703765D01*
X15520560Y23456000D01*
X15520560Y23391000D01*
X14036314Y23391000D01*
X14001310Y23475507D01*
X13569507Y23907310D01*
X13005330Y24141000D01*
X12394670Y24141000D01*
X11830493Y23907310D01*
X11398690Y23475507D01*
X11165000Y22911330D01*
X-8625000Y22911330D01*
X-8858690Y23475507D01*
X-9290493Y23907310D01*
X-9854670Y24141000D01*
X-10465330Y24141000D01*
X-11029507Y23907310D01*
X-11461310Y23475507D01*
X-11496314Y23391000D01*
X-12980560Y23391000D01*
X-12980560Y23456000D01*
X-13029843Y23703765D01*
X-13170191Y23913809D01*
X-13380235Y24054157D01*
X-13628000Y24103440D01*
X-15328000Y24103440D01*
X-15575765Y24054157D01*
X-15785809Y23913809D01*
X-15926157Y23703765D01*
X-15975440Y23456000D01*
X-16790560Y23456000D01*
X-16790560Y24726000D01*
X-16839843Y24973765D01*
X-16980191Y25183809D01*
X-17190235Y25324157D01*
X-17438000Y25373440D01*
X-19138000Y25373440D01*
X-19385765Y25324157D01*
X-19595809Y25183809D01*
X-19736157Y24973765D01*
X-19756739Y24870292D01*
X-20061076Y25147645D01*
X-20471110Y25317476D01*
X-20701000Y25196155D01*
X-20955000Y25196155D01*
X-21184890Y25317476D01*
X-21594924Y25147645D01*
X-22023183Y24757358D01*
X-22269486Y24232892D01*
X-24198509Y24232892D01*
X-23368674Y25059835D01*
X-21656484Y26553473D01*
X-19849069Y27930354D01*
X-17954377Y29184423D01*
X-15980738Y30310167D01*
X-13936831Y31302635D01*
X-11831643Y32157463D01*
X-9674430Y32870893D01*
X-7474678Y33439788D01*
X-5242060Y33861645D01*
X-2986392Y34134611D01*
X-717592Y34257485D01*
X1554363Y34229727D01*
M02*
