%TF.GenerationSoftware,KiCad,Pcbnew,(5.0.1)-3*%
%TF.CreationDate,2018-12-01T13:50:15+01:00*%
%TF.ProjectId,CastVolumeKnob,43617374566F6C756D654B6E6F622E6B,rev?*%
%TF.SameCoordinates,PX853a720PY5faea10*%
%TF.FileFunction,Soldermask,Bot*%
%TF.FilePolarity,Negative*%
%FSLAX46Y46*%
G04 Gerber Fmt 4.6, Leading zero omitted, Abs format (unit mm)*
G04 Created by KiCad (PCBNEW (5.0.1)-3) date 01/12/2018 13:50:15*
%MOMM*%
%LPD*%
G01*
G04 APERTURE LIST*
%ADD10C,0.100000*%
%ADD11C,0.200000*%
%ADD12C,0.150000*%
G04 APERTURE END LIST*
D10*
X6000000Y0D02*
G75*
G03X6000000Y0I-6000000J0D01*
G01*
D11*
X35000000Y0D02*
G75*
G03X35000000Y0I-35000000J0D01*
G01*
D12*
G36*
X5190442Y-30093518D02*
X5256627Y-30100037D01*
X5369853Y-30134384D01*
X5426467Y-30151557D01*
X5565087Y-30225652D01*
X5582991Y-30235222D01*
X5618729Y-30264552D01*
X5720186Y-30347814D01*
X5803448Y-30449271D01*
X5832778Y-30485009D01*
X5832779Y-30485011D01*
X5916443Y-30641533D01*
X5916443Y-30641534D01*
X5967963Y-30811373D01*
X5985359Y-30988000D01*
X5967963Y-31164627D01*
X5933616Y-31277853D01*
X5916443Y-31334467D01*
X5842348Y-31473087D01*
X5832778Y-31490991D01*
X5803448Y-31526729D01*
X5720186Y-31628186D01*
X5618729Y-31711448D01*
X5582991Y-31740778D01*
X5582989Y-31740779D01*
X5426467Y-31824443D01*
X5369853Y-31841616D01*
X5256627Y-31875963D01*
X5190442Y-31882482D01*
X5124260Y-31889000D01*
X5035740Y-31889000D01*
X4969558Y-31882482D01*
X4903373Y-31875963D01*
X4790147Y-31841616D01*
X4733533Y-31824443D01*
X4577011Y-31740779D01*
X4577009Y-31740778D01*
X4541271Y-31711448D01*
X4439814Y-31628186D01*
X4356552Y-31526729D01*
X4327222Y-31490991D01*
X4317652Y-31473087D01*
X4243557Y-31334467D01*
X4226384Y-31277853D01*
X4192037Y-31164627D01*
X4174641Y-30988000D01*
X4192037Y-30811373D01*
X4243557Y-30641534D01*
X4243557Y-30641533D01*
X4327221Y-30485011D01*
X4327222Y-30485009D01*
X4356552Y-30449271D01*
X4439814Y-30347814D01*
X4541271Y-30264552D01*
X4577009Y-30235222D01*
X4594913Y-30225652D01*
X4733533Y-30151557D01*
X4790147Y-30134384D01*
X4903373Y-30100037D01*
X4969558Y-30093518D01*
X5035740Y-30087000D01*
X5124260Y-30087000D01*
X5190442Y-30093518D01*
X5190442Y-30093518D01*
G37*
G36*
X2650442Y-30093518D02*
X2716627Y-30100037D01*
X2829853Y-30134384D01*
X2886467Y-30151557D01*
X3025087Y-30225652D01*
X3042991Y-30235222D01*
X3078729Y-30264552D01*
X3180186Y-30347814D01*
X3263448Y-30449271D01*
X3292778Y-30485009D01*
X3292779Y-30485011D01*
X3376443Y-30641533D01*
X3376443Y-30641534D01*
X3427963Y-30811373D01*
X3445359Y-30988000D01*
X3427963Y-31164627D01*
X3393616Y-31277853D01*
X3376443Y-31334467D01*
X3302348Y-31473087D01*
X3292778Y-31490991D01*
X3263448Y-31526729D01*
X3180186Y-31628186D01*
X3078729Y-31711448D01*
X3042991Y-31740778D01*
X3042989Y-31740779D01*
X2886467Y-31824443D01*
X2829853Y-31841616D01*
X2716627Y-31875963D01*
X2650442Y-31882482D01*
X2584260Y-31889000D01*
X2495740Y-31889000D01*
X2429558Y-31882482D01*
X2363373Y-31875963D01*
X2250147Y-31841616D01*
X2193533Y-31824443D01*
X2037011Y-31740779D01*
X2037009Y-31740778D01*
X2001271Y-31711448D01*
X1899814Y-31628186D01*
X1816552Y-31526729D01*
X1787222Y-31490991D01*
X1777652Y-31473087D01*
X1703557Y-31334467D01*
X1686384Y-31277853D01*
X1652037Y-31164627D01*
X1634641Y-30988000D01*
X1652037Y-30811373D01*
X1703557Y-30641534D01*
X1703557Y-30641533D01*
X1787221Y-30485011D01*
X1787222Y-30485009D01*
X1816552Y-30449271D01*
X1899814Y-30347814D01*
X2001271Y-30264552D01*
X2037009Y-30235222D01*
X2054913Y-30225652D01*
X2193533Y-30151557D01*
X2250147Y-30134384D01*
X2363373Y-30100037D01*
X2429558Y-30093518D01*
X2495740Y-30087000D01*
X2584260Y-30087000D01*
X2650442Y-30093518D01*
X2650442Y-30093518D01*
G37*
G36*
X110442Y-30093518D02*
X176627Y-30100037D01*
X289853Y-30134384D01*
X346467Y-30151557D01*
X485087Y-30225652D01*
X502991Y-30235222D01*
X538729Y-30264552D01*
X640186Y-30347814D01*
X723448Y-30449271D01*
X752778Y-30485009D01*
X752779Y-30485011D01*
X836443Y-30641533D01*
X836443Y-30641534D01*
X887963Y-30811373D01*
X905359Y-30988000D01*
X887963Y-31164627D01*
X853616Y-31277853D01*
X836443Y-31334467D01*
X762348Y-31473087D01*
X752778Y-31490991D01*
X723448Y-31526729D01*
X640186Y-31628186D01*
X538729Y-31711448D01*
X502991Y-31740778D01*
X502989Y-31740779D01*
X346467Y-31824443D01*
X289853Y-31841616D01*
X176627Y-31875963D01*
X110442Y-31882482D01*
X44260Y-31889000D01*
X-44260Y-31889000D01*
X-110442Y-31882482D01*
X-176627Y-31875963D01*
X-289853Y-31841616D01*
X-346467Y-31824443D01*
X-502989Y-31740779D01*
X-502991Y-31740778D01*
X-538729Y-31711448D01*
X-640186Y-31628186D01*
X-723448Y-31526729D01*
X-752778Y-31490991D01*
X-762348Y-31473087D01*
X-836443Y-31334467D01*
X-853616Y-31277853D01*
X-887963Y-31164627D01*
X-905359Y-30988000D01*
X-887963Y-30811373D01*
X-836443Y-30641534D01*
X-836443Y-30641533D01*
X-752779Y-30485011D01*
X-752778Y-30485009D01*
X-723448Y-30449271D01*
X-640186Y-30347814D01*
X-538729Y-30264552D01*
X-502991Y-30235222D01*
X-485087Y-30225652D01*
X-346467Y-30151557D01*
X-289853Y-30134384D01*
X-176627Y-30100037D01*
X-110442Y-30093518D01*
X-44260Y-30087000D01*
X44260Y-30087000D01*
X110442Y-30093518D01*
X110442Y-30093518D01*
G37*
G36*
X-4179000Y-31889000D02*
X-5981000Y-31889000D01*
X-5981000Y-30087000D01*
X-4179000Y-30087000D01*
X-4179000Y-31889000D01*
X-4179000Y-31889000D01*
G37*
G36*
X-2429558Y-30093518D02*
X-2363373Y-30100037D01*
X-2250147Y-30134384D01*
X-2193533Y-30151557D01*
X-2054913Y-30225652D01*
X-2037009Y-30235222D01*
X-2001271Y-30264552D01*
X-1899814Y-30347814D01*
X-1816552Y-30449271D01*
X-1787222Y-30485009D01*
X-1787221Y-30485011D01*
X-1703557Y-30641533D01*
X-1703557Y-30641534D01*
X-1652037Y-30811373D01*
X-1634641Y-30988000D01*
X-1652037Y-31164627D01*
X-1686384Y-31277853D01*
X-1703557Y-31334467D01*
X-1777652Y-31473087D01*
X-1787222Y-31490991D01*
X-1816552Y-31526729D01*
X-1899814Y-31628186D01*
X-2001271Y-31711448D01*
X-2037009Y-31740778D01*
X-2037011Y-31740779D01*
X-2193533Y-31824443D01*
X-2250147Y-31841616D01*
X-2363373Y-31875963D01*
X-2429558Y-31882482D01*
X-2495740Y-31889000D01*
X-2584260Y-31889000D01*
X-2650442Y-31882482D01*
X-2716627Y-31875963D01*
X-2829853Y-31841616D01*
X-2886467Y-31824443D01*
X-3042989Y-31740779D01*
X-3042991Y-31740778D01*
X-3078729Y-31711448D01*
X-3180186Y-31628186D01*
X-3263448Y-31526729D01*
X-3292778Y-31490991D01*
X-3302348Y-31473087D01*
X-3376443Y-31334467D01*
X-3393616Y-31277853D01*
X-3427963Y-31164627D01*
X-3445359Y-30988000D01*
X-3427963Y-30811373D01*
X-3376443Y-30641534D01*
X-3376443Y-30641533D01*
X-3292779Y-30485011D01*
X-3292778Y-30485009D01*
X-3263448Y-30449271D01*
X-3180186Y-30347814D01*
X-3078729Y-30264552D01*
X-3042991Y-30235222D01*
X-3025087Y-30225652D01*
X-2886467Y-30151557D01*
X-2829853Y-30134384D01*
X-2716627Y-30100037D01*
X-2650442Y-30093518D01*
X-2584260Y-30087000D01*
X-2495740Y-30087000D01*
X-2429558Y-30093518D01*
X-2429558Y-30093518D01*
G37*
G36*
X-12841084Y-25877334D02*
X-12732508Y-25910271D01*
X-12632443Y-25963756D01*
X-12544736Y-26035736D01*
X-12481626Y-26112635D01*
X-12464299Y-26129962D01*
X-12443924Y-26143576D01*
X-12421285Y-26152954D01*
X-12397252Y-26157734D01*
X-12372748Y-26157734D01*
X-12348714Y-26152953D01*
X-12326075Y-26143576D01*
X-12305701Y-26129962D01*
X-12288374Y-26112635D01*
X-12274760Y-26092260D01*
X-12265382Y-26069621D01*
X-12260000Y-26033336D01*
X-12260000Y-25869000D01*
X-11108000Y-25869000D01*
X-11108000Y-27471000D01*
X-12260000Y-27471000D01*
X-12260000Y-27306663D01*
X-12262402Y-27282277D01*
X-12269515Y-27258828D01*
X-12281066Y-27237217D01*
X-12296612Y-27218275D01*
X-12315554Y-27202729D01*
X-12337165Y-27191178D01*
X-12360614Y-27184065D01*
X-12385000Y-27181663D01*
X-12409386Y-27184065D01*
X-12432835Y-27191178D01*
X-12454446Y-27202729D01*
X-12481623Y-27227361D01*
X-12544736Y-27304264D01*
X-12632444Y-27376244D01*
X-12732509Y-27429729D01*
X-12841085Y-27462666D01*
X-12954000Y-27473787D01*
X-13066916Y-27462666D01*
X-13175492Y-27429729D01*
X-13275557Y-27376244D01*
X-13363264Y-27304264D01*
X-13435244Y-27216556D01*
X-13478760Y-27135142D01*
X-13492373Y-27114767D01*
X-13509701Y-27097440D01*
X-13530075Y-27083826D01*
X-13552714Y-27074449D01*
X-13576747Y-27069668D01*
X-13601252Y-27069668D01*
X-13625285Y-27074448D01*
X-13647924Y-27083826D01*
X-13668299Y-27097439D01*
X-13685626Y-27114767D01*
X-13699233Y-27135131D01*
X-13742756Y-27216557D01*
X-13814736Y-27304264D01*
X-13902444Y-27376244D01*
X-14002509Y-27429729D01*
X-14111085Y-27462666D01*
X-14224000Y-27473787D01*
X-14336916Y-27462666D01*
X-14445492Y-27429729D01*
X-14545557Y-27376244D01*
X-14633264Y-27304264D01*
X-14705244Y-27216556D01*
X-14758729Y-27116491D01*
X-14791666Y-27007915D01*
X-14800000Y-26923297D01*
X-14800000Y-26416702D01*
X-14791666Y-26332084D01*
X-14758729Y-26223508D01*
X-14721017Y-26152954D01*
X-14705245Y-26123446D01*
X-14679651Y-26092260D01*
X-14633263Y-26035736D01*
X-14545556Y-25963756D01*
X-14445491Y-25910271D01*
X-14336915Y-25877334D01*
X-14224000Y-25866213D01*
X-14111084Y-25877334D01*
X-14002508Y-25910271D01*
X-13902443Y-25963756D01*
X-13814736Y-26035736D01*
X-13742756Y-26123443D01*
X-13699240Y-26204857D01*
X-13685627Y-26225232D01*
X-13668299Y-26242559D01*
X-13647925Y-26256173D01*
X-13625286Y-26265550D01*
X-13601253Y-26270331D01*
X-13576748Y-26270331D01*
X-13552715Y-26265551D01*
X-13530076Y-26256173D01*
X-13509701Y-26242560D01*
X-13492374Y-26225232D01*
X-13478760Y-26204857D01*
X-13435245Y-26123446D01*
X-13409651Y-26092260D01*
X-13363263Y-26035736D01*
X-13275556Y-25963756D01*
X-13175491Y-25910271D01*
X-13066915Y-25877334D01*
X-12954000Y-25866213D01*
X-12841084Y-25877334D01*
X-12841084Y-25877334D01*
G37*
G36*
X-22182979Y-17306640D02*
X-21673230Y-17517785D01*
X-21673229Y-17517786D01*
X-21214466Y-17824321D01*
X-20824321Y-18214466D01*
X-20619964Y-18520308D01*
X-20517785Y-18673230D01*
X-20306640Y-19182979D01*
X-20199000Y-19724124D01*
X-20199000Y-20275876D01*
X-20306640Y-20817021D01*
X-20517785Y-21326770D01*
X-20517786Y-21326771D01*
X-20824321Y-21785534D01*
X-21214466Y-22175679D01*
X-21327215Y-22251015D01*
X-21673230Y-22482215D01*
X-22182979Y-22693360D01*
X-22724124Y-22801000D01*
X-23275876Y-22801000D01*
X-23817021Y-22693360D01*
X-24326770Y-22482215D01*
X-24672785Y-22251015D01*
X-24785534Y-22175679D01*
X-25175679Y-21785534D01*
X-25482214Y-21326771D01*
X-25482215Y-21326770D01*
X-25693360Y-20817021D01*
X-25801000Y-20275876D01*
X-25801000Y-19724124D01*
X-25693360Y-19182979D01*
X-25482215Y-18673230D01*
X-25380036Y-18520308D01*
X-25175679Y-18214466D01*
X-24785534Y-17824321D01*
X-24326771Y-17517786D01*
X-24326770Y-17517785D01*
X-23817021Y-17306640D01*
X-23275876Y-17199000D01*
X-22724124Y-17199000D01*
X-22182979Y-17306640D01*
X-22182979Y-17306640D01*
G37*
G36*
X-14057179Y-20751313D02*
X-14057176Y-20751314D01*
X-14057175Y-20751314D01*
X-13896761Y-20799975D01*
X-13896759Y-20799976D01*
X-13896756Y-20799977D01*
X-13748922Y-20878995D01*
X-13619341Y-20985341D01*
X-13512995Y-21114922D01*
X-13433977Y-21262756D01*
X-13433976Y-21262759D01*
X-13433975Y-21262761D01*
X-13385314Y-21423175D01*
X-13385313Y-21423179D01*
X-13368883Y-21590000D01*
X-13385313Y-21756821D01*
X-13385314Y-21756824D01*
X-13385314Y-21756825D01*
X-13410007Y-21838228D01*
X-13433977Y-21917244D01*
X-13512995Y-22065078D01*
X-13619341Y-22194659D01*
X-13748922Y-22301005D01*
X-13896756Y-22380023D01*
X-13896759Y-22380024D01*
X-13896761Y-22380025D01*
X-14057175Y-22428686D01*
X-14057176Y-22428686D01*
X-14057179Y-22428687D01*
X-14182196Y-22441000D01*
X-14265804Y-22441000D01*
X-14390821Y-22428687D01*
X-14390824Y-22428686D01*
X-14390825Y-22428686D01*
X-14551239Y-22380025D01*
X-14551241Y-22380024D01*
X-14551244Y-22380023D01*
X-14699078Y-22301005D01*
X-14828659Y-22194659D01*
X-14935005Y-22065078D01*
X-15014023Y-21917244D01*
X-15037992Y-21838228D01*
X-15062686Y-21756825D01*
X-15062686Y-21756824D01*
X-15062687Y-21756821D01*
X-15079117Y-21590000D01*
X-15062687Y-21423179D01*
X-15062686Y-21423175D01*
X-15014025Y-21262761D01*
X-15014024Y-21262759D01*
X-15014023Y-21262756D01*
X-14935005Y-21114922D01*
X-14828659Y-20985341D01*
X-14699078Y-20878995D01*
X-14551244Y-20799977D01*
X-14551241Y-20799976D01*
X-14551239Y-20799975D01*
X-14390825Y-20751314D01*
X-14390824Y-20751314D01*
X-14390821Y-20751313D01*
X-14265804Y-20739000D01*
X-14182196Y-20739000D01*
X-14057179Y-20751313D01*
X-14057179Y-20751313D01*
G37*
G36*
X-10673772Y-20771703D02*
X-10518900Y-20835853D01*
X-10379519Y-20928985D01*
X-10260985Y-21047519D01*
X-10167853Y-21186900D01*
X-10103703Y-21341772D01*
X-10071000Y-21506184D01*
X-10071000Y-21673816D01*
X-10103703Y-21838228D01*
X-10167853Y-21993100D01*
X-10260985Y-22132481D01*
X-10379519Y-22251015D01*
X-10518900Y-22344147D01*
X-10673772Y-22408297D01*
X-10838184Y-22441000D01*
X-11005816Y-22441000D01*
X-11170228Y-22408297D01*
X-11325100Y-22344147D01*
X-11464481Y-22251015D01*
X-11583015Y-22132481D01*
X-11676147Y-21993100D01*
X-11740297Y-21838228D01*
X-11773000Y-21673816D01*
X-11773000Y-21506184D01*
X-11740297Y-21341772D01*
X-11676147Y-21186900D01*
X-11583015Y-21047519D01*
X-11464481Y-20928985D01*
X-11325100Y-20835853D01*
X-11170228Y-20771703D01*
X-11005816Y-20739000D01*
X-10838184Y-20739000D01*
X-10673772Y-20771703D01*
X-10673772Y-20771703D01*
G37*
G36*
X11032442Y-19425518D02*
X11098627Y-19432037D01*
X11211853Y-19466384D01*
X11268467Y-19483557D01*
X11407087Y-19557652D01*
X11424991Y-19567222D01*
X11460729Y-19596552D01*
X11562186Y-19679814D01*
X11645448Y-19781271D01*
X11674778Y-19817009D01*
X11674779Y-19817011D01*
X11758443Y-19973533D01*
X11758443Y-19973534D01*
X11809963Y-20143373D01*
X11827359Y-20320000D01*
X11809963Y-20496627D01*
X11775616Y-20609853D01*
X11758443Y-20666467D01*
X11702192Y-20771703D01*
X11674778Y-20822991D01*
X11645448Y-20858729D01*
X11562186Y-20960186D01*
X11460729Y-21043448D01*
X11424991Y-21072778D01*
X11424989Y-21072779D01*
X11268467Y-21156443D01*
X11211853Y-21173616D01*
X11098627Y-21207963D01*
X11032443Y-21214481D01*
X10966260Y-21221000D01*
X10877740Y-21221000D01*
X10811557Y-21214481D01*
X10745373Y-21207963D01*
X10632147Y-21173616D01*
X10575533Y-21156443D01*
X10419011Y-21072779D01*
X10419009Y-21072778D01*
X10383271Y-21043448D01*
X10281814Y-20960186D01*
X10198552Y-20858729D01*
X10169222Y-20822991D01*
X10141808Y-20771703D01*
X10085557Y-20666467D01*
X10068384Y-20609853D01*
X10034037Y-20496627D01*
X10016641Y-20320000D01*
X10034037Y-20143373D01*
X10085557Y-19973534D01*
X10085557Y-19973533D01*
X10169221Y-19817011D01*
X10169222Y-19817009D01*
X10198552Y-19781271D01*
X10281814Y-19679814D01*
X10383271Y-19596552D01*
X10419009Y-19567222D01*
X10436913Y-19557652D01*
X10575533Y-19483557D01*
X10632147Y-19466384D01*
X10745373Y-19432037D01*
X10811558Y-19425518D01*
X10877740Y-19419000D01*
X10966260Y-19419000D01*
X11032442Y-19425518D01*
X11032442Y-19425518D01*
G37*
G36*
X23732442Y-19425518D02*
X23798627Y-19432037D01*
X23911853Y-19466384D01*
X23968467Y-19483557D01*
X24107087Y-19557652D01*
X24124991Y-19567222D01*
X24160729Y-19596552D01*
X24262186Y-19679814D01*
X24345448Y-19781271D01*
X24374778Y-19817009D01*
X24374779Y-19817011D01*
X24458443Y-19973533D01*
X24458443Y-19973534D01*
X24509963Y-20143373D01*
X24527359Y-20320000D01*
X24509963Y-20496627D01*
X24475616Y-20609853D01*
X24458443Y-20666467D01*
X24402192Y-20771703D01*
X24374778Y-20822991D01*
X24345448Y-20858729D01*
X24262186Y-20960186D01*
X24160729Y-21043448D01*
X24124991Y-21072778D01*
X24124989Y-21072779D01*
X23968467Y-21156443D01*
X23911853Y-21173616D01*
X23798627Y-21207963D01*
X23732443Y-21214481D01*
X23666260Y-21221000D01*
X23577740Y-21221000D01*
X23511557Y-21214481D01*
X23445373Y-21207963D01*
X23332147Y-21173616D01*
X23275533Y-21156443D01*
X23119011Y-21072779D01*
X23119009Y-21072778D01*
X23083271Y-21043448D01*
X22981814Y-20960186D01*
X22898552Y-20858729D01*
X22869222Y-20822991D01*
X22841808Y-20771703D01*
X22785557Y-20666467D01*
X22768384Y-20609853D01*
X22734037Y-20496627D01*
X22716641Y-20320000D01*
X22734037Y-20143373D01*
X22785557Y-19973534D01*
X22785557Y-19973533D01*
X22869221Y-19817011D01*
X22869222Y-19817009D01*
X22898552Y-19781271D01*
X22981814Y-19679814D01*
X23083271Y-19596552D01*
X23119009Y-19567222D01*
X23136913Y-19557652D01*
X23275533Y-19483557D01*
X23332147Y-19466384D01*
X23445373Y-19432037D01*
X23511558Y-19425518D01*
X23577740Y-19419000D01*
X23666260Y-19419000D01*
X23732442Y-19425518D01*
X23732442Y-19425518D01*
G37*
G36*
X21192442Y-19425518D02*
X21258627Y-19432037D01*
X21371853Y-19466384D01*
X21428467Y-19483557D01*
X21567087Y-19557652D01*
X21584991Y-19567222D01*
X21620729Y-19596552D01*
X21722186Y-19679814D01*
X21805448Y-19781271D01*
X21834778Y-19817009D01*
X21834779Y-19817011D01*
X21918443Y-19973533D01*
X21918443Y-19973534D01*
X21969963Y-20143373D01*
X21987359Y-20320000D01*
X21969963Y-20496627D01*
X21935616Y-20609853D01*
X21918443Y-20666467D01*
X21862192Y-20771703D01*
X21834778Y-20822991D01*
X21805448Y-20858729D01*
X21722186Y-20960186D01*
X21620729Y-21043448D01*
X21584991Y-21072778D01*
X21584989Y-21072779D01*
X21428467Y-21156443D01*
X21371853Y-21173616D01*
X21258627Y-21207963D01*
X21192443Y-21214481D01*
X21126260Y-21221000D01*
X21037740Y-21221000D01*
X20971557Y-21214481D01*
X20905373Y-21207963D01*
X20792147Y-21173616D01*
X20735533Y-21156443D01*
X20579011Y-21072779D01*
X20579009Y-21072778D01*
X20543271Y-21043448D01*
X20441814Y-20960186D01*
X20358552Y-20858729D01*
X20329222Y-20822991D01*
X20301808Y-20771703D01*
X20245557Y-20666467D01*
X20228384Y-20609853D01*
X20194037Y-20496627D01*
X20176641Y-20320000D01*
X20194037Y-20143373D01*
X20245557Y-19973534D01*
X20245557Y-19973533D01*
X20329221Y-19817011D01*
X20329222Y-19817009D01*
X20358552Y-19781271D01*
X20441814Y-19679814D01*
X20543271Y-19596552D01*
X20579009Y-19567222D01*
X20596913Y-19557652D01*
X20735533Y-19483557D01*
X20792147Y-19466384D01*
X20905373Y-19432037D01*
X20971558Y-19425518D01*
X21037740Y-19419000D01*
X21126260Y-19419000D01*
X21192442Y-19425518D01*
X21192442Y-19425518D01*
G37*
G36*
X18652442Y-19425518D02*
X18718627Y-19432037D01*
X18831853Y-19466384D01*
X18888467Y-19483557D01*
X19027087Y-19557652D01*
X19044991Y-19567222D01*
X19080729Y-19596552D01*
X19182186Y-19679814D01*
X19265448Y-19781271D01*
X19294778Y-19817009D01*
X19294779Y-19817011D01*
X19378443Y-19973533D01*
X19378443Y-19973534D01*
X19429963Y-20143373D01*
X19447359Y-20320000D01*
X19429963Y-20496627D01*
X19395616Y-20609853D01*
X19378443Y-20666467D01*
X19322192Y-20771703D01*
X19294778Y-20822991D01*
X19265448Y-20858729D01*
X19182186Y-20960186D01*
X19080729Y-21043448D01*
X19044991Y-21072778D01*
X19044989Y-21072779D01*
X18888467Y-21156443D01*
X18831853Y-21173616D01*
X18718627Y-21207963D01*
X18652443Y-21214481D01*
X18586260Y-21221000D01*
X18497740Y-21221000D01*
X18431557Y-21214481D01*
X18365373Y-21207963D01*
X18252147Y-21173616D01*
X18195533Y-21156443D01*
X18039011Y-21072779D01*
X18039009Y-21072778D01*
X18003271Y-21043448D01*
X17901814Y-20960186D01*
X17818552Y-20858729D01*
X17789222Y-20822991D01*
X17761808Y-20771703D01*
X17705557Y-20666467D01*
X17688384Y-20609853D01*
X17654037Y-20496627D01*
X17636641Y-20320000D01*
X17654037Y-20143373D01*
X17705557Y-19973534D01*
X17705557Y-19973533D01*
X17789221Y-19817011D01*
X17789222Y-19817009D01*
X17818552Y-19781271D01*
X17901814Y-19679814D01*
X18003271Y-19596552D01*
X18039009Y-19567222D01*
X18056913Y-19557652D01*
X18195533Y-19483557D01*
X18252147Y-19466384D01*
X18365373Y-19432037D01*
X18431558Y-19425518D01*
X18497740Y-19419000D01*
X18586260Y-19419000D01*
X18652442Y-19425518D01*
X18652442Y-19425518D01*
G37*
G36*
X16112442Y-19425518D02*
X16178627Y-19432037D01*
X16291853Y-19466384D01*
X16348467Y-19483557D01*
X16487087Y-19557652D01*
X16504991Y-19567222D01*
X16540729Y-19596552D01*
X16642186Y-19679814D01*
X16725448Y-19781271D01*
X16754778Y-19817009D01*
X16754779Y-19817011D01*
X16838443Y-19973533D01*
X16838443Y-19973534D01*
X16889963Y-20143373D01*
X16907359Y-20320000D01*
X16889963Y-20496627D01*
X16855616Y-20609853D01*
X16838443Y-20666467D01*
X16782192Y-20771703D01*
X16754778Y-20822991D01*
X16725448Y-20858729D01*
X16642186Y-20960186D01*
X16540729Y-21043448D01*
X16504991Y-21072778D01*
X16504989Y-21072779D01*
X16348467Y-21156443D01*
X16291853Y-21173616D01*
X16178627Y-21207963D01*
X16112443Y-21214481D01*
X16046260Y-21221000D01*
X15957740Y-21221000D01*
X15891557Y-21214481D01*
X15825373Y-21207963D01*
X15712147Y-21173616D01*
X15655533Y-21156443D01*
X15499011Y-21072779D01*
X15499009Y-21072778D01*
X15463271Y-21043448D01*
X15361814Y-20960186D01*
X15278552Y-20858729D01*
X15249222Y-20822991D01*
X15221808Y-20771703D01*
X15165557Y-20666467D01*
X15148384Y-20609853D01*
X15114037Y-20496627D01*
X15096641Y-20320000D01*
X15114037Y-20143373D01*
X15165557Y-19973534D01*
X15165557Y-19973533D01*
X15249221Y-19817011D01*
X15249222Y-19817009D01*
X15278552Y-19781271D01*
X15361814Y-19679814D01*
X15463271Y-19596552D01*
X15499009Y-19567222D01*
X15516913Y-19557652D01*
X15655533Y-19483557D01*
X15712147Y-19466384D01*
X15825373Y-19432037D01*
X15891558Y-19425518D01*
X15957740Y-19419000D01*
X16046260Y-19419000D01*
X16112442Y-19425518D01*
X16112442Y-19425518D01*
G37*
G36*
X13572442Y-19425518D02*
X13638627Y-19432037D01*
X13751853Y-19466384D01*
X13808467Y-19483557D01*
X13947087Y-19557652D01*
X13964991Y-19567222D01*
X14000729Y-19596552D01*
X14102186Y-19679814D01*
X14185448Y-19781271D01*
X14214778Y-19817009D01*
X14214779Y-19817011D01*
X14298443Y-19973533D01*
X14298443Y-19973534D01*
X14349963Y-20143373D01*
X14367359Y-20320000D01*
X14349963Y-20496627D01*
X14315616Y-20609853D01*
X14298443Y-20666467D01*
X14242192Y-20771703D01*
X14214778Y-20822991D01*
X14185448Y-20858729D01*
X14102186Y-20960186D01*
X14000729Y-21043448D01*
X13964991Y-21072778D01*
X13964989Y-21072779D01*
X13808467Y-21156443D01*
X13751853Y-21173616D01*
X13638627Y-21207963D01*
X13572443Y-21214481D01*
X13506260Y-21221000D01*
X13417740Y-21221000D01*
X13351557Y-21214481D01*
X13285373Y-21207963D01*
X13172147Y-21173616D01*
X13115533Y-21156443D01*
X12959011Y-21072779D01*
X12959009Y-21072778D01*
X12923271Y-21043448D01*
X12821814Y-20960186D01*
X12738552Y-20858729D01*
X12709222Y-20822991D01*
X12681808Y-20771703D01*
X12625557Y-20666467D01*
X12608384Y-20609853D01*
X12574037Y-20496627D01*
X12556641Y-20320000D01*
X12574037Y-20143373D01*
X12625557Y-19973534D01*
X12625557Y-19973533D01*
X12709221Y-19817011D01*
X12709222Y-19817009D01*
X12738552Y-19781271D01*
X12821814Y-19679814D01*
X12923271Y-19596552D01*
X12959009Y-19567222D01*
X12976913Y-19557652D01*
X13115533Y-19483557D01*
X13172147Y-19466384D01*
X13285373Y-19432037D01*
X13351558Y-19425518D01*
X13417740Y-19419000D01*
X13506260Y-19419000D01*
X13572442Y-19425518D01*
X13572442Y-19425518D01*
G37*
G36*
X24124228Y-13659703D02*
X24279100Y-13723853D01*
X24418481Y-13816985D01*
X24537015Y-13935519D01*
X24630147Y-14074900D01*
X24694297Y-14229772D01*
X24727000Y-14394184D01*
X24727000Y-14561816D01*
X24694297Y-14726228D01*
X24630147Y-14881100D01*
X24537015Y-15020481D01*
X24418481Y-15139015D01*
X24279100Y-15232147D01*
X24124228Y-15296297D01*
X23959816Y-15329000D01*
X23792184Y-15329000D01*
X23627772Y-15296297D01*
X23472900Y-15232147D01*
X23333519Y-15139015D01*
X23214985Y-15020481D01*
X23121853Y-14881100D01*
X23057703Y-14726228D01*
X23025000Y-14561816D01*
X23025000Y-14394184D01*
X23057703Y-14229772D01*
X23121853Y-14074900D01*
X23214985Y-13935519D01*
X23333519Y-13816985D01*
X23472900Y-13723853D01*
X23627772Y-13659703D01*
X23792184Y-13627000D01*
X23959816Y-13627000D01*
X24124228Y-13659703D01*
X24124228Y-13659703D01*
G37*
G36*
X12504821Y-13385313D02*
X12504824Y-13385314D01*
X12504825Y-13385314D01*
X12665239Y-13433975D01*
X12665241Y-13433976D01*
X12665244Y-13433977D01*
X12813078Y-13512995D01*
X12942659Y-13619341D01*
X13049005Y-13748922D01*
X13128023Y-13896756D01*
X13128024Y-13896759D01*
X13128025Y-13896761D01*
X13129614Y-13902000D01*
X13176687Y-14057179D01*
X13193117Y-14224000D01*
X13176687Y-14390821D01*
X13128023Y-14551244D01*
X13049005Y-14699078D01*
X12942659Y-14828659D01*
X12813078Y-14935005D01*
X12665244Y-15014023D01*
X12665241Y-15014024D01*
X12665239Y-15014025D01*
X12504825Y-15062686D01*
X12504824Y-15062686D01*
X12504821Y-15062687D01*
X12379804Y-15075000D01*
X11496196Y-15075000D01*
X11371179Y-15062687D01*
X11371176Y-15062686D01*
X11371175Y-15062686D01*
X11210761Y-15014025D01*
X11210759Y-15014024D01*
X11210756Y-15014023D01*
X11062922Y-14935005D01*
X10933341Y-14828659D01*
X10826995Y-14699078D01*
X10747977Y-14551244D01*
X10699313Y-14390821D01*
X10682883Y-14224000D01*
X10699313Y-14057179D01*
X10746386Y-13902000D01*
X10747975Y-13896761D01*
X10747976Y-13896759D01*
X10747977Y-13896756D01*
X10826995Y-13748922D01*
X10933341Y-13619341D01*
X11062922Y-13512995D01*
X11210756Y-13433977D01*
X11210759Y-13433976D01*
X11210761Y-13433975D01*
X11371175Y-13385314D01*
X11371176Y-13385314D01*
X11371179Y-13385313D01*
X11496196Y-13373000D01*
X12379804Y-13373000D01*
X12504821Y-13385313D01*
X12504821Y-13385313D01*
G37*
G36*
X20124821Y-13385313D02*
X20124824Y-13385314D01*
X20124825Y-13385314D01*
X20285239Y-13433975D01*
X20285241Y-13433976D01*
X20285244Y-13433977D01*
X20433078Y-13512995D01*
X20562659Y-13619341D01*
X20669005Y-13748922D01*
X20748023Y-13896756D01*
X20748024Y-13896759D01*
X20748025Y-13896761D01*
X20749614Y-13902000D01*
X20796687Y-14057179D01*
X20813117Y-14224000D01*
X20796687Y-14390821D01*
X20748023Y-14551244D01*
X20669005Y-14699078D01*
X20562659Y-14828659D01*
X20433078Y-14935005D01*
X20285244Y-15014023D01*
X20285241Y-15014024D01*
X20285239Y-15014025D01*
X20124825Y-15062686D01*
X20124824Y-15062686D01*
X20124821Y-15062687D01*
X19999804Y-15075000D01*
X19116196Y-15075000D01*
X18991179Y-15062687D01*
X18991176Y-15062686D01*
X18991175Y-15062686D01*
X18830761Y-15014025D01*
X18830759Y-15014024D01*
X18830756Y-15014023D01*
X18682922Y-14935005D01*
X18553341Y-14828659D01*
X18446995Y-14699078D01*
X18367977Y-14551244D01*
X18319313Y-14390821D01*
X18302883Y-14224000D01*
X18319313Y-14057179D01*
X18366386Y-13902000D01*
X18367975Y-13896761D01*
X18367976Y-13896759D01*
X18367977Y-13896756D01*
X18446995Y-13748922D01*
X18553341Y-13619341D01*
X18682922Y-13512995D01*
X18830756Y-13433977D01*
X18830759Y-13433976D01*
X18830761Y-13433975D01*
X18991175Y-13385314D01*
X18991176Y-13385314D01*
X18991179Y-13385313D01*
X19116196Y-13373000D01*
X19999804Y-13373000D01*
X20124821Y-13385313D01*
X20124821Y-13385313D01*
G37*
G36*
X-24808084Y-11370334D02*
X-24699508Y-11403271D01*
X-24599443Y-11456756D01*
X-24511736Y-11528736D01*
X-24439756Y-11616443D01*
X-24386271Y-11716508D01*
X-24353334Y-11825084D01*
X-24342213Y-11938000D01*
X-24353334Y-12050916D01*
X-24386271Y-12159492D01*
X-24386274Y-12159497D01*
X-24439756Y-12259557D01*
X-24511736Y-12347264D01*
X-24599443Y-12419244D01*
X-24680857Y-12462760D01*
X-24701232Y-12476373D01*
X-24718559Y-12493701D01*
X-24732173Y-12514075D01*
X-24741550Y-12536714D01*
X-24746331Y-12560747D01*
X-24746331Y-12585252D01*
X-24741551Y-12609285D01*
X-24732173Y-12631924D01*
X-24718560Y-12652299D01*
X-24701232Y-12669626D01*
X-24680857Y-12683240D01*
X-24599443Y-12726756D01*
X-24511736Y-12798736D01*
X-24439756Y-12886443D01*
X-24386271Y-12986508D01*
X-24353334Y-13095084D01*
X-24342213Y-13208000D01*
X-24353334Y-13320916D01*
X-24386271Y-13429492D01*
X-24430904Y-13512995D01*
X-24439756Y-13529557D01*
X-24511736Y-13617264D01*
X-24588635Y-13680374D01*
X-24605962Y-13697701D01*
X-24619576Y-13718076D01*
X-24628954Y-13740715D01*
X-24633734Y-13764748D01*
X-24633734Y-13789252D01*
X-24628953Y-13813286D01*
X-24619576Y-13835925D01*
X-24605962Y-13856299D01*
X-24588635Y-13873626D01*
X-24568260Y-13887240D01*
X-24545621Y-13896618D01*
X-24509336Y-13902000D01*
X-24345000Y-13902000D01*
X-24345000Y-15054000D01*
X-25947000Y-15054000D01*
X-25947000Y-13902000D01*
X-25782664Y-13902000D01*
X-25758278Y-13899598D01*
X-25734829Y-13892485D01*
X-25713218Y-13880934D01*
X-25694276Y-13865388D01*
X-25678730Y-13846446D01*
X-25667179Y-13824835D01*
X-25660066Y-13801386D01*
X-25657664Y-13777000D01*
X-25660066Y-13752614D01*
X-25667179Y-13729165D01*
X-25678730Y-13707554D01*
X-25703365Y-13680374D01*
X-25780264Y-13617264D01*
X-25852244Y-13529557D01*
X-25861096Y-13512995D01*
X-25905729Y-13429492D01*
X-25938666Y-13320916D01*
X-25949787Y-13208000D01*
X-25938666Y-13095084D01*
X-25905729Y-12986508D01*
X-25852244Y-12886443D01*
X-25780264Y-12798736D01*
X-25692557Y-12726756D01*
X-25611143Y-12683240D01*
X-25590768Y-12669627D01*
X-25573441Y-12652299D01*
X-25559827Y-12631925D01*
X-25550450Y-12609286D01*
X-25545669Y-12585253D01*
X-25545669Y-12560748D01*
X-25550449Y-12536715D01*
X-25559827Y-12514076D01*
X-25573440Y-12493701D01*
X-25590768Y-12476374D01*
X-25611143Y-12462760D01*
X-25692557Y-12419244D01*
X-25780264Y-12347264D01*
X-25852244Y-12259557D01*
X-25905726Y-12159497D01*
X-25905729Y-12159492D01*
X-25938666Y-12050916D01*
X-25949787Y-11938000D01*
X-25938666Y-11825084D01*
X-25905729Y-11716508D01*
X-25852244Y-11616443D01*
X-25780264Y-11528736D01*
X-25692557Y-11456756D01*
X-25592492Y-11403271D01*
X-25483916Y-11370334D01*
X-25399298Y-11362000D01*
X-24892702Y-11362000D01*
X-24808084Y-11370334D01*
X-24808084Y-11370334D01*
G37*
G36*
X24124228Y-11159703D02*
X24279100Y-11223853D01*
X24418481Y-11316985D01*
X24537015Y-11435519D01*
X24630147Y-11574900D01*
X24694297Y-11729772D01*
X24727000Y-11894184D01*
X24727000Y-12061816D01*
X24694297Y-12226228D01*
X24630147Y-12381100D01*
X24537015Y-12520481D01*
X24418481Y-12639015D01*
X24279100Y-12732147D01*
X24124228Y-12796297D01*
X23959816Y-12829000D01*
X23792184Y-12829000D01*
X23627772Y-12796297D01*
X23472900Y-12732147D01*
X23333519Y-12639015D01*
X23214985Y-12520481D01*
X23121853Y-12381100D01*
X23057703Y-12226228D01*
X23025000Y-12061816D01*
X23025000Y-11894184D01*
X23057703Y-11729772D01*
X23121853Y-11574900D01*
X23214985Y-11435519D01*
X23333519Y-11316985D01*
X23472900Y-11223853D01*
X23627772Y-11159703D01*
X23792184Y-11127000D01*
X23959816Y-11127000D01*
X24124228Y-11159703D01*
X24124228Y-11159703D01*
G37*
G36*
X12504821Y-10845313D02*
X12504824Y-10845314D01*
X12504825Y-10845314D01*
X12665239Y-10893975D01*
X12665241Y-10893976D01*
X12665244Y-10893977D01*
X12813078Y-10972995D01*
X12942659Y-11079341D01*
X13049005Y-11208922D01*
X13128023Y-11356756D01*
X13128024Y-11356759D01*
X13128025Y-11356761D01*
X13151916Y-11435519D01*
X13176687Y-11517179D01*
X13193117Y-11684000D01*
X13176687Y-11850821D01*
X13176686Y-11850824D01*
X13176686Y-11850825D01*
X13150242Y-11938000D01*
X13128023Y-12011244D01*
X13049005Y-12159078D01*
X12942659Y-12288659D01*
X12813078Y-12395005D01*
X12665244Y-12474023D01*
X12665241Y-12474024D01*
X12665239Y-12474025D01*
X12504825Y-12522686D01*
X12504824Y-12522686D01*
X12504821Y-12522687D01*
X12379804Y-12535000D01*
X11496196Y-12535000D01*
X11371179Y-12522687D01*
X11371176Y-12522686D01*
X11371175Y-12522686D01*
X11210761Y-12474025D01*
X11210759Y-12474024D01*
X11210756Y-12474023D01*
X11062922Y-12395005D01*
X10933341Y-12288659D01*
X10826995Y-12159078D01*
X10747977Y-12011244D01*
X10725759Y-11938000D01*
X10699314Y-11850825D01*
X10699314Y-11850824D01*
X10699313Y-11850821D01*
X10682883Y-11684000D01*
X10699313Y-11517179D01*
X10724084Y-11435519D01*
X10747975Y-11356761D01*
X10747976Y-11356759D01*
X10747977Y-11356756D01*
X10826995Y-11208922D01*
X10933341Y-11079341D01*
X11062922Y-10972995D01*
X11210756Y-10893977D01*
X11210759Y-10893976D01*
X11210761Y-10893975D01*
X11371175Y-10845314D01*
X11371176Y-10845314D01*
X11371179Y-10845313D01*
X11496196Y-10833000D01*
X12379804Y-10833000D01*
X12504821Y-10845313D01*
X12504821Y-10845313D01*
G37*
G36*
X20124821Y-10845313D02*
X20124824Y-10845314D01*
X20124825Y-10845314D01*
X20285239Y-10893975D01*
X20285241Y-10893976D01*
X20285244Y-10893977D01*
X20433078Y-10972995D01*
X20562659Y-11079341D01*
X20669005Y-11208922D01*
X20748023Y-11356756D01*
X20748024Y-11356759D01*
X20748025Y-11356761D01*
X20771916Y-11435519D01*
X20796687Y-11517179D01*
X20813117Y-11684000D01*
X20796687Y-11850821D01*
X20796686Y-11850824D01*
X20796686Y-11850825D01*
X20770242Y-11938000D01*
X20748023Y-12011244D01*
X20669005Y-12159078D01*
X20562659Y-12288659D01*
X20433078Y-12395005D01*
X20285244Y-12474023D01*
X20285241Y-12474024D01*
X20285239Y-12474025D01*
X20124825Y-12522686D01*
X20124824Y-12522686D01*
X20124821Y-12522687D01*
X19999804Y-12535000D01*
X19116196Y-12535000D01*
X18991179Y-12522687D01*
X18991176Y-12522686D01*
X18991175Y-12522686D01*
X18830761Y-12474025D01*
X18830759Y-12474024D01*
X18830756Y-12474023D01*
X18682922Y-12395005D01*
X18553341Y-12288659D01*
X18446995Y-12159078D01*
X18367977Y-12011244D01*
X18345759Y-11938000D01*
X18319314Y-11850825D01*
X18319314Y-11850824D01*
X18319313Y-11850821D01*
X18302883Y-11684000D01*
X18319313Y-11517179D01*
X18344084Y-11435519D01*
X18367975Y-11356761D01*
X18367976Y-11356759D01*
X18367977Y-11356756D01*
X18446995Y-11208922D01*
X18553341Y-11079341D01*
X18682922Y-10972995D01*
X18830756Y-10893977D01*
X18830759Y-10893976D01*
X18830761Y-10893975D01*
X18991175Y-10845314D01*
X18991176Y-10845314D01*
X18991179Y-10845313D01*
X19116196Y-10833000D01*
X19999804Y-10833000D01*
X20124821Y-10845313D01*
X20124821Y-10845313D01*
G37*
G36*
X-10755179Y-10591313D02*
X-10755176Y-10591314D01*
X-10755175Y-10591314D01*
X-10594761Y-10639975D01*
X-10594759Y-10639976D01*
X-10594756Y-10639977D01*
X-10446922Y-10718995D01*
X-10317341Y-10825341D01*
X-10210995Y-10954922D01*
X-10131977Y-11102756D01*
X-10131976Y-11102759D01*
X-10131975Y-11102761D01*
X-10095242Y-11223853D01*
X-10083313Y-11263179D01*
X-10066883Y-11430000D01*
X-10083313Y-11596821D01*
X-10083314Y-11596824D01*
X-10083314Y-11596825D01*
X-10119619Y-11716508D01*
X-10131977Y-11757244D01*
X-10210995Y-11905078D01*
X-10317341Y-12034659D01*
X-10446922Y-12141005D01*
X-10594756Y-12220023D01*
X-10594759Y-12220024D01*
X-10594761Y-12220025D01*
X-10755175Y-12268686D01*
X-10755176Y-12268686D01*
X-10755179Y-12268687D01*
X-10880196Y-12281000D01*
X-10963804Y-12281000D01*
X-11088821Y-12268687D01*
X-11088824Y-12268686D01*
X-11088825Y-12268686D01*
X-11249239Y-12220025D01*
X-11249241Y-12220024D01*
X-11249244Y-12220023D01*
X-11397078Y-12141005D01*
X-11526659Y-12034659D01*
X-11633005Y-11905078D01*
X-11712023Y-11757244D01*
X-11724380Y-11716508D01*
X-11760686Y-11596825D01*
X-11760686Y-11596824D01*
X-11760687Y-11596821D01*
X-11777117Y-11430000D01*
X-11760687Y-11263179D01*
X-11748758Y-11223853D01*
X-11712025Y-11102761D01*
X-11712024Y-11102759D01*
X-11712023Y-11102756D01*
X-11633005Y-10954922D01*
X-11526659Y-10825341D01*
X-11397078Y-10718995D01*
X-11249244Y-10639977D01*
X-11249241Y-10639976D01*
X-11249239Y-10639975D01*
X-11088825Y-10591314D01*
X-11088824Y-10591314D01*
X-11088821Y-10591313D01*
X-10963804Y-10579000D01*
X-10880196Y-10579000D01*
X-10755179Y-10591313D01*
X-10755179Y-10591313D01*
G37*
G36*
X-20325772Y-10611703D02*
X-20170900Y-10675853D01*
X-20031519Y-10768985D01*
X-19912985Y-10887519D01*
X-19819853Y-11026900D01*
X-19755703Y-11181772D01*
X-19723000Y-11346184D01*
X-19723000Y-11513816D01*
X-19755703Y-11678228D01*
X-19819853Y-11833100D01*
X-19912985Y-11972481D01*
X-20031519Y-12091015D01*
X-20170900Y-12184147D01*
X-20325772Y-12248297D01*
X-20490184Y-12281000D01*
X-20657816Y-12281000D01*
X-20822228Y-12248297D01*
X-20977100Y-12184147D01*
X-21116481Y-12091015D01*
X-21235015Y-11972481D01*
X-21328147Y-11833100D01*
X-21392297Y-11678228D01*
X-21425000Y-11513816D01*
X-21425000Y-11346184D01*
X-21392297Y-11181772D01*
X-21328147Y-11026900D01*
X-21235015Y-10887519D01*
X-21116481Y-10768985D01*
X-20977100Y-10675853D01*
X-20822228Y-10611703D01*
X-20657816Y-10579000D01*
X-20490184Y-10579000D01*
X-20325772Y-10611703D01*
X-20325772Y-10611703D01*
G37*
G36*
X-17023772Y-10611703D02*
X-16868900Y-10675853D01*
X-16729519Y-10768985D01*
X-16610985Y-10887519D01*
X-16517853Y-11026900D01*
X-16453703Y-11181772D01*
X-16421000Y-11346184D01*
X-16421000Y-11513816D01*
X-16453703Y-11678228D01*
X-16517853Y-11833100D01*
X-16610985Y-11972481D01*
X-16729519Y-12091015D01*
X-16868900Y-12184147D01*
X-17023772Y-12248297D01*
X-17188184Y-12281000D01*
X-17355816Y-12281000D01*
X-17520228Y-12248297D01*
X-17675100Y-12184147D01*
X-17814481Y-12091015D01*
X-17933015Y-11972481D01*
X-18026147Y-11833100D01*
X-18090297Y-11678228D01*
X-18123000Y-11513816D01*
X-18123000Y-11346184D01*
X-18090297Y-11181772D01*
X-18026147Y-11026900D01*
X-17933015Y-10887519D01*
X-17814481Y-10768985D01*
X-17675100Y-10675853D01*
X-17520228Y-10611703D01*
X-17355816Y-10579000D01*
X-17188184Y-10579000D01*
X-17023772Y-10611703D01*
X-17023772Y-10611703D01*
G37*
G36*
X-13975772Y-10611703D02*
X-13820900Y-10675853D01*
X-13681519Y-10768985D01*
X-13562985Y-10887519D01*
X-13469853Y-11026900D01*
X-13405703Y-11181772D01*
X-13373000Y-11346184D01*
X-13373000Y-11513816D01*
X-13405703Y-11678228D01*
X-13469853Y-11833100D01*
X-13562985Y-11972481D01*
X-13681519Y-12091015D01*
X-13820900Y-12184147D01*
X-13975772Y-12248297D01*
X-14140184Y-12281000D01*
X-14307816Y-12281000D01*
X-14472228Y-12248297D01*
X-14627100Y-12184147D01*
X-14766481Y-12091015D01*
X-14885015Y-11972481D01*
X-14978147Y-11833100D01*
X-15042297Y-11678228D01*
X-15075000Y-11513816D01*
X-15075000Y-11346184D01*
X-15042297Y-11181772D01*
X-14978147Y-11026900D01*
X-14885015Y-10887519D01*
X-14766481Y-10768985D01*
X-14627100Y-10675853D01*
X-14472228Y-10611703D01*
X-14307816Y-10579000D01*
X-14140184Y-10579000D01*
X-13975772Y-10611703D01*
X-13975772Y-10611703D01*
G37*
G36*
X12504821Y-8305313D02*
X12504824Y-8305314D01*
X12504825Y-8305314D01*
X12665239Y-8353975D01*
X12665241Y-8353976D01*
X12665244Y-8353977D01*
X12813078Y-8432995D01*
X12942659Y-8539341D01*
X13049005Y-8668922D01*
X13128023Y-8816756D01*
X13176687Y-8977179D01*
X13193117Y-9144000D01*
X13176687Y-9310821D01*
X13128023Y-9471244D01*
X13049005Y-9619078D01*
X12942659Y-9748659D01*
X12813078Y-9855005D01*
X12665244Y-9934023D01*
X12665241Y-9934024D01*
X12665239Y-9934025D01*
X12504825Y-9982686D01*
X12504824Y-9982686D01*
X12504821Y-9982687D01*
X12379804Y-9995000D01*
X11496196Y-9995000D01*
X11371179Y-9982687D01*
X11371176Y-9982686D01*
X11371175Y-9982686D01*
X11210761Y-9934025D01*
X11210759Y-9934024D01*
X11210756Y-9934023D01*
X11062922Y-9855005D01*
X10933341Y-9748659D01*
X10826995Y-9619078D01*
X10747977Y-9471244D01*
X10699313Y-9310821D01*
X10682883Y-9144000D01*
X10699313Y-8977179D01*
X10747977Y-8816756D01*
X10826995Y-8668922D01*
X10933341Y-8539341D01*
X11062922Y-8432995D01*
X11210756Y-8353977D01*
X11210759Y-8353976D01*
X11210761Y-8353975D01*
X11371175Y-8305314D01*
X11371176Y-8305314D01*
X11371179Y-8305313D01*
X11496196Y-8293000D01*
X12379804Y-8293000D01*
X12504821Y-8305313D01*
X12504821Y-8305313D01*
G37*
G36*
X20124821Y-8305313D02*
X20124824Y-8305314D01*
X20124825Y-8305314D01*
X20285239Y-8353975D01*
X20285241Y-8353976D01*
X20285244Y-8353977D01*
X20433078Y-8432995D01*
X20562659Y-8539341D01*
X20669005Y-8668922D01*
X20748023Y-8816756D01*
X20796687Y-8977179D01*
X20813117Y-9144000D01*
X20796687Y-9310821D01*
X20748023Y-9471244D01*
X20669005Y-9619078D01*
X20562659Y-9748659D01*
X20433078Y-9855005D01*
X20285244Y-9934023D01*
X20285241Y-9934024D01*
X20285239Y-9934025D01*
X20124825Y-9982686D01*
X20124824Y-9982686D01*
X20124821Y-9982687D01*
X19999804Y-9995000D01*
X19116196Y-9995000D01*
X18991179Y-9982687D01*
X18991176Y-9982686D01*
X18991175Y-9982686D01*
X18830761Y-9934025D01*
X18830759Y-9934024D01*
X18830756Y-9934023D01*
X18682922Y-9855005D01*
X18553341Y-9748659D01*
X18446995Y-9619078D01*
X18367977Y-9471244D01*
X18319313Y-9310821D01*
X18302883Y-9144000D01*
X18319313Y-8977179D01*
X18367977Y-8816756D01*
X18446995Y-8668922D01*
X18553341Y-8539341D01*
X18682922Y-8432995D01*
X18830756Y-8353977D01*
X18830759Y-8353976D01*
X18830761Y-8353975D01*
X18991175Y-8305314D01*
X18991176Y-8305314D01*
X18991179Y-8305313D01*
X19116196Y-8293000D01*
X19999804Y-8293000D01*
X20124821Y-8305313D01*
X20124821Y-8305313D01*
G37*
G36*
X-27509331Y-4961686D02*
X-27332942Y-4979059D01*
X-27106615Y-5047714D01*
X-26993451Y-5082042D01*
X-26680575Y-5249279D01*
X-26406339Y-5474339D01*
X-26181279Y-5748575D01*
X-26014042Y-6061451D01*
X-26014042Y-6061452D01*
X-25911059Y-6400942D01*
X-25876286Y-6754000D01*
X-25911059Y-7107058D01*
X-25974139Y-7315004D01*
X-26014042Y-7446549D01*
X-26181279Y-7759425D01*
X-26406339Y-8033661D01*
X-26680575Y-8258721D01*
X-26993451Y-8425958D01*
X-27106615Y-8460286D01*
X-27332942Y-8528941D01*
X-27438536Y-8539341D01*
X-27597524Y-8555000D01*
X-27774476Y-8555000D01*
X-27933464Y-8539341D01*
X-28039058Y-8528941D01*
X-28265385Y-8460286D01*
X-28378549Y-8425958D01*
X-28691425Y-8258721D01*
X-28965661Y-8033661D01*
X-29190721Y-7759425D01*
X-29357958Y-7446549D01*
X-29397861Y-7315004D01*
X-29460941Y-7107058D01*
X-29495714Y-6754000D01*
X-29460941Y-6400942D01*
X-29357958Y-6061452D01*
X-29357958Y-6061451D01*
X-29190721Y-5748575D01*
X-28965661Y-5474339D01*
X-28691425Y-5249279D01*
X-28378549Y-5082042D01*
X-28265385Y-5047714D01*
X-28039058Y-4979059D01*
X-27862669Y-4961686D01*
X-27774476Y-4953000D01*
X-27597524Y-4953000D01*
X-27509331Y-4961686D01*
X-27509331Y-4961686D01*
G37*
G36*
X13189000Y-7455000D02*
X10687000Y-7455000D01*
X10687000Y-5753000D01*
X13189000Y-5753000D01*
X13189000Y-7455000D01*
X13189000Y-7455000D01*
G37*
G36*
X20124821Y-5765313D02*
X20124824Y-5765314D01*
X20124825Y-5765314D01*
X20285239Y-5813975D01*
X20285241Y-5813976D01*
X20285244Y-5813977D01*
X20433078Y-5892995D01*
X20562659Y-5999341D01*
X20669005Y-6128922D01*
X20748023Y-6276756D01*
X20796687Y-6437179D01*
X20813117Y-6604000D01*
X20796687Y-6770821D01*
X20748023Y-6931244D01*
X20669005Y-7079078D01*
X20562659Y-7208659D01*
X20433078Y-7315005D01*
X20285244Y-7394023D01*
X20285241Y-7394024D01*
X20285239Y-7394025D01*
X20124825Y-7442686D01*
X20124824Y-7442686D01*
X20124821Y-7442687D01*
X19999804Y-7455000D01*
X19116196Y-7455000D01*
X18991179Y-7442687D01*
X18991176Y-7442686D01*
X18991175Y-7442686D01*
X18830761Y-7394025D01*
X18830759Y-7394024D01*
X18830756Y-7394023D01*
X18682922Y-7315005D01*
X18553341Y-7208659D01*
X18446995Y-7079078D01*
X18367977Y-6931244D01*
X18319313Y-6770821D01*
X18302883Y-6604000D01*
X18319313Y-6437179D01*
X18367977Y-6276756D01*
X18446995Y-6128922D01*
X18553341Y-5999341D01*
X18682922Y-5892995D01*
X18830756Y-5813977D01*
X18830759Y-5813976D01*
X18830761Y-5813975D01*
X18991175Y-5765314D01*
X18991176Y-5765314D01*
X18991179Y-5765313D01*
X19116196Y-5753000D01*
X19999804Y-5753000D01*
X20124821Y-5765313D01*
X20124821Y-5765313D01*
G37*
G36*
X-17105179Y-431313D02*
X-17105176Y-431314D01*
X-17105175Y-431314D01*
X-16944761Y-479975D01*
X-16944759Y-479976D01*
X-16944756Y-479977D01*
X-16796922Y-558995D01*
X-16667341Y-665341D01*
X-16560995Y-794922D01*
X-16481977Y-942756D01*
X-16433313Y-1103179D01*
X-16416883Y-1270000D01*
X-16433313Y-1436821D01*
X-16481977Y-1597244D01*
X-16560995Y-1745078D01*
X-16667341Y-1874659D01*
X-16796922Y-1981005D01*
X-16944756Y-2060023D01*
X-16944759Y-2060024D01*
X-16944761Y-2060025D01*
X-17105175Y-2108686D01*
X-17105176Y-2108686D01*
X-17105179Y-2108687D01*
X-17230196Y-2121000D01*
X-17313804Y-2121000D01*
X-17438821Y-2108687D01*
X-17438824Y-2108686D01*
X-17438825Y-2108686D01*
X-17599239Y-2060025D01*
X-17599241Y-2060024D01*
X-17599244Y-2060023D01*
X-17747078Y-1981005D01*
X-17876659Y-1874659D01*
X-17983005Y-1745078D01*
X-18062023Y-1597244D01*
X-18110687Y-1436821D01*
X-18127117Y-1270000D01*
X-18110687Y-1103179D01*
X-18062023Y-942756D01*
X-17983005Y-794922D01*
X-17876659Y-665341D01*
X-17747078Y-558995D01*
X-17599244Y-479977D01*
X-17599241Y-479976D01*
X-17599239Y-479975D01*
X-17438825Y-431314D01*
X-17438824Y-431314D01*
X-17438821Y-431313D01*
X-17313804Y-419000D01*
X-17230196Y-419000D01*
X-17105179Y-431313D01*
X-17105179Y-431313D01*
G37*
G36*
X-20407179Y-431313D02*
X-20407176Y-431314D01*
X-20407175Y-431314D01*
X-20246761Y-479975D01*
X-20246759Y-479976D01*
X-20246756Y-479977D01*
X-20098922Y-558995D01*
X-19969341Y-665341D01*
X-19862995Y-794922D01*
X-19783977Y-942756D01*
X-19735313Y-1103179D01*
X-19718883Y-1270000D01*
X-19735313Y-1436821D01*
X-19783977Y-1597244D01*
X-19862995Y-1745078D01*
X-19969341Y-1874659D01*
X-20098922Y-1981005D01*
X-20246756Y-2060023D01*
X-20246759Y-2060024D01*
X-20246761Y-2060025D01*
X-20407175Y-2108686D01*
X-20407176Y-2108686D01*
X-20407179Y-2108687D01*
X-20532196Y-2121000D01*
X-20615804Y-2121000D01*
X-20740821Y-2108687D01*
X-20740824Y-2108686D01*
X-20740825Y-2108686D01*
X-20901239Y-2060025D01*
X-20901241Y-2060024D01*
X-20901244Y-2060023D01*
X-21049078Y-1981005D01*
X-21178659Y-1874659D01*
X-21285005Y-1745078D01*
X-21364023Y-1597244D01*
X-21412687Y-1436821D01*
X-21429117Y-1270000D01*
X-21412687Y-1103179D01*
X-21364023Y-942756D01*
X-21285005Y-794922D01*
X-21178659Y-665341D01*
X-21049078Y-558995D01*
X-20901244Y-479977D01*
X-20901241Y-479976D01*
X-20901239Y-479975D01*
X-20740825Y-431314D01*
X-20740824Y-431314D01*
X-20740821Y-431313D01*
X-20615804Y-419000D01*
X-20532196Y-419000D01*
X-20407179Y-431313D01*
X-20407179Y-431313D01*
G37*
G36*
X12977396Y5740454D02*
X13150466Y5668766D01*
X13306230Y5564688D01*
X13438688Y5432230D01*
X13542766Y5276466D01*
X13614454Y5103396D01*
X13651000Y4919667D01*
X13651000Y4732333D01*
X13614454Y4548604D01*
X13542766Y4375534D01*
X13438688Y4219770D01*
X13306230Y4087312D01*
X13150466Y3983234D01*
X12977396Y3911546D01*
X12793667Y3875000D01*
X12606333Y3875000D01*
X12422604Y3911546D01*
X12249534Y3983234D01*
X12093770Y4087312D01*
X11961312Y4219770D01*
X11857234Y4375534D01*
X11785546Y4548604D01*
X11749000Y4732333D01*
X11749000Y4919667D01*
X11785546Y5103396D01*
X11857234Y5276466D01*
X11961312Y5432230D01*
X12093770Y5564688D01*
X12249534Y5668766D01*
X12422604Y5740454D01*
X12606333Y5777000D01*
X12793667Y5777000D01*
X12977396Y5740454D01*
X12977396Y5740454D01*
G37*
G36*
X-9882604Y5740454D02*
X-9709534Y5668766D01*
X-9553770Y5564688D01*
X-9421312Y5432230D01*
X-9317234Y5276466D01*
X-9245546Y5103396D01*
X-9209000Y4919667D01*
X-9209000Y4732333D01*
X-9245546Y4548604D01*
X-9317234Y4375534D01*
X-9421312Y4219770D01*
X-9553770Y4087312D01*
X-9709534Y3983234D01*
X-9882604Y3911546D01*
X-10066333Y3875000D01*
X-10253667Y3875000D01*
X-10437396Y3911546D01*
X-10610466Y3983234D01*
X-10766230Y4087312D01*
X-10898688Y4219770D01*
X-11002766Y4375534D01*
X-11074454Y4548604D01*
X-11111000Y4732333D01*
X-11111000Y4919667D01*
X-11074454Y5103396D01*
X-11002766Y5276466D01*
X-10898688Y5432230D01*
X-10766230Y5564688D01*
X-10610466Y5668766D01*
X-10437396Y5740454D01*
X-10253667Y5777000D01*
X-10066333Y5777000D01*
X-9882604Y5740454D01*
X-9882604Y5740454D01*
G37*
G36*
X-14367558Y5720482D02*
X-14301373Y5713963D01*
X-14188147Y5679616D01*
X-14131533Y5662443D01*
X-13992913Y5588348D01*
X-13975009Y5578778D01*
X-13939271Y5549448D01*
X-13837814Y5466186D01*
X-13754552Y5364729D01*
X-13725222Y5328991D01*
X-13725221Y5328989D01*
X-13641557Y5172467D01*
X-13641557Y5172466D01*
X-13590037Y5002627D01*
X-13572641Y4826000D01*
X-13590037Y4649373D01*
X-13620605Y4548604D01*
X-13641557Y4479533D01*
X-13697147Y4375533D01*
X-13725222Y4323009D01*
X-13754552Y4287271D01*
X-13837814Y4185814D01*
X-13939271Y4102552D01*
X-13975009Y4073222D01*
X-13975011Y4073221D01*
X-14131533Y3989557D01*
X-14152378Y3983234D01*
X-14301373Y3938037D01*
X-14367558Y3931518D01*
X-14433740Y3925000D01*
X-14522260Y3925000D01*
X-14588442Y3931518D01*
X-14654627Y3938037D01*
X-14803622Y3983234D01*
X-14824467Y3989557D01*
X-14980989Y4073221D01*
X-14980991Y4073222D01*
X-15016729Y4102552D01*
X-15118186Y4185814D01*
X-15201448Y4287271D01*
X-15230778Y4323009D01*
X-15258853Y4375533D01*
X-15314443Y4479533D01*
X-15335395Y4548604D01*
X-15365963Y4649373D01*
X-15383359Y4826000D01*
X-15365963Y5002627D01*
X-15314443Y5172466D01*
X-15314443Y5172467D01*
X-15230779Y5328989D01*
X-15230778Y5328991D01*
X-15201448Y5364729D01*
X-15118186Y5466186D01*
X-15016729Y5549448D01*
X-14980991Y5578778D01*
X-14963087Y5588348D01*
X-14824467Y5662443D01*
X-14767853Y5679616D01*
X-14654627Y5713963D01*
X-14588442Y5720482D01*
X-14522260Y5727000D01*
X-14433740Y5727000D01*
X-14367558Y5720482D01*
X-14367558Y5720482D01*
G37*
G36*
X17128442Y5720482D02*
X17194627Y5713963D01*
X17307853Y5679616D01*
X17364467Y5662443D01*
X17503087Y5588348D01*
X17520991Y5578778D01*
X17556729Y5549448D01*
X17658186Y5466186D01*
X17741448Y5364729D01*
X17770778Y5328991D01*
X17770779Y5328989D01*
X17854443Y5172467D01*
X17854443Y5172466D01*
X17905963Y5002627D01*
X17923359Y4826000D01*
X17905963Y4649373D01*
X17875395Y4548604D01*
X17854443Y4479533D01*
X17798853Y4375533D01*
X17770778Y4323009D01*
X17741448Y4287271D01*
X17658186Y4185814D01*
X17556729Y4102552D01*
X17520991Y4073222D01*
X17520989Y4073221D01*
X17364467Y3989557D01*
X17343622Y3983234D01*
X17194627Y3938037D01*
X17128442Y3931518D01*
X17062260Y3925000D01*
X16973740Y3925000D01*
X16907558Y3931518D01*
X16841373Y3938037D01*
X16692378Y3983234D01*
X16671533Y3989557D01*
X16515011Y4073221D01*
X16515009Y4073222D01*
X16479271Y4102552D01*
X16377814Y4185814D01*
X16294552Y4287271D01*
X16265222Y4323009D01*
X16237147Y4375533D01*
X16181557Y4479533D01*
X16160605Y4548604D01*
X16130037Y4649373D01*
X16112641Y4826000D01*
X16130037Y5002627D01*
X16181557Y5172466D01*
X16181557Y5172467D01*
X16265221Y5328989D01*
X16265222Y5328991D01*
X16294552Y5364729D01*
X16377814Y5466186D01*
X16479271Y5549448D01*
X16515009Y5578778D01*
X16532913Y5588348D01*
X16671533Y5662443D01*
X16728147Y5679616D01*
X16841373Y5713963D01*
X16907558Y5720482D01*
X16973740Y5727000D01*
X17062260Y5727000D01*
X17128442Y5720482D01*
X17128442Y5720482D01*
G37*
G36*
X12977396Y8280454D02*
X13150466Y8208766D01*
X13306230Y8104688D01*
X13438688Y7972230D01*
X13542766Y7816466D01*
X13614454Y7643396D01*
X13651000Y7459667D01*
X13651000Y7272333D01*
X13614454Y7088604D01*
X13542766Y6915534D01*
X13438688Y6759770D01*
X13306230Y6627312D01*
X13150466Y6523234D01*
X12977396Y6451546D01*
X12793667Y6415000D01*
X12606333Y6415000D01*
X12422604Y6451546D01*
X12249534Y6523234D01*
X12093770Y6627312D01*
X11961312Y6759770D01*
X11857234Y6915534D01*
X11785546Y7088604D01*
X11749000Y7272333D01*
X11749000Y7459667D01*
X11785546Y7643396D01*
X11857234Y7816466D01*
X11961312Y7972230D01*
X12093770Y8104688D01*
X12249534Y8208766D01*
X12422604Y8280454D01*
X12606333Y8317000D01*
X12793667Y8317000D01*
X12977396Y8280454D01*
X12977396Y8280454D01*
G37*
G36*
X-9882604Y8280454D02*
X-9709534Y8208766D01*
X-9553770Y8104688D01*
X-9421312Y7972230D01*
X-9317234Y7816466D01*
X-9245546Y7643396D01*
X-9209000Y7459667D01*
X-9209000Y7272333D01*
X-9245546Y7088604D01*
X-9317234Y6915534D01*
X-9421312Y6759770D01*
X-9553770Y6627312D01*
X-9709534Y6523234D01*
X-9882604Y6451546D01*
X-10066333Y6415000D01*
X-10253667Y6415000D01*
X-10437396Y6451546D01*
X-10610466Y6523234D01*
X-10766230Y6627312D01*
X-10898688Y6759770D01*
X-11002766Y6915534D01*
X-11074454Y7088604D01*
X-11111000Y7272333D01*
X-11111000Y7459667D01*
X-11074454Y7643396D01*
X-11002766Y7816466D01*
X-10898688Y7972230D01*
X-10766230Y8104688D01*
X-10610466Y8208766D01*
X-10437396Y8280454D01*
X-10253667Y8317000D01*
X-10066333Y8317000D01*
X-9882604Y8280454D01*
X-9882604Y8280454D01*
G37*
G36*
X-14367557Y8260481D02*
X-14301373Y8253963D01*
X-14188147Y8219616D01*
X-14131533Y8202443D01*
X-13992913Y8128348D01*
X-13975009Y8118778D01*
X-13939271Y8089448D01*
X-13837814Y8006186D01*
X-13754552Y7904729D01*
X-13725222Y7868991D01*
X-13725221Y7868989D01*
X-13641557Y7712467D01*
X-13641557Y7712466D01*
X-13590037Y7542627D01*
X-13572641Y7366000D01*
X-13590037Y7189373D01*
X-13620605Y7088604D01*
X-13641557Y7019533D01*
X-13697147Y6915533D01*
X-13725222Y6863009D01*
X-13754552Y6827271D01*
X-13837814Y6725814D01*
X-13939271Y6642552D01*
X-13975009Y6613222D01*
X-13975011Y6613221D01*
X-14131533Y6529557D01*
X-14152378Y6523234D01*
X-14301373Y6478037D01*
X-14367557Y6471519D01*
X-14433740Y6465000D01*
X-14522260Y6465000D01*
X-14588443Y6471519D01*
X-14654627Y6478037D01*
X-14803622Y6523234D01*
X-14824467Y6529557D01*
X-14980989Y6613221D01*
X-14980991Y6613222D01*
X-15016729Y6642552D01*
X-15118186Y6725814D01*
X-15201448Y6827271D01*
X-15230778Y6863009D01*
X-15258853Y6915533D01*
X-15314443Y7019533D01*
X-15335395Y7088604D01*
X-15365963Y7189373D01*
X-15383359Y7366000D01*
X-15365963Y7542627D01*
X-15314443Y7712466D01*
X-15314443Y7712467D01*
X-15230779Y7868989D01*
X-15230778Y7868991D01*
X-15201448Y7904729D01*
X-15118186Y8006186D01*
X-15016729Y8089448D01*
X-14980991Y8118778D01*
X-14963087Y8128348D01*
X-14824467Y8202443D01*
X-14767853Y8219616D01*
X-14654627Y8253963D01*
X-14588443Y8260481D01*
X-14522260Y8267000D01*
X-14433740Y8267000D01*
X-14367557Y8260481D01*
X-14367557Y8260481D01*
G37*
G36*
X17128443Y8260481D02*
X17194627Y8253963D01*
X17307853Y8219616D01*
X17364467Y8202443D01*
X17503087Y8128348D01*
X17520991Y8118778D01*
X17556729Y8089448D01*
X17658186Y8006186D01*
X17741448Y7904729D01*
X17770778Y7868991D01*
X17770779Y7868989D01*
X17854443Y7712467D01*
X17854443Y7712466D01*
X17905963Y7542627D01*
X17923359Y7366000D01*
X17905963Y7189373D01*
X17875395Y7088604D01*
X17854443Y7019533D01*
X17798853Y6915533D01*
X17770778Y6863009D01*
X17741448Y6827271D01*
X17658186Y6725814D01*
X17556729Y6642552D01*
X17520991Y6613222D01*
X17520989Y6613221D01*
X17364467Y6529557D01*
X17343622Y6523234D01*
X17194627Y6478037D01*
X17128443Y6471519D01*
X17062260Y6465000D01*
X16973740Y6465000D01*
X16907557Y6471519D01*
X16841373Y6478037D01*
X16692378Y6523234D01*
X16671533Y6529557D01*
X16515011Y6613221D01*
X16515009Y6613222D01*
X16479271Y6642552D01*
X16377814Y6725814D01*
X16294552Y6827271D01*
X16265222Y6863009D01*
X16237147Y6915533D01*
X16181557Y7019533D01*
X16160605Y7088604D01*
X16130037Y7189373D01*
X16112641Y7366000D01*
X16130037Y7542627D01*
X16181557Y7712466D01*
X16181557Y7712467D01*
X16265221Y7868989D01*
X16265222Y7868991D01*
X16294552Y7904729D01*
X16377814Y8006186D01*
X16479271Y8089448D01*
X16515009Y8118778D01*
X16532913Y8128348D01*
X16671533Y8202443D01*
X16728147Y8219616D01*
X16841373Y8253963D01*
X16907557Y8260481D01*
X16973740Y8267000D01*
X17062260Y8267000D01*
X17128443Y8260481D01*
X17128443Y8260481D01*
G37*
G36*
X-30029280Y10942480D02*
X-29840119Y10885099D01*
X-29665788Y10791917D01*
X-29512985Y10666515D01*
X-29387583Y10513712D01*
X-29294401Y10339380D01*
X-29237020Y10150219D01*
X-29222500Y10002793D01*
X-29222500Y9809206D01*
X-29237020Y9661780D01*
X-29294401Y9472619D01*
X-29387583Y9298288D01*
X-29512985Y9145485D01*
X-29665788Y9020083D01*
X-29840120Y8926901D01*
X-30029281Y8869520D01*
X-30226000Y8850145D01*
X-30422720Y8869520D01*
X-30611881Y8926901D01*
X-30786212Y9020083D01*
X-30939015Y9145485D01*
X-31064417Y9298288D01*
X-31157599Y9472620D01*
X-31214980Y9661781D01*
X-31229500Y9809207D01*
X-31229500Y10002794D01*
X-31214980Y10150220D01*
X-31157599Y10339381D01*
X-31064417Y10513712D01*
X-30939015Y10666515D01*
X-30786212Y10791917D01*
X-30611880Y10885099D01*
X-30422719Y10942480D01*
X-30226000Y10961855D01*
X-30029280Y10942480D01*
X-30029280Y10942480D01*
G37*
G36*
X-27489280Y10942480D02*
X-27300119Y10885099D01*
X-27125788Y10791917D01*
X-26972985Y10666515D01*
X-26847583Y10513712D01*
X-26754401Y10339380D01*
X-26697020Y10150219D01*
X-26682500Y10002793D01*
X-26682500Y9809206D01*
X-26697020Y9661780D01*
X-26754401Y9472619D01*
X-26847583Y9298288D01*
X-26972985Y9145485D01*
X-27125788Y9020083D01*
X-27300120Y8926901D01*
X-27489281Y8869520D01*
X-27686000Y8850145D01*
X-27882720Y8869520D01*
X-28071881Y8926901D01*
X-28246212Y9020083D01*
X-28399015Y9145485D01*
X-28524417Y9298288D01*
X-28617599Y9472620D01*
X-28674980Y9661781D01*
X-28689500Y9809207D01*
X-28689500Y10002794D01*
X-28674980Y10150220D01*
X-28617599Y10339381D01*
X-28524417Y10513712D01*
X-28399015Y10666515D01*
X-28246212Y10791917D01*
X-28071880Y10885099D01*
X-27882719Y10942480D01*
X-27686000Y10961855D01*
X-27489280Y10942480D01*
X-27489280Y10942480D01*
G37*
G36*
X-24142500Y8855000D02*
X-26149500Y8855000D01*
X-26149500Y10957000D01*
X-24142500Y10957000D01*
X-24142500Y8855000D01*
X-24142500Y8855000D01*
G37*
G36*
X-9882604Y10820454D02*
X-9709534Y10748766D01*
X-9553770Y10644688D01*
X-9421312Y10512230D01*
X-9317234Y10356466D01*
X-9245546Y10183396D01*
X-9209000Y9999667D01*
X-9209000Y9812333D01*
X-9245546Y9628604D01*
X-9317234Y9455534D01*
X-9421312Y9299770D01*
X-9553770Y9167312D01*
X-9709534Y9063234D01*
X-9882604Y8991546D01*
X-10066333Y8955000D01*
X-10253667Y8955000D01*
X-10437396Y8991546D01*
X-10610466Y9063234D01*
X-10766230Y9167312D01*
X-10898688Y9299770D01*
X-11002766Y9455534D01*
X-11074454Y9628604D01*
X-11111000Y9812333D01*
X-11111000Y9999667D01*
X-11074454Y10183396D01*
X-11002766Y10356466D01*
X-10898688Y10512230D01*
X-10766230Y10644688D01*
X-10610466Y10748766D01*
X-10437396Y10820454D01*
X-10253667Y10857000D01*
X-10066333Y10857000D01*
X-9882604Y10820454D01*
X-9882604Y10820454D01*
G37*
G36*
X12977396Y10820454D02*
X13150466Y10748766D01*
X13306230Y10644688D01*
X13438688Y10512230D01*
X13542766Y10356466D01*
X13614454Y10183396D01*
X13651000Y9999667D01*
X13651000Y9812333D01*
X13614454Y9628604D01*
X13542766Y9455534D01*
X13438688Y9299770D01*
X13306230Y9167312D01*
X13150466Y9063234D01*
X12977396Y8991546D01*
X12793667Y8955000D01*
X12606333Y8955000D01*
X12422604Y8991546D01*
X12249534Y9063234D01*
X12093770Y9167312D01*
X11961312Y9299770D01*
X11857234Y9455534D01*
X11785546Y9628604D01*
X11749000Y9812333D01*
X11749000Y9999667D01*
X11785546Y10183396D01*
X11857234Y10356466D01*
X11961312Y10512230D01*
X12093770Y10644688D01*
X12249534Y10748766D01*
X12422604Y10820454D01*
X12606333Y10857000D01*
X12793667Y10857000D01*
X12977396Y10820454D01*
X12977396Y10820454D01*
G37*
G36*
X17128442Y10800482D02*
X17194627Y10793963D01*
X17307853Y10759616D01*
X17364467Y10742443D01*
X17503087Y10668348D01*
X17520991Y10658778D01*
X17556729Y10629448D01*
X17658186Y10546186D01*
X17741448Y10444729D01*
X17770778Y10408991D01*
X17770779Y10408989D01*
X17854443Y10252467D01*
X17854443Y10252466D01*
X17905963Y10082627D01*
X17923359Y9906000D01*
X17905963Y9729373D01*
X17885460Y9661784D01*
X17854443Y9559533D01*
X17798853Y9455533D01*
X17770778Y9403009D01*
X17741448Y9367271D01*
X17658186Y9265814D01*
X17556729Y9182552D01*
X17520991Y9153222D01*
X17520989Y9153221D01*
X17364467Y9069557D01*
X17343622Y9063234D01*
X17194627Y9018037D01*
X17128442Y9011518D01*
X17062260Y9005000D01*
X16973740Y9005000D01*
X16907557Y9011519D01*
X16841373Y9018037D01*
X16692378Y9063234D01*
X16671533Y9069557D01*
X16515011Y9153221D01*
X16515009Y9153222D01*
X16479271Y9182552D01*
X16377814Y9265814D01*
X16294552Y9367271D01*
X16265222Y9403009D01*
X16237147Y9455533D01*
X16181557Y9559533D01*
X16150540Y9661784D01*
X16130037Y9729373D01*
X16112641Y9906000D01*
X16130037Y10082627D01*
X16181557Y10252466D01*
X16181557Y10252467D01*
X16265221Y10408989D01*
X16265222Y10408991D01*
X16294552Y10444729D01*
X16377814Y10546186D01*
X16479271Y10629448D01*
X16515009Y10658778D01*
X16532913Y10668348D01*
X16671533Y10742443D01*
X16728147Y10759616D01*
X16841373Y10793963D01*
X16907558Y10800482D01*
X16973740Y10807000D01*
X17062260Y10807000D01*
X17128442Y10800482D01*
X17128442Y10800482D01*
G37*
G36*
X-14367558Y10800482D02*
X-14301373Y10793963D01*
X-14188147Y10759616D01*
X-14131533Y10742443D01*
X-13992913Y10668348D01*
X-13975009Y10658778D01*
X-13939271Y10629448D01*
X-13837814Y10546186D01*
X-13754552Y10444729D01*
X-13725222Y10408991D01*
X-13725221Y10408989D01*
X-13641557Y10252467D01*
X-13641557Y10252466D01*
X-13590037Y10082627D01*
X-13572641Y9906000D01*
X-13590037Y9729373D01*
X-13610540Y9661784D01*
X-13641557Y9559533D01*
X-13697147Y9455533D01*
X-13725222Y9403009D01*
X-13754552Y9367271D01*
X-13837814Y9265814D01*
X-13939271Y9182552D01*
X-13975009Y9153222D01*
X-13975011Y9153221D01*
X-14131533Y9069557D01*
X-14152378Y9063234D01*
X-14301373Y9018037D01*
X-14367557Y9011519D01*
X-14433740Y9005000D01*
X-14522260Y9005000D01*
X-14588443Y9011519D01*
X-14654627Y9018037D01*
X-14803622Y9063234D01*
X-14824467Y9069557D01*
X-14980989Y9153221D01*
X-14980991Y9153222D01*
X-15016729Y9182552D01*
X-15118186Y9265814D01*
X-15201448Y9367271D01*
X-15230778Y9403009D01*
X-15258853Y9455533D01*
X-15314443Y9559533D01*
X-15345460Y9661784D01*
X-15365963Y9729373D01*
X-15383359Y9906000D01*
X-15365963Y10082627D01*
X-15314443Y10252466D01*
X-15314443Y10252467D01*
X-15230779Y10408989D01*
X-15230778Y10408991D01*
X-15201448Y10444729D01*
X-15118186Y10546186D01*
X-15016729Y10629448D01*
X-14980991Y10658778D01*
X-14963087Y10668348D01*
X-14824467Y10742443D01*
X-14767853Y10759616D01*
X-14654627Y10793963D01*
X-14588442Y10800482D01*
X-14522260Y10807000D01*
X-14433740Y10807000D01*
X-14367558Y10800482D01*
X-14367558Y10800482D01*
G37*
G36*
X12977396Y13360454D02*
X13150466Y13288766D01*
X13306230Y13184688D01*
X13438688Y13052230D01*
X13542766Y12896466D01*
X13614454Y12723396D01*
X13651000Y12539667D01*
X13651000Y12352333D01*
X13614454Y12168604D01*
X13542766Y11995534D01*
X13438688Y11839770D01*
X13306230Y11707312D01*
X13150466Y11603234D01*
X12977396Y11531546D01*
X12793667Y11495000D01*
X12606333Y11495000D01*
X12422604Y11531546D01*
X12249534Y11603234D01*
X12093770Y11707312D01*
X11961312Y11839770D01*
X11857234Y11995534D01*
X11785546Y12168604D01*
X11749000Y12352333D01*
X11749000Y12539667D01*
X11785546Y12723396D01*
X11857234Y12896466D01*
X11961312Y13052230D01*
X12093770Y13184688D01*
X12249534Y13288766D01*
X12422604Y13360454D01*
X12606333Y13397000D01*
X12793667Y13397000D01*
X12977396Y13360454D01*
X12977396Y13360454D01*
G37*
G36*
X-9882604Y13360454D02*
X-9709534Y13288766D01*
X-9553770Y13184688D01*
X-9421312Y13052230D01*
X-9317234Y12896466D01*
X-9245546Y12723396D01*
X-9209000Y12539667D01*
X-9209000Y12352333D01*
X-9245546Y12168604D01*
X-9317234Y11995534D01*
X-9421312Y11839770D01*
X-9553770Y11707312D01*
X-9709534Y11603234D01*
X-9882604Y11531546D01*
X-10066333Y11495000D01*
X-10253667Y11495000D01*
X-10437396Y11531546D01*
X-10610466Y11603234D01*
X-10766230Y11707312D01*
X-10898688Y11839770D01*
X-11002766Y11995534D01*
X-11074454Y12168604D01*
X-11111000Y12352333D01*
X-11111000Y12539667D01*
X-11074454Y12723396D01*
X-11002766Y12896466D01*
X-10898688Y13052230D01*
X-10766230Y13184688D01*
X-10610466Y13288766D01*
X-10437396Y13360454D01*
X-10253667Y13397000D01*
X-10066333Y13397000D01*
X-9882604Y13360454D01*
X-9882604Y13360454D01*
G37*
G36*
X17128443Y13340481D02*
X17194627Y13333963D01*
X17307853Y13299616D01*
X17364467Y13282443D01*
X17503087Y13208348D01*
X17520991Y13198778D01*
X17556729Y13169448D01*
X17658186Y13086186D01*
X17741448Y12984729D01*
X17770778Y12948991D01*
X17770779Y12948989D01*
X17854443Y12792467D01*
X17854443Y12792466D01*
X17905963Y12622627D01*
X17923359Y12446000D01*
X17905963Y12269373D01*
X17875395Y12168604D01*
X17854443Y12099533D01*
X17798853Y11995533D01*
X17770778Y11943009D01*
X17741448Y11907271D01*
X17658186Y11805814D01*
X17556729Y11722552D01*
X17520991Y11693222D01*
X17520989Y11693221D01*
X17364467Y11609557D01*
X17343622Y11603234D01*
X17194627Y11558037D01*
X17128442Y11551518D01*
X17062260Y11545000D01*
X16973740Y11545000D01*
X16907558Y11551518D01*
X16841373Y11558037D01*
X16692378Y11603234D01*
X16671533Y11609557D01*
X16515011Y11693221D01*
X16515009Y11693222D01*
X16479271Y11722552D01*
X16377814Y11805814D01*
X16294552Y11907271D01*
X16265222Y11943009D01*
X16237147Y11995533D01*
X16181557Y12099533D01*
X16160605Y12168604D01*
X16130037Y12269373D01*
X16112641Y12446000D01*
X16130037Y12622627D01*
X16181557Y12792466D01*
X16181557Y12792467D01*
X16265221Y12948989D01*
X16265222Y12948991D01*
X16294552Y12984729D01*
X16377814Y13086186D01*
X16479271Y13169448D01*
X16515009Y13198778D01*
X16532913Y13208348D01*
X16671533Y13282443D01*
X16728147Y13299616D01*
X16841373Y13333963D01*
X16907557Y13340481D01*
X16973740Y13347000D01*
X17062260Y13347000D01*
X17128443Y13340481D01*
X17128443Y13340481D01*
G37*
G36*
X-14367557Y13340481D02*
X-14301373Y13333963D01*
X-14188147Y13299616D01*
X-14131533Y13282443D01*
X-13992913Y13208348D01*
X-13975009Y13198778D01*
X-13939271Y13169448D01*
X-13837814Y13086186D01*
X-13754552Y12984729D01*
X-13725222Y12948991D01*
X-13725221Y12948989D01*
X-13641557Y12792467D01*
X-13641557Y12792466D01*
X-13590037Y12622627D01*
X-13572641Y12446000D01*
X-13590037Y12269373D01*
X-13620605Y12168604D01*
X-13641557Y12099533D01*
X-13697147Y11995533D01*
X-13725222Y11943009D01*
X-13754552Y11907271D01*
X-13837814Y11805814D01*
X-13939271Y11722552D01*
X-13975009Y11693222D01*
X-13975011Y11693221D01*
X-14131533Y11609557D01*
X-14152378Y11603234D01*
X-14301373Y11558037D01*
X-14367558Y11551518D01*
X-14433740Y11545000D01*
X-14522260Y11545000D01*
X-14588442Y11551518D01*
X-14654627Y11558037D01*
X-14803622Y11603234D01*
X-14824467Y11609557D01*
X-14980989Y11693221D01*
X-14980991Y11693222D01*
X-15016729Y11722552D01*
X-15118186Y11805814D01*
X-15201448Y11907271D01*
X-15230778Y11943009D01*
X-15258853Y11995533D01*
X-15314443Y12099533D01*
X-15335395Y12168604D01*
X-15365963Y12269373D01*
X-15383359Y12446000D01*
X-15365963Y12622627D01*
X-15314443Y12792466D01*
X-15314443Y12792467D01*
X-15230779Y12948989D01*
X-15230778Y12948991D01*
X-15201448Y12984729D01*
X-15118186Y13086186D01*
X-15016729Y13169448D01*
X-14980991Y13198778D01*
X-14963087Y13208348D01*
X-14824467Y13282443D01*
X-14767853Y13299616D01*
X-14654627Y13333963D01*
X-14588443Y13340481D01*
X-14522260Y13347000D01*
X-14433740Y13347000D01*
X-14367557Y13340481D01*
X-14367557Y13340481D01*
G37*
G36*
X27034443Y14102481D02*
X27100627Y14095963D01*
X27181119Y14071546D01*
X27270467Y14044443D01*
X27409087Y13970348D01*
X27426991Y13960778D01*
X27462729Y13931448D01*
X27564186Y13848186D01*
X27647448Y13746729D01*
X27676778Y13710991D01*
X27676779Y13710989D01*
X27760443Y13554467D01*
X27760443Y13554466D01*
X27811963Y13384627D01*
X27829359Y13208000D01*
X27811963Y13031373D01*
X27786973Y12948991D01*
X27760443Y12861533D01*
X27723526Y12792467D01*
X27676778Y12705009D01*
X27647448Y12669271D01*
X27564186Y12567814D01*
X27462729Y12484552D01*
X27426991Y12455222D01*
X27426989Y12455221D01*
X27270467Y12371557D01*
X27213853Y12354384D01*
X27100627Y12320037D01*
X27034443Y12313519D01*
X26968260Y12307000D01*
X26879740Y12307000D01*
X26813557Y12313519D01*
X26747373Y12320037D01*
X26634147Y12354384D01*
X26577533Y12371557D01*
X26421011Y12455221D01*
X26421009Y12455222D01*
X26385271Y12484552D01*
X26283814Y12567814D01*
X26200552Y12669271D01*
X26171222Y12705009D01*
X26124474Y12792467D01*
X26087557Y12861533D01*
X26061027Y12948991D01*
X26036037Y13031373D01*
X26018641Y13208000D01*
X26036037Y13384627D01*
X26087557Y13554466D01*
X26087557Y13554467D01*
X26171221Y13710989D01*
X26171222Y13710991D01*
X26200552Y13746729D01*
X26283814Y13848186D01*
X26385271Y13931448D01*
X26421009Y13960778D01*
X26438913Y13970348D01*
X26577533Y14044443D01*
X26666881Y14071546D01*
X26747373Y14095963D01*
X26813557Y14102481D01*
X26879740Y14109000D01*
X26968260Y14109000D01*
X27034443Y14102481D01*
X27034443Y14102481D01*
G37*
G36*
X24494443Y14102481D02*
X24560627Y14095963D01*
X24641119Y14071546D01*
X24730467Y14044443D01*
X24869087Y13970348D01*
X24886991Y13960778D01*
X24922729Y13931448D01*
X25024186Y13848186D01*
X25107448Y13746729D01*
X25136778Y13710991D01*
X25136779Y13710989D01*
X25220443Y13554467D01*
X25220443Y13554466D01*
X25271963Y13384627D01*
X25289359Y13208000D01*
X25271963Y13031373D01*
X25246973Y12948991D01*
X25220443Y12861533D01*
X25183526Y12792467D01*
X25136778Y12705009D01*
X25107448Y12669271D01*
X25024186Y12567814D01*
X24922729Y12484552D01*
X24886991Y12455222D01*
X24886989Y12455221D01*
X24730467Y12371557D01*
X24673853Y12354384D01*
X24560627Y12320037D01*
X24494443Y12313519D01*
X24428260Y12307000D01*
X24339740Y12307000D01*
X24273557Y12313519D01*
X24207373Y12320037D01*
X24094147Y12354384D01*
X24037533Y12371557D01*
X23881011Y12455221D01*
X23881009Y12455222D01*
X23845271Y12484552D01*
X23743814Y12567814D01*
X23660552Y12669271D01*
X23631222Y12705009D01*
X23584474Y12792467D01*
X23547557Y12861533D01*
X23521027Y12948991D01*
X23496037Y13031373D01*
X23478641Y13208000D01*
X23496037Y13384627D01*
X23547557Y13554466D01*
X23547557Y13554467D01*
X23631221Y13710989D01*
X23631222Y13710991D01*
X23660552Y13746729D01*
X23743814Y13848186D01*
X23845271Y13931448D01*
X23881009Y13960778D01*
X23898913Y13970348D01*
X24037533Y14044443D01*
X24126881Y14071546D01*
X24207373Y14095963D01*
X24273557Y14102481D01*
X24339740Y14109000D01*
X24428260Y14109000D01*
X24494443Y14102481D01*
X24494443Y14102481D01*
G37*
G36*
X30365000Y12307000D02*
X28563000Y12307000D01*
X28563000Y14109000D01*
X30365000Y14109000D01*
X30365000Y12307000D01*
X30365000Y12307000D01*
G37*
G36*
X12977396Y15900454D02*
X13150466Y15828766D01*
X13306230Y15724688D01*
X13438688Y15592230D01*
X13542766Y15436466D01*
X13614454Y15263396D01*
X13651000Y15079667D01*
X13651000Y14892333D01*
X13614454Y14708604D01*
X13542766Y14535534D01*
X13438688Y14379770D01*
X13306230Y14247312D01*
X13150466Y14143234D01*
X12977396Y14071546D01*
X12793667Y14035000D01*
X12606333Y14035000D01*
X12422604Y14071546D01*
X12249534Y14143234D01*
X12093770Y14247312D01*
X11961312Y14379770D01*
X11857234Y14535534D01*
X11785546Y14708604D01*
X11749000Y14892333D01*
X11749000Y15079667D01*
X11785546Y15263396D01*
X11857234Y15436466D01*
X11961312Y15592230D01*
X12093770Y15724688D01*
X12249534Y15828766D01*
X12422604Y15900454D01*
X12606333Y15937000D01*
X12793667Y15937000D01*
X12977396Y15900454D01*
X12977396Y15900454D01*
G37*
G36*
X-9882604Y15900454D02*
X-9709534Y15828766D01*
X-9553770Y15724688D01*
X-9421312Y15592230D01*
X-9317234Y15436466D01*
X-9245546Y15263396D01*
X-9209000Y15079667D01*
X-9209000Y14892333D01*
X-9245546Y14708604D01*
X-9317234Y14535534D01*
X-9421312Y14379770D01*
X-9553770Y14247312D01*
X-9709534Y14143234D01*
X-9882604Y14071546D01*
X-10066333Y14035000D01*
X-10253667Y14035000D01*
X-10437396Y14071546D01*
X-10610466Y14143234D01*
X-10766230Y14247312D01*
X-10898688Y14379770D01*
X-11002766Y14535534D01*
X-11074454Y14708604D01*
X-11111000Y14892333D01*
X-11111000Y15079667D01*
X-11074454Y15263396D01*
X-11002766Y15436466D01*
X-10898688Y15592230D01*
X-10766230Y15724688D01*
X-10610466Y15828766D01*
X-10437396Y15900454D01*
X-10253667Y15937000D01*
X-10066333Y15937000D01*
X-9882604Y15900454D01*
X-9882604Y15900454D01*
G37*
G36*
X17128442Y15880482D02*
X17194627Y15873963D01*
X17307853Y15839616D01*
X17364467Y15822443D01*
X17503087Y15748348D01*
X17520991Y15738778D01*
X17556729Y15709448D01*
X17658186Y15626186D01*
X17741448Y15524729D01*
X17770778Y15488991D01*
X17770779Y15488989D01*
X17854443Y15332467D01*
X17854443Y15332466D01*
X17905963Y15162627D01*
X17923359Y14986000D01*
X17905963Y14809373D01*
X17875395Y14708604D01*
X17854443Y14639533D01*
X17798853Y14535533D01*
X17770778Y14483009D01*
X17741448Y14447271D01*
X17658186Y14345814D01*
X17556729Y14262552D01*
X17520991Y14233222D01*
X17520989Y14233221D01*
X17364467Y14149557D01*
X17343622Y14143234D01*
X17194627Y14098037D01*
X17128442Y14091518D01*
X17062260Y14085000D01*
X16973740Y14085000D01*
X16907558Y14091518D01*
X16841373Y14098037D01*
X16692378Y14143234D01*
X16671533Y14149557D01*
X16515011Y14233221D01*
X16515009Y14233222D01*
X16479271Y14262552D01*
X16377814Y14345814D01*
X16294552Y14447271D01*
X16265222Y14483009D01*
X16237147Y14535533D01*
X16181557Y14639533D01*
X16160605Y14708604D01*
X16130037Y14809373D01*
X16112641Y14986000D01*
X16130037Y15162627D01*
X16181557Y15332466D01*
X16181557Y15332467D01*
X16265221Y15488989D01*
X16265222Y15488991D01*
X16294552Y15524729D01*
X16377814Y15626186D01*
X16479271Y15709448D01*
X16515009Y15738778D01*
X16532913Y15748348D01*
X16671533Y15822443D01*
X16728147Y15839616D01*
X16841373Y15873963D01*
X16907558Y15880482D01*
X16973740Y15887000D01*
X17062260Y15887000D01*
X17128442Y15880482D01*
X17128442Y15880482D01*
G37*
G36*
X-14367558Y15880482D02*
X-14301373Y15873963D01*
X-14188147Y15839616D01*
X-14131533Y15822443D01*
X-13992913Y15748348D01*
X-13975009Y15738778D01*
X-13939271Y15709448D01*
X-13837814Y15626186D01*
X-13754552Y15524729D01*
X-13725222Y15488991D01*
X-13725221Y15488989D01*
X-13641557Y15332467D01*
X-13641557Y15332466D01*
X-13590037Y15162627D01*
X-13572641Y14986000D01*
X-13590037Y14809373D01*
X-13620605Y14708604D01*
X-13641557Y14639533D01*
X-13697147Y14535533D01*
X-13725222Y14483009D01*
X-13754552Y14447271D01*
X-13837814Y14345814D01*
X-13939271Y14262552D01*
X-13975009Y14233222D01*
X-13975011Y14233221D01*
X-14131533Y14149557D01*
X-14152378Y14143234D01*
X-14301373Y14098037D01*
X-14367558Y14091518D01*
X-14433740Y14085000D01*
X-14522260Y14085000D01*
X-14588442Y14091518D01*
X-14654627Y14098037D01*
X-14803622Y14143234D01*
X-14824467Y14149557D01*
X-14980989Y14233221D01*
X-14980991Y14233222D01*
X-15016729Y14262552D01*
X-15118186Y14345814D01*
X-15201448Y14447271D01*
X-15230778Y14483009D01*
X-15258853Y14535533D01*
X-15314443Y14639533D01*
X-15335395Y14708604D01*
X-15365963Y14809373D01*
X-15383359Y14986000D01*
X-15365963Y15162627D01*
X-15314443Y15332466D01*
X-15314443Y15332467D01*
X-15230779Y15488989D01*
X-15230778Y15488991D01*
X-15201448Y15524729D01*
X-15118186Y15626186D01*
X-15016729Y15709448D01*
X-14980991Y15738778D01*
X-14963087Y15748348D01*
X-14824467Y15822443D01*
X-14767853Y15839616D01*
X-14654627Y15873963D01*
X-14588442Y15880482D01*
X-14522260Y15887000D01*
X-14433740Y15887000D01*
X-14367558Y15880482D01*
X-14367558Y15880482D01*
G37*
G36*
X-9882604Y18440454D02*
X-9709534Y18368766D01*
X-9553770Y18264688D01*
X-9421312Y18132230D01*
X-9317234Y17976466D01*
X-9245546Y17803396D01*
X-9209000Y17619667D01*
X-9209000Y17432333D01*
X-9245546Y17248604D01*
X-9317234Y17075534D01*
X-9421312Y16919770D01*
X-9553770Y16787312D01*
X-9709534Y16683234D01*
X-9882604Y16611546D01*
X-10066333Y16575000D01*
X-10253667Y16575000D01*
X-10437396Y16611546D01*
X-10610466Y16683234D01*
X-10766230Y16787312D01*
X-10898688Y16919770D01*
X-11002766Y17075534D01*
X-11074454Y17248604D01*
X-11111000Y17432333D01*
X-11111000Y17619667D01*
X-11074454Y17803396D01*
X-11002766Y17976466D01*
X-10898688Y18132230D01*
X-10766230Y18264688D01*
X-10610466Y18368766D01*
X-10437396Y18440454D01*
X-10253667Y18477000D01*
X-10066333Y18477000D01*
X-9882604Y18440454D01*
X-9882604Y18440454D01*
G37*
G36*
X12977396Y18440454D02*
X13150466Y18368766D01*
X13306230Y18264688D01*
X13438688Y18132230D01*
X13542766Y17976466D01*
X13614454Y17803396D01*
X13651000Y17619667D01*
X13651000Y17432333D01*
X13614454Y17248604D01*
X13542766Y17075534D01*
X13438688Y16919770D01*
X13306230Y16787312D01*
X13150466Y16683234D01*
X12977396Y16611546D01*
X12793667Y16575000D01*
X12606333Y16575000D01*
X12422604Y16611546D01*
X12249534Y16683234D01*
X12093770Y16787312D01*
X11961312Y16919770D01*
X11857234Y17075534D01*
X11785546Y17248604D01*
X11749000Y17432333D01*
X11749000Y17619667D01*
X11785546Y17803396D01*
X11857234Y17976466D01*
X11961312Y18132230D01*
X12093770Y18264688D01*
X12249534Y18368766D01*
X12422604Y18440454D01*
X12606333Y18477000D01*
X12793667Y18477000D01*
X12977396Y18440454D01*
X12977396Y18440454D01*
G37*
G36*
X17128442Y18420482D02*
X17194627Y18413963D01*
X17307853Y18379616D01*
X17364467Y18362443D01*
X17503087Y18288348D01*
X17520991Y18278778D01*
X17556729Y18249448D01*
X17658186Y18166186D01*
X17741448Y18064729D01*
X17770778Y18028991D01*
X17770779Y18028989D01*
X17854443Y17872467D01*
X17854443Y17872466D01*
X17905963Y17702627D01*
X17923359Y17526000D01*
X17905963Y17349373D01*
X17893000Y17306641D01*
X17854443Y17179533D01*
X17798853Y17075533D01*
X17770778Y17023009D01*
X17741448Y16987271D01*
X17658186Y16885814D01*
X17556729Y16802552D01*
X17520991Y16773222D01*
X17520989Y16773221D01*
X17364467Y16689557D01*
X17343622Y16683234D01*
X17194627Y16638037D01*
X17128442Y16631518D01*
X17062260Y16625000D01*
X16973740Y16625000D01*
X16907558Y16631518D01*
X16841373Y16638037D01*
X16692378Y16683234D01*
X16671533Y16689557D01*
X16515011Y16773221D01*
X16515009Y16773222D01*
X16479271Y16802552D01*
X16377814Y16885814D01*
X16294552Y16987271D01*
X16265222Y17023009D01*
X16237147Y17075533D01*
X16181557Y17179533D01*
X16143000Y17306641D01*
X16130037Y17349373D01*
X16112641Y17526000D01*
X16130037Y17702627D01*
X16181557Y17872466D01*
X16181557Y17872467D01*
X16265221Y18028989D01*
X16265222Y18028991D01*
X16294552Y18064729D01*
X16377814Y18166186D01*
X16479271Y18249448D01*
X16515009Y18278778D01*
X16532913Y18288348D01*
X16671533Y18362443D01*
X16728147Y18379616D01*
X16841373Y18413963D01*
X16907558Y18420482D01*
X16973740Y18427000D01*
X17062260Y18427000D01*
X17128442Y18420482D01*
X17128442Y18420482D01*
G37*
G36*
X-14367558Y18420482D02*
X-14301373Y18413963D01*
X-14188147Y18379616D01*
X-14131533Y18362443D01*
X-13992913Y18288348D01*
X-13975009Y18278778D01*
X-13939271Y18249448D01*
X-13837814Y18166186D01*
X-13754552Y18064729D01*
X-13725222Y18028991D01*
X-13725221Y18028989D01*
X-13641557Y17872467D01*
X-13641557Y17872466D01*
X-13590037Y17702627D01*
X-13572641Y17526000D01*
X-13590037Y17349373D01*
X-13603000Y17306641D01*
X-13641557Y17179533D01*
X-13697147Y17075533D01*
X-13725222Y17023009D01*
X-13754552Y16987271D01*
X-13837814Y16885814D01*
X-13939271Y16802552D01*
X-13975009Y16773222D01*
X-13975011Y16773221D01*
X-14131533Y16689557D01*
X-14152378Y16683234D01*
X-14301373Y16638037D01*
X-14367558Y16631518D01*
X-14433740Y16625000D01*
X-14522260Y16625000D01*
X-14588442Y16631518D01*
X-14654627Y16638037D01*
X-14803622Y16683234D01*
X-14824467Y16689557D01*
X-14980989Y16773221D01*
X-14980991Y16773222D01*
X-15016729Y16802552D01*
X-15118186Y16885814D01*
X-15201448Y16987271D01*
X-15230778Y17023009D01*
X-15258853Y17075533D01*
X-15314443Y17179533D01*
X-15353000Y17306641D01*
X-15365963Y17349373D01*
X-15383359Y17526000D01*
X-15365963Y17702627D01*
X-15314443Y17872466D01*
X-15314443Y17872467D01*
X-15230779Y18028989D01*
X-15230778Y18028991D01*
X-15201448Y18064729D01*
X-15118186Y18166186D01*
X-15016729Y18249448D01*
X-14980991Y18278778D01*
X-14963087Y18288348D01*
X-14824467Y18362443D01*
X-14767853Y18379616D01*
X-14654627Y18413963D01*
X-14588442Y18420482D01*
X-14522260Y18427000D01*
X-14433740Y18427000D01*
X-14367558Y18420482D01*
X-14367558Y18420482D01*
G37*
G36*
X23817021Y22693360D02*
X24326770Y22482215D01*
X24326771Y22482214D01*
X24785534Y22175679D01*
X25175679Y21785534D01*
X25380036Y21479692D01*
X25482215Y21326770D01*
X25693360Y20817021D01*
X25801000Y20275876D01*
X25801000Y19724124D01*
X25693360Y19182979D01*
X25482215Y18673230D01*
X25482214Y18673229D01*
X25175679Y18214466D01*
X24785534Y17824321D01*
X24479692Y17619964D01*
X24326770Y17517785D01*
X23817021Y17306640D01*
X23275876Y17199000D01*
X22724124Y17199000D01*
X22182979Y17306640D01*
X21673230Y17517785D01*
X21520308Y17619964D01*
X21214466Y17824321D01*
X20824321Y18214466D01*
X20517786Y18673229D01*
X20517785Y18673230D01*
X20306640Y19182979D01*
X20199000Y19724124D01*
X20199000Y20275876D01*
X20306640Y20817021D01*
X20517785Y21326770D01*
X20619964Y21479692D01*
X20824321Y21785534D01*
X21214466Y22175679D01*
X21673229Y22482214D01*
X21673230Y22482215D01*
X22182979Y22693360D01*
X22724124Y22801000D01*
X23275876Y22801000D01*
X23817021Y22693360D01*
X23817021Y22693360D01*
G37*
G36*
X-9882604Y20980454D02*
X-9709534Y20908766D01*
X-9553770Y20804688D01*
X-9421312Y20672230D01*
X-9317234Y20516466D01*
X-9245546Y20343396D01*
X-9209000Y20159667D01*
X-9209000Y19972333D01*
X-9245546Y19788604D01*
X-9317234Y19615534D01*
X-9421312Y19459770D01*
X-9553770Y19327312D01*
X-9709534Y19223234D01*
X-9882604Y19151546D01*
X-10066333Y19115000D01*
X-10253667Y19115000D01*
X-10437396Y19151546D01*
X-10610466Y19223234D01*
X-10766230Y19327312D01*
X-10898688Y19459770D01*
X-11002766Y19615534D01*
X-11074454Y19788604D01*
X-11111000Y19972333D01*
X-11111000Y20159667D01*
X-11074454Y20343396D01*
X-11002766Y20516466D01*
X-10898688Y20672230D01*
X-10766230Y20804688D01*
X-10610466Y20908766D01*
X-10437396Y20980454D01*
X-10253667Y21017000D01*
X-10066333Y21017000D01*
X-9882604Y20980454D01*
X-9882604Y20980454D01*
G37*
G36*
X12977396Y20980454D02*
X13150466Y20908766D01*
X13306230Y20804688D01*
X13438688Y20672230D01*
X13542766Y20516466D01*
X13614454Y20343396D01*
X13651000Y20159667D01*
X13651000Y19972333D01*
X13614454Y19788604D01*
X13542766Y19615534D01*
X13438688Y19459770D01*
X13306230Y19327312D01*
X13150466Y19223234D01*
X12977396Y19151546D01*
X12793667Y19115000D01*
X12606333Y19115000D01*
X12422604Y19151546D01*
X12249534Y19223234D01*
X12093770Y19327312D01*
X11961312Y19459770D01*
X11857234Y19615534D01*
X11785546Y19788604D01*
X11749000Y19972333D01*
X11749000Y20159667D01*
X11785546Y20343396D01*
X11857234Y20516466D01*
X11961312Y20672230D01*
X12093770Y20804688D01*
X12249534Y20908766D01*
X12422604Y20980454D01*
X12606333Y21017000D01*
X12793667Y21017000D01*
X12977396Y20980454D01*
X12977396Y20980454D01*
G37*
G36*
X17128442Y20960482D02*
X17194627Y20953963D01*
X17307853Y20919616D01*
X17364467Y20902443D01*
X17503087Y20828348D01*
X17520991Y20818778D01*
X17556729Y20789448D01*
X17658186Y20706186D01*
X17741448Y20604729D01*
X17770778Y20568991D01*
X17770779Y20568989D01*
X17854443Y20412467D01*
X17854443Y20412466D01*
X17905963Y20242627D01*
X17923359Y20066000D01*
X17905963Y19889373D01*
X17875395Y19788604D01*
X17854443Y19719533D01*
X17798853Y19615533D01*
X17770778Y19563009D01*
X17741448Y19527271D01*
X17658186Y19425814D01*
X17556729Y19342552D01*
X17520991Y19313222D01*
X17520989Y19313221D01*
X17364467Y19229557D01*
X17343622Y19223234D01*
X17194627Y19178037D01*
X17128443Y19171519D01*
X17062260Y19165000D01*
X16973740Y19165000D01*
X16907557Y19171519D01*
X16841373Y19178037D01*
X16692378Y19223234D01*
X16671533Y19229557D01*
X16515011Y19313221D01*
X16515009Y19313222D01*
X16479271Y19342552D01*
X16377814Y19425814D01*
X16294552Y19527271D01*
X16265222Y19563009D01*
X16237147Y19615533D01*
X16181557Y19719533D01*
X16160605Y19788604D01*
X16130037Y19889373D01*
X16112641Y20066000D01*
X16130037Y20242627D01*
X16181557Y20412466D01*
X16181557Y20412467D01*
X16265221Y20568989D01*
X16265222Y20568991D01*
X16294552Y20604729D01*
X16377814Y20706186D01*
X16479271Y20789448D01*
X16515009Y20818778D01*
X16532913Y20828348D01*
X16671533Y20902443D01*
X16728147Y20919616D01*
X16841373Y20953963D01*
X16907558Y20960482D01*
X16973740Y20967000D01*
X17062260Y20967000D01*
X17128442Y20960482D01*
X17128442Y20960482D01*
G37*
G36*
X-14367558Y20960482D02*
X-14301373Y20953963D01*
X-14188147Y20919616D01*
X-14131533Y20902443D01*
X-13992913Y20828348D01*
X-13975009Y20818778D01*
X-13939271Y20789448D01*
X-13837814Y20706186D01*
X-13754552Y20604729D01*
X-13725222Y20568991D01*
X-13725221Y20568989D01*
X-13641557Y20412467D01*
X-13641557Y20412466D01*
X-13590037Y20242627D01*
X-13572641Y20066000D01*
X-13590037Y19889373D01*
X-13620605Y19788604D01*
X-13641557Y19719533D01*
X-13697147Y19615533D01*
X-13725222Y19563009D01*
X-13754552Y19527271D01*
X-13837814Y19425814D01*
X-13939271Y19342552D01*
X-13975009Y19313222D01*
X-13975011Y19313221D01*
X-14131533Y19229557D01*
X-14152378Y19223234D01*
X-14301373Y19178037D01*
X-14367557Y19171519D01*
X-14433740Y19165000D01*
X-14522260Y19165000D01*
X-14588443Y19171519D01*
X-14654627Y19178037D01*
X-14803622Y19223234D01*
X-14824467Y19229557D01*
X-14980989Y19313221D01*
X-14980991Y19313222D01*
X-15016729Y19342552D01*
X-15118186Y19425814D01*
X-15201448Y19527271D01*
X-15230778Y19563009D01*
X-15258853Y19615533D01*
X-15314443Y19719533D01*
X-15335395Y19788604D01*
X-15365963Y19889373D01*
X-15383359Y20066000D01*
X-15365963Y20242627D01*
X-15314443Y20412466D01*
X-15314443Y20412467D01*
X-15230779Y20568989D01*
X-15230778Y20568991D01*
X-15201448Y20604729D01*
X-15118186Y20706186D01*
X-15016729Y20789448D01*
X-14980991Y20818778D01*
X-14963087Y20828348D01*
X-14824467Y20902443D01*
X-14767853Y20919616D01*
X-14654627Y20953963D01*
X-14588442Y20960482D01*
X-14522260Y20967000D01*
X-14433740Y20967000D01*
X-14367558Y20960482D01*
X-14367558Y20960482D01*
G37*
G36*
X-9882604Y23520454D02*
X-9709534Y23448766D01*
X-9553770Y23344688D01*
X-9421312Y23212230D01*
X-9317234Y23056466D01*
X-9245546Y22883396D01*
X-9209000Y22699667D01*
X-9209000Y22512333D01*
X-9245546Y22328604D01*
X-9317234Y22155534D01*
X-9421312Y21999770D01*
X-9553770Y21867312D01*
X-9709534Y21763234D01*
X-9882604Y21691546D01*
X-10066333Y21655000D01*
X-10253667Y21655000D01*
X-10437396Y21691546D01*
X-10610466Y21763234D01*
X-10766230Y21867312D01*
X-10898688Y21999770D01*
X-11002766Y22155534D01*
X-11074454Y22328604D01*
X-11111000Y22512333D01*
X-11111000Y22699667D01*
X-11074454Y22883396D01*
X-11002766Y23056466D01*
X-10898688Y23212230D01*
X-10766230Y23344688D01*
X-10610466Y23448766D01*
X-10437396Y23520454D01*
X-10253667Y23557000D01*
X-10066333Y23557000D01*
X-9882604Y23520454D01*
X-9882604Y23520454D01*
G37*
G36*
X12977396Y23520454D02*
X13150466Y23448766D01*
X13306230Y23344688D01*
X13438688Y23212230D01*
X13542766Y23056466D01*
X13614454Y22883396D01*
X13651000Y22699667D01*
X13651000Y22512333D01*
X13614454Y22328604D01*
X13542766Y22155534D01*
X13438688Y21999770D01*
X13306230Y21867312D01*
X13150466Y21763234D01*
X12977396Y21691546D01*
X12793667Y21655000D01*
X12606333Y21655000D01*
X12422604Y21691546D01*
X12249534Y21763234D01*
X12093770Y21867312D01*
X11961312Y21999770D01*
X11857234Y22155534D01*
X11785546Y22328604D01*
X11749000Y22512333D01*
X11749000Y22699667D01*
X11785546Y22883396D01*
X11857234Y23056466D01*
X11961312Y23212230D01*
X12093770Y23344688D01*
X12249534Y23448766D01*
X12422604Y23520454D01*
X12606333Y23557000D01*
X12793667Y23557000D01*
X12977396Y23520454D01*
X12977396Y23520454D01*
G37*
G36*
X17919000Y21705000D02*
X16117000Y21705000D01*
X16117000Y23507000D01*
X17919000Y23507000D01*
X17919000Y21705000D01*
X17919000Y21705000D01*
G37*
G36*
X-13577000Y21705000D02*
X-15379000Y21705000D01*
X-15379000Y23507000D01*
X-13577000Y23507000D01*
X-13577000Y21705000D01*
X-13577000Y21705000D01*
G37*
G36*
X-17387000Y22975000D02*
X-19189000Y22975000D01*
X-19189000Y24777000D01*
X-17387000Y24777000D01*
X-17387000Y22975000D01*
X-17387000Y22975000D01*
G37*
G36*
X-20717557Y24770481D02*
X-20651373Y24763963D01*
X-20538147Y24729616D01*
X-20481533Y24712443D01*
X-20342913Y24638348D01*
X-20325009Y24628778D01*
X-20289271Y24599448D01*
X-20187814Y24516186D01*
X-20104552Y24414729D01*
X-20075222Y24378991D01*
X-20075221Y24378989D01*
X-19991557Y24222467D01*
X-19991557Y24222466D01*
X-19940037Y24052627D01*
X-19922641Y23876000D01*
X-19940037Y23699373D01*
X-19974384Y23586147D01*
X-19991557Y23529533D01*
X-20034729Y23448766D01*
X-20075222Y23373009D01*
X-20098463Y23344690D01*
X-20187814Y23235814D01*
X-20289271Y23152552D01*
X-20325009Y23123222D01*
X-20325011Y23123221D01*
X-20481533Y23039557D01*
X-20538147Y23022384D01*
X-20651373Y22988037D01*
X-20717558Y22981518D01*
X-20783740Y22975000D01*
X-20872260Y22975000D01*
X-20938442Y22981518D01*
X-21004627Y22988037D01*
X-21117853Y23022384D01*
X-21174467Y23039557D01*
X-21330989Y23123221D01*
X-21330991Y23123222D01*
X-21366729Y23152552D01*
X-21468186Y23235814D01*
X-21557537Y23344690D01*
X-21580778Y23373009D01*
X-21621271Y23448766D01*
X-21664443Y23529533D01*
X-21681616Y23586147D01*
X-21715963Y23699373D01*
X-21733359Y23876000D01*
X-21715963Y24052627D01*
X-21664443Y24222466D01*
X-21664443Y24222467D01*
X-21580779Y24378989D01*
X-21580778Y24378991D01*
X-21551448Y24414729D01*
X-21468186Y24516186D01*
X-21366729Y24599448D01*
X-21330991Y24628778D01*
X-21313087Y24638348D01*
X-21174467Y24712443D01*
X-21117853Y24729616D01*
X-21004627Y24763963D01*
X-20938443Y24770481D01*
X-20872260Y24777000D01*
X-20783740Y24777000D01*
X-20717557Y24770481D01*
X-20717557Y24770481D01*
G37*
M02*
