<?xml version="1.0" standalone="no"?>
 <!DOCTYPE svg PUBLIC "-//W3C//DTD SVG 1.1//EN" 
 "http://www.w3.org/Graphics/SVG/1.1/DTD/svg11.dtd"> 
<svg xmlns="http://www.w3.org/2000/svg" version="1.1" 
    width="29.7002cm" height="21.0007cm" viewBox="0 0 116930 82680 ">
<title>SVG Picture created as CastVolumeKnob-brd.svg date 2018/12/23 17:15:27 </title>
  <desc>Picture generated by PCBNEW </desc>
<g style="fill:#000000; fill-opacity:1;stroke:#000000; stroke-opacity:1;
stroke-linecap:round; stroke-linejoin:round; "
 transform="translate(0 0) scale(1 1)">
</g>
<g style="fill:#000000; fill-opacity:0.0; 
stroke:#000000; stroke-width:-0.000393701; stroke-opacity:1; 
stroke-linecap:round; stroke-linejoin:round;">
</g>
<g style="fill:#000000; fill-opacity:0.0; 
stroke:#000000; stroke-width:39.3701; stroke-opacity:1; 
stroke-linecap:round; stroke-linejoin:round;">
</g>
<g style="fill:#000000; fill-opacity:0.0; 
stroke:#000000; stroke-width:59.0551; stroke-opacity:1; 
stroke-linecap:round; stroke-linejoin:round;">
<rect x="69685.9" y="65357.2" width="42519.7" height="12598.4" rx="0" />
</g>
<g style="fill:#000000; fill-opacity:0.0; 
stroke:#000000; stroke-width:39.3701; stroke-opacity:1; 
stroke-linecap:round; stroke-linejoin:round;">
</g>
<g style="fill:#000000; fill-opacity:0.0; 
stroke:#000000; stroke-width:59.0551; stroke-opacity:1; 
stroke-linecap:round; stroke-linejoin:round;">
<rect x="3937.01" y="3937.01" width="109056" height="74806" rx="0" />
</g>
<g style="fill:#000000; fill-opacity:0.0; 
stroke:#000000; stroke-width:39.3701; stroke-opacity:1; 
stroke-linecap:round; stroke-linejoin:round;">
</g>
<g style="fill:#000000; fill-opacity:0.0; 
stroke:#000000; stroke-width:59.0551; stroke-opacity:1; 
stroke-linecap:round; stroke-linejoin:round;">
<rect x="4724.41" y="4724.41" width="107481" height="73231.2" rx="0" />
</g>
<g style="fill:#000000; fill-opacity:0.0; 
stroke:#000000; stroke-width:39.3701; stroke-opacity:1; 
stroke-linecap:round; stroke-linejoin:round;">
</g>
<g style="fill:#000000; fill-opacity:0.0; 
stroke:#000000; stroke-width:59.0551; stroke-opacity:1; 
stroke-linecap:round; stroke-linejoin:round;">
<path d="M23622 4724
L23622 3937
" />
</g>
<g style="fill:#000000; fill-opacity:0.0; 
stroke:#000000; stroke-width:39.3701; stroke-opacity:1; 
stroke-linecap:round; stroke-linejoin:round;">
</g>
<g style="fill:#000000; fill-opacity:0.0; 
stroke:#000000; stroke-width:59.0551; stroke-opacity:1; 
stroke-linecap:round; stroke-linejoin:round;">
<path d="M43307 4724
L43307 3937
" />
</g>
<g style="fill:#000000; fill-opacity:0.0; 
stroke:#000000; stroke-width:39.3701; stroke-opacity:1; 
stroke-linecap:round; stroke-linejoin:round;">
</g>
<g style="fill:#000000; fill-opacity:0.0; 
stroke:#000000; stroke-width:59.0551; stroke-opacity:1; 
stroke-linecap:round; stroke-linejoin:round;">
<path d="M62992 4724
L62992 3937
" />
</g>
<g style="fill:#000000; fill-opacity:0.0; 
stroke:#000000; stroke-width:39.3701; stroke-opacity:1; 
stroke-linecap:round; stroke-linejoin:round;">
</g>
<g style="fill:#000000; fill-opacity:0.0; 
stroke:#000000; stroke-width:59.0551; stroke-opacity:1; 
stroke-linecap:round; stroke-linejoin:round;">
<path d="M82677 4724
L82677 3937
" />
</g>
<g style="fill:#000000; fill-opacity:0.0; 
stroke:#000000; stroke-width:39.3701; stroke-opacity:1; 
stroke-linecap:round; stroke-linejoin:round;">
</g>
<g style="fill:#000000; fill-opacity:0.0; 
stroke:#000000; stroke-width:59.0551; stroke-opacity:1; 
stroke-linecap:round; stroke-linejoin:round;">
<path d="M102362 4724
L102362 3937
" />
</g>
<g style="fill:#000000; fill-opacity:0.0; 
stroke:#000000; stroke-width:39.3701; stroke-opacity:1; 
stroke-linecap:round; stroke-linejoin:round;">
</g>
<g style="fill:#000000; fill-opacity:0.0; 
stroke:#000000; stroke-width:59.0551; stroke-opacity:1; 
stroke-linecap:round; stroke-linejoin:round;">
<path d="M14199 4562
L13906 4562
" />
<path d="M14052 4562
L14052 4050
L14004 4123
L13955 4172
L13906 4196
" />
</g>
<g style="fill:#000000; fill-opacity:0.0; 
stroke:#000000; stroke-width:39.3701; stroke-opacity:1; 
stroke-linecap:round; stroke-linejoin:round;">
</g>
<g style="fill:#000000; fill-opacity:0.0; 
stroke:#000000; stroke-width:59.0551; stroke-opacity:1; 
stroke-linecap:round; stroke-linejoin:round;">
<path d="M33591 4099
L33615 4074
L33664 4050
L33786 4050
L33835 4074
L33859 4099
L33884 4147
L33884 4196
L33859 4269
L33567 4562
L33884 4562
" />
</g>
<g style="fill:#000000; fill-opacity:0.0; 
stroke:#000000; stroke-width:39.3701; stroke-opacity:1; 
stroke-linecap:round; stroke-linejoin:round;">
</g>
<g style="fill:#000000; fill-opacity:0.0; 
stroke:#000000; stroke-width:59.0551; stroke-opacity:1; 
stroke-linecap:round; stroke-linejoin:round;">
<path d="M53252 4050
L53569 4050
L53398 4245
L53471 4245
L53520 4269
L53544 4294
L53569 4342
L53569 4464
L53544 4513
L53520 4537
L53471 4562
L53325 4562
L53276 4537
L53252 4513
" />
</g>
<g style="fill:#000000; fill-opacity:0.0; 
stroke:#000000; stroke-width:39.3701; stroke-opacity:1; 
stroke-linecap:round; stroke-linejoin:round;">
</g>
<g style="fill:#000000; fill-opacity:0.0; 
stroke:#000000; stroke-width:59.0551; stroke-opacity:1; 
stroke-linecap:round; stroke-linejoin:round;">
<path d="M73205 4221
L73205 4562
" />
<path d="M73083 4026
L72961 4391
L73278 4391
" />
</g>
<g style="fill:#000000; fill-opacity:0.0; 
stroke:#000000; stroke-width:39.3701; stroke-opacity:1; 
stroke-linecap:round; stroke-linejoin:round;">
</g>
<g style="fill:#000000; fill-opacity:0.0; 
stroke:#000000; stroke-width:59.0551; stroke-opacity:1; 
stroke-linecap:round; stroke-linejoin:round;">
<path d="M92914 4050
L92671 4050
L92646 4294
L92671 4269
L92719 4245
L92841 4245
L92890 4269
L92914 4294
L92939 4342
L92939 4464
L92914 4513
L92890 4537
L92841 4562
L92719 4562
L92671 4537
L92646 4513
" />
</g>
<g style="fill:#000000; fill-opacity:0.0; 
stroke:#000000; stroke-width:39.3701; stroke-opacity:1; 
stroke-linecap:round; stroke-linejoin:round;">
</g>
<g style="fill:#000000; fill-opacity:0.0; 
stroke:#000000; stroke-width:59.0551; stroke-opacity:1; 
stroke-linecap:round; stroke-linejoin:round;">
<path d="M112575 4050
L112477 4050
L112429 4074
L112404 4099
L112356 4172
L112331 4269
L112331 4464
L112356 4513
L112380 4537
L112429 4562
L112526 4562
L112575 4537
L112599 4513
L112624 4464
L112624 4342
L112599 4294
L112575 4269
L112526 4245
L112429 4245
L112380 4269
L112356 4294
L112331 4342
" />
</g>
<g style="fill:#000000; fill-opacity:0.0; 
stroke:#000000; stroke-width:39.3701; stroke-opacity:1; 
stroke-linecap:round; stroke-linejoin:round;">
</g>
<g style="fill:#000000; fill-opacity:0.0; 
stroke:#000000; stroke-width:59.0551; stroke-opacity:1; 
stroke-linecap:round; stroke-linejoin:round;">
<path d="M23622 77955
L23622 78742
" />
</g>
<g style="fill:#000000; fill-opacity:0.0; 
stroke:#000000; stroke-width:39.3701; stroke-opacity:1; 
stroke-linecap:round; stroke-linejoin:round;">
</g>
<g style="fill:#000000; fill-opacity:0.0; 
stroke:#000000; stroke-width:59.0551; stroke-opacity:1; 
stroke-linecap:round; stroke-linejoin:round;">
<path d="M43307 77955
L43307 78742
" />
</g>
<g style="fill:#000000; fill-opacity:0.0; 
stroke:#000000; stroke-width:39.3701; stroke-opacity:1; 
stroke-linecap:round; stroke-linejoin:round;">
</g>
<g style="fill:#000000; fill-opacity:0.0; 
stroke:#000000; stroke-width:59.0551; stroke-opacity:1; 
stroke-linecap:round; stroke-linejoin:round;">
<path d="M62992 77955
L62992 78742
" />
</g>
<g style="fill:#000000; fill-opacity:0.0; 
stroke:#000000; stroke-width:39.3701; stroke-opacity:1; 
stroke-linecap:round; stroke-linejoin:round;">
</g>
<g style="fill:#000000; fill-opacity:0.0; 
stroke:#000000; stroke-width:59.0551; stroke-opacity:1; 
stroke-linecap:round; stroke-linejoin:round;">
<path d="M82677 77955
L82677 78742
" />
</g>
<g style="fill:#000000; fill-opacity:0.0; 
stroke:#000000; stroke-width:39.3701; stroke-opacity:1; 
stroke-linecap:round; stroke-linejoin:round;">
</g>
<g style="fill:#000000; fill-opacity:0.0; 
stroke:#000000; stroke-width:59.0551; stroke-opacity:1; 
stroke-linecap:round; stroke-linejoin:round;">
<path d="M102362 77955
L102362 78742
" />
</g>
<g style="fill:#000000; fill-opacity:0.0; 
stroke:#000000; stroke-width:39.3701; stroke-opacity:1; 
stroke-linecap:round; stroke-linejoin:round;">
</g>
<g style="fill:#000000; fill-opacity:0.0; 
stroke:#000000; stroke-width:59.0551; stroke-opacity:1; 
stroke-linecap:round; stroke-linejoin:round;">
<path d="M14199 78580
L13906 78580
" />
<path d="M14052 78580
L14052 78069
L14004 78142
L13955 78190
L13906 78215
" />
</g>
<g style="fill:#000000; fill-opacity:0.0; 
stroke:#000000; stroke-width:39.3701; stroke-opacity:1; 
stroke-linecap:round; stroke-linejoin:round;">
</g>
<g style="fill:#000000; fill-opacity:0.0; 
stroke:#000000; stroke-width:59.0551; stroke-opacity:1; 
stroke-linecap:round; stroke-linejoin:round;">
<path d="M33591 78117
L33615 78093
L33664 78069
L33786 78069
L33835 78093
L33859 78117
L33884 78166
L33884 78215
L33859 78288
L33567 78580
L33884 78580
" />
</g>
<g style="fill:#000000; fill-opacity:0.0; 
stroke:#000000; stroke-width:39.3701; stroke-opacity:1; 
stroke-linecap:round; stroke-linejoin:round;">
</g>
<g style="fill:#000000; fill-opacity:0.0; 
stroke:#000000; stroke-width:59.0551; stroke-opacity:1; 
stroke-linecap:round; stroke-linejoin:round;">
<path d="M53252 78069
L53569 78069
L53398 78263
L53471 78263
L53520 78288
L53544 78312
L53569 78361
L53569 78483
L53544 78532
L53520 78556
L53471 78580
L53325 78580
L53276 78556
L53252 78532
" />
</g>
<g style="fill:#000000; fill-opacity:0.0; 
stroke:#000000; stroke-width:39.3701; stroke-opacity:1; 
stroke-linecap:round; stroke-linejoin:round;">
</g>
<g style="fill:#000000; fill-opacity:0.0; 
stroke:#000000; stroke-width:59.0551; stroke-opacity:1; 
stroke-linecap:round; stroke-linejoin:round;">
<path d="M73205 78239
L73205 78580
" />
<path d="M73083 78044
L72961 78410
L73278 78410
" />
</g>
<g style="fill:#000000; fill-opacity:0.0; 
stroke:#000000; stroke-width:39.3701; stroke-opacity:1; 
stroke-linecap:round; stroke-linejoin:round;">
</g>
<g style="fill:#000000; fill-opacity:0.0; 
stroke:#000000; stroke-width:59.0551; stroke-opacity:1; 
stroke-linecap:round; stroke-linejoin:round;">
<path d="M92914 78069
L92671 78069
L92646 78312
L92671 78288
L92719 78263
L92841 78263
L92890 78288
L92914 78312
L92939 78361
L92939 78483
L92914 78532
L92890 78556
L92841 78580
L92719 78580
L92671 78556
L92646 78532
" />
</g>
<g style="fill:#000000; fill-opacity:0.0; 
stroke:#000000; stroke-width:39.3701; stroke-opacity:1; 
stroke-linecap:round; stroke-linejoin:round;">
</g>
<g style="fill:#000000; fill-opacity:0.0; 
stroke:#000000; stroke-width:59.0551; stroke-opacity:1; 
stroke-linecap:round; stroke-linejoin:round;">
<path d="M112575 78069
L112477 78069
L112429 78093
L112404 78117
L112356 78190
L112331 78288
L112331 78483
L112356 78532
L112380 78556
L112429 78580
L112526 78580
L112575 78556
L112599 78532
L112624 78483
L112624 78361
L112599 78312
L112575 78288
L112526 78263
L112429 78263
L112380 78288
L112356 78312
L112331 78361
" />
</g>
<g style="fill:#000000; fill-opacity:0.0; 
stroke:#000000; stroke-width:39.3701; stroke-opacity:1; 
stroke-linecap:round; stroke-linejoin:round;">
</g>
<g style="fill:#000000; fill-opacity:0.0; 
stroke:#000000; stroke-width:59.0551; stroke-opacity:1; 
stroke-linecap:round; stroke-linejoin:round;">
<path d="M3937 23622
L4724 23622
" />
</g>
<g style="fill:#000000; fill-opacity:0.0; 
stroke:#000000; stroke-width:39.3701; stroke-opacity:1; 
stroke-linecap:round; stroke-linejoin:round;">
</g>
<g style="fill:#000000; fill-opacity:0.0; 
stroke:#000000; stroke-width:59.0551; stroke-opacity:1; 
stroke-linecap:round; stroke-linejoin:round;">
<path d="M3937 43307
L4724 43307
" />
</g>
<g style="fill:#000000; fill-opacity:0.0; 
stroke:#000000; stroke-width:39.3701; stroke-opacity:1; 
stroke-linecap:round; stroke-linejoin:round;">
</g>
<g style="fill:#000000; fill-opacity:0.0; 
stroke:#000000; stroke-width:59.0551; stroke-opacity:1; 
stroke-linecap:round; stroke-linejoin:round;">
<path d="M3937 62992
L4724 62992
" />
</g>
<g style="fill:#000000; fill-opacity:0.0; 
stroke:#000000; stroke-width:39.3701; stroke-opacity:1; 
stroke-linecap:round; stroke-linejoin:round;">
</g>
<g style="fill:#000000; fill-opacity:0.0; 
stroke:#000000; stroke-width:59.0551; stroke-opacity:1; 
stroke-linecap:round; stroke-linejoin:round;">
<path d="M4208 13864
L4452 13864
" />
<path d="M4160 14011
L4330 13499
L4501 14011
" />
</g>
<g style="fill:#000000; fill-opacity:0.0; 
stroke:#000000; stroke-width:39.3701; stroke-opacity:1; 
stroke-linecap:round; stroke-linejoin:round;">
</g>
<g style="fill:#000000; fill-opacity:0.0; 
stroke:#000000; stroke-width:59.0551; stroke-opacity:1; 
stroke-linecap:round; stroke-linejoin:round;">
<path d="M4367 33428
L4440 33452
L4464 33476
L4489 33525
L4489 33598
L4464 33647
L4440 33671
L4391 33696
L4196 33696
L4196 33184
L4367 33184
L4416 33208
L4440 33233
L4464 33281
L4464 33330
L4440 33379
L4416 33403
L4367 33428
L4196 33428
" />
</g>
<g style="fill:#000000; fill-opacity:0.0; 
stroke:#000000; stroke-width:39.3701; stroke-opacity:1; 
stroke-linecap:round; stroke-linejoin:round;">
</g>
<g style="fill:#000000; fill-opacity:0.0; 
stroke:#000000; stroke-width:59.0551; stroke-opacity:1; 
stroke-linecap:round; stroke-linejoin:round;">
<path d="M4489 53332
L4464 53356
L4391 53381
L4342 53381
L4269 53356
L4221 53308
L4196 53259
L4172 53161
L4172 53088
L4196 52991
L4221 52942
L4269 52893
L4342 52869
L4391 52869
L4464 52893
L4489 52918
" />
</g>
<g style="fill:#000000; fill-opacity:0.0; 
stroke:#000000; stroke-width:39.3701; stroke-opacity:1; 
stroke-linecap:round; stroke-linejoin:round;">
</g>
<g style="fill:#000000; fill-opacity:0.0; 
stroke:#000000; stroke-width:59.0551; stroke-opacity:1; 
stroke-linecap:round; stroke-linejoin:round;">
<path d="M4196 73066
L4196 72554
L4318 72554
L4391 72578
L4440 72627
L4464 72676
L4489 72773
L4489 72846
L4464 72944
L4440 72993
L4391 73041
L4318 73066
L4196 73066
" />
</g>
<g style="fill:#000000; fill-opacity:0.0; 
stroke:#000000; stroke-width:39.3701; stroke-opacity:1; 
stroke-linecap:round; stroke-linejoin:round;">
</g>
<g style="fill:#000000; fill-opacity:0.0; 
stroke:#000000; stroke-width:59.0551; stroke-opacity:1; 
stroke-linecap:round; stroke-linejoin:round;">
<path d="M112992 23622
L112205 23622
" />
</g>
<g style="fill:#000000; fill-opacity:0.0; 
stroke:#000000; stroke-width:39.3701; stroke-opacity:1; 
stroke-linecap:round; stroke-linejoin:round;">
</g>
<g style="fill:#000000; fill-opacity:0.0; 
stroke:#000000; stroke-width:59.0551; stroke-opacity:1; 
stroke-linecap:round; stroke-linejoin:round;">
<path d="M112992 43307
L112205 43307
" />
</g>
<g style="fill:#000000; fill-opacity:0.0; 
stroke:#000000; stroke-width:39.3701; stroke-opacity:1; 
stroke-linecap:round; stroke-linejoin:round;">
</g>
<g style="fill:#000000; fill-opacity:0.0; 
stroke:#000000; stroke-width:59.0551; stroke-opacity:1; 
stroke-linecap:round; stroke-linejoin:round;">
<path d="M112992 62992
L112205 62992
" />
</g>
<g style="fill:#000000; fill-opacity:0.0; 
stroke:#000000; stroke-width:39.3701; stroke-opacity:1; 
stroke-linecap:round; stroke-linejoin:round;">
</g>
<g style="fill:#000000; fill-opacity:0.0; 
stroke:#000000; stroke-width:59.0551; stroke-opacity:1; 
stroke-linecap:round; stroke-linejoin:round;">
<path d="M112477 13864
L112721 13864
" />
<path d="M112428 14011
L112599 13499
L112769 14011
" />
</g>
<g style="fill:#000000; fill-opacity:0.0; 
stroke:#000000; stroke-width:39.3701; stroke-opacity:1; 
stroke-linecap:round; stroke-linejoin:round;">
</g>
<g style="fill:#000000; fill-opacity:0.0; 
stroke:#000000; stroke-width:59.0551; stroke-opacity:1; 
stroke-linecap:round; stroke-linejoin:round;">
<path d="M112635 33428
L112708 33452
L112733 33476
L112757 33525
L112757 33598
L112733 33647
L112708 33671
L112660 33696
L112465 33696
L112465 33184
L112635 33184
L112684 33208
L112708 33233
L112733 33281
L112733 33330
L112708 33379
L112684 33403
L112635 33428
L112465 33428
" />
</g>
<g style="fill:#000000; fill-opacity:0.0; 
stroke:#000000; stroke-width:39.3701; stroke-opacity:1; 
stroke-linecap:round; stroke-linejoin:round;">
</g>
<g style="fill:#000000; fill-opacity:0.0; 
stroke:#000000; stroke-width:59.0551; stroke-opacity:1; 
stroke-linecap:round; stroke-linejoin:round;">
<path d="M112757 53332
L112733 53356
L112660 53381
L112611 53381
L112538 53356
L112489 53308
L112465 53259
L112440 53161
L112440 53088
L112465 52991
L112489 52942
L112538 52893
L112611 52869
L112660 52869
L112733 52893
L112757 52918
" />
</g>
<g style="fill:#000000; fill-opacity:0.0; 
stroke:#000000; stroke-width:39.3701; stroke-opacity:1; 
stroke-linecap:round; stroke-linejoin:round;">
</g>
<g style="fill:#000000; fill-opacity:0.0; 
stroke:#000000; stroke-width:59.0551; stroke-opacity:1; 
stroke-linecap:round; stroke-linejoin:round;">
<path d="M112465 73066
L112465 72554
L112587 72554
L112660 72578
L112708 72627
L112733 72676
L112757 72773
L112757 72846
L112733 72944
L112708 72993
L112660 73041
L112587 73066
L112465 73066
" />
</g>
<g style="fill:#000000; fill-opacity:0.0; 
stroke:#000000; stroke-width:39.3701; stroke-opacity:1; 
stroke-linecap:round; stroke-linejoin:round;">
</g>
<g style="fill:#000000; fill-opacity:0.0; 
stroke:#000000; stroke-width:59.0551; stroke-opacity:1; 
stroke-linecap:round; stroke-linejoin:round;">
<path d="M78911 76293
L78911 75703
L79051 75703
L79136 75731
L79192 75787
L79220 75843
L79248 75956
L79248 76040
L79220 76153
L79192 76209
L79136 76265
L79051 76293
L78911 76293
" />
<path d="M79754 76293
L79754 75984
L79726 75928
L79670 75899
L79557 75899
L79501 75928
" />
<path d="M79754 76265
L79698 76293
L79557 76293
L79501 76265
L79473 76209
L79473 76153
L79501 76096
L79557 76068
L79698 76068
L79754 76040
" />
<path d="M79951 75899
L80176 75899
" />
<path d="M80036 75703
L80036 76209
L80064 76265
L80120 76293
L80176 76293
" />
<path d="M80598 76265
L80542 76293
L80429 76293
L80373 76265
L80345 76209
L80345 75984
L80373 75928
L80429 75899
L80542 75899
L80598 75928
L80626 75984
L80626 76040
L80345 76096
" />
<path d="M80879 76237
L80907 76265
L80879 76293
L80851 76265
L80879 76237
L80879 76293
" />
<path d="M80879 75928
L80907 75956
L80879 75984
L80851 75956
L80879 75928
L80879 75984
" />
</g>
<g style="fill:#000000; fill-opacity:0.0; 
stroke:#000000; stroke-width:39.3701; stroke-opacity:1; 
stroke-linecap:round; stroke-linejoin:round;">
</g>
<g style="fill:#000000; fill-opacity:0.0; 
stroke:#000000; stroke-width:59.0551; stroke-opacity:1; 
stroke-linecap:round; stroke-linejoin:round;">
<path d="M69685 76577
L112205 76577
" />
</g>
<g style="fill:#000000; fill-opacity:0.0; 
stroke:#000000; stroke-width:39.3701; stroke-opacity:1; 
stroke-linecap:round; stroke-linejoin:round;">
</g>
<g style="fill:#000000; fill-opacity:0.0; 
stroke:#000000; stroke-width:59.0551; stroke-opacity:1; 
stroke-linecap:round; stroke-linejoin:round;">
<path d="M70249 77395
L70249 76805
" />
<path d="M70587 77395
L70334 77058
" />
<path d="M70587 76805
L70249 77142
" />
<path d="M70840 77395
L70840 77002
" />
<path d="M70840 76805
L70812 76833
L70840 76861
L70868 76833
L70840 76805
L70840 76861
" />
<path d="M71458 77339
L71430 77367
L71346 77395
L71290 77395
L71205 77367
L71149 77311
L71121 77255
L71093 77142
L71093 77058
L71121 76946
L71149 76889
L71205 76833
L71290 76805
L71346 76805
L71430 76833
L71458 76861
" />
<path d="M71965 77395
L71965 77086
L71937 77030
L71880 77002
L71768 77002
L71712 77030
" />
<path d="M71965 77367
L71908 77395
L71768 77395
L71712 77367
L71683 77311
L71683 77255
L71712 77199
L71768 77171
L71908 77171
L71965 77142
" />
<path d="M72499 77395
L72499 76805
" />
<path d="M72499 77367
L72443 77395
L72330 77395
L72274 77367
L72246 77339
L72218 77283
L72218 77114
L72246 77058
L72274 77030
L72330 77002
L72443 77002
L72499 77030
" />
<path d="M73230 77086
L73427 77086
" />
<path d="M73511 77395
L73230 77395
L73230 76805
L73511 76805
" />
<path d="M73764 77339
L73793 77367
L73764 77395
L73736 77367
L73764 77339
L73764 77395
" />
<path d="M74046 77395
L74046 76805
L74186 76805
L74271 76833
L74327 76889
L74355 76946
L74383 77058
L74383 77142
L74355 77255
L74327 77311
L74271 77367
L74186 77395
L74046 77395
" />
<path d="M74636 77339
L74664 77367
L74636 77395
L74608 77367
L74636 77339
L74636 77395
" />
<path d="M74889 77227
L75171 77227
" />
<path d="M74833 77395
L75030 76805
L75227 77395
" />
<path d="M75424 77339
L75452 77367
L75424 77395
L75395 77367
L75424 77339
L75424 77395
" />
<path d="M76605 77395
L76605 76805
" />
<path d="M76661 77171
L76830 77395
" />
<path d="M76830 77002
L76605 77227
" />
<path d="M77083 77395
L77083 77002
" />
<path d="M77083 76805
L77055 76833
L77083 76861
L77111 76833
L77083 76805
L77083 76861
" />
<path d="M77617 77367
L77561 77395
L77448 77395
L77392 77367
L77364 77339
L77336 77283
L77336 77114
L77364 77058
L77392 77030
L77448 77002
L77561 77002
L77617 77030
" />
<path d="M78123 77395
L78123 77086
L78095 77030
L78039 77002
L77926 77002
L77870 77030
" />
<path d="M78123 77367
L78067 77395
L77926 77395
L77870 77367
L77842 77311
L77842 77255
L77870 77199
L77926 77171
L78067 77171
L78123 77142
" />
<path d="M78658 77395
L78658 76805
" />
<path d="M78658 77367
L78601 77395
L78489 77395
L78433 77367
L78404 77339
L78376 77283
L78376 77114
L78404 77058
L78433 77030
L78489 77002
L78601 77002
L78658 77030
" />
<path d="M79557 77620
L79529 77592
L79473 77508
L79445 77452
L79417 77367
L79389 77227
L79389 77114
L79417 76974
L79445 76889
L79473 76833
L79529 76749
L79557 76721
" />
<path d="M80064 76805
L79782 76805
L79754 77086
L79782 77058
L79839 77030
L79979 77030
L80036 77058
L80064 77086
L80092 77142
L80092 77283
L80064 77339
L80036 77367
L79979 77395
L79839 77395
L79782 77367
L79754 77339
" />
<path d="M80345 77339
L80373 77367
L80345 77395
L80317 77367
L80345 77339
L80345 77395
" />
<path d="M80739 76805
L80795 76805
L80851 76833
L80879 76861
L80907 76917
L80935 77030
L80935 77171
L80907 77283
L80879 77339
L80851 77367
L80795 77395
L80739 77395
L80682 77367
L80654 77339
L80626 77283
L80598 77171
L80598 77030
L80626 76917
L80654 76861
L80682 76833
L80739 76805
" />
<path d="M81188 77339
L81217 77367
L81188 77395
L81160 77367
L81188 77339
L81188 77395
" />
<path d="M81779 77395
L81442 77395
" />
<path d="M81610 77395
L81610 76805
L81554 76889
L81498 76946
L81442 76974
" />
<path d="M81976 77620
L82004 77592
L82060 77508
L82088 77452
L82117 77367
L82145 77227
L82145 77114
L82117 76974
L82088 76889
L82060 76833
L82004 76749
L81976 76721
" />
<path d="M82426 77171
L82876 77171
" />
<path d="M83101 76805
L83466 76805
L83269 77030
L83354 77030
L83410 77058
L83438 77086
L83466 77142
L83466 77283
L83438 77339
L83410 77367
L83354 77395
L83185 77395
L83129 77367
L83101 77339
" />
</g>
<g style="fill:#000000; fill-opacity:0.0; 
stroke:#000000; stroke-width:39.3701; stroke-opacity:1; 
stroke-linecap:round; stroke-linejoin:round;">
</g>
<g style="fill:#000000; fill-opacity:0.0; 
stroke:#000000; stroke-width:59.0551; stroke-opacity:1; 
stroke-linecap:round; stroke-linejoin:round;">
<path d="M69685 75396
L112205 75396
" />
</g>
<g style="fill:#000000; fill-opacity:0.0; 
stroke:#000000; stroke-width:39.3701; stroke-opacity:1; 
stroke-linecap:round; stroke-linejoin:round;">
</g>
<g style="fill:#000000; fill-opacity:0.0; 
stroke:#000000; stroke-width:118.11; stroke-opacity:1; 
stroke-linecap:round; stroke-linejoin:round;">
<path d="M104099 76293
L103902 76012
" />
<path d="M103761 76293
L103761 75703
L103986 75703
L104042 75731
L104070 75759
L104099 75815
L104099 75899
L104070 75956
L104042 75984
L103986 76012
L103761 76012
" />
<path d="M104577 76265
L104520 76293
L104408 76293
L104352 76265
L104323 76209
L104323 75984
L104352 75928
L104408 75899
L104520 75899
L104577 75928
L104605 75984
L104605 76040
L104323 76096
" />
<path d="M104802 75899
L104942 76293
L105083 75899
" />
<path d="M105308 76237
L105336 76265
L105308 76293
L105280 76265
L105308 76237
L105308 76293
" />
<path d="M105308 75928
L105336 75956
L105308 75984
L105280 75956
L105308 75928
L105308 75984
" />
</g>
<g style="fill:#000000; fill-opacity:0.0; 
stroke:#000000; stroke-width:39.3701; stroke-opacity:1; 
stroke-linecap:round; stroke-linejoin:round;">
</g>
<g style="fill:#000000; fill-opacity:0.0; 
stroke:#000000; stroke-width:59.0551; stroke-opacity:1; 
stroke-linecap:round; stroke-linejoin:round;">
<path d="M70221 76265
L70305 76293
L70446 76293
L70502 76265
L70530 76237
L70559 76181
L70559 76124
L70530 76068
L70502 76040
L70446 76012
L70334 75984
L70277 75956
L70249 75928
L70221 75871
L70221 75815
L70249 75759
L70277 75731
L70334 75703
L70474 75703
L70559 75731
" />
<path d="M70812 76293
L70812 75899
" />
<path d="M70812 75703
L70784 75731
L70812 75759
L70840 75731
L70812 75703
L70812 75759
" />
<path d="M71037 75899
L71346 75899
L71037 76293
L71346 76293
" />
<path d="M71796 76265
L71740 76293
L71627 76293
L71571 76265
L71543 76209
L71543 75984
L71571 75928
L71627 75899
L71740 75899
L71796 75928
L71824 75984
L71824 76040
L71543 76096
" />
<path d="M72077 76237
L72105 76265
L72077 76293
L72049 76265
L72077 76237
L72077 76293
" />
<path d="M72077 75928
L72105 75956
L72077 75984
L72049 75956
L72077 75928
L72077 75984
" />
<path d="M72780 76124
L73061 76124
" />
<path d="M72724 76293
L72921 75703
L73118 76293
" />
<path d="M73568 75899
L73568 76293
" />
<path d="M73427 75674
L73286 76096
L73652 76096
" />
</g>
<g style="fill:#000000; fill-opacity:0.0; 
stroke:#000000; stroke-width:39.3701; stroke-opacity:1; 
stroke-linecap:round; stroke-linejoin:round;">
</g>
<g style="fill:#000000; fill-opacity:0.0; 
stroke:#000000; stroke-width:59.0551; stroke-opacity:1; 
stroke-linecap:round; stroke-linejoin:round;">
<path d="M103714 77395
L103714 76805
" />
<path d="M104248 77395
L104248 76805
" />
<path d="M104248 77367
L104192 77395
L104079 77395
L104023 77367
L103995 77339
L103967 77283
L103967 77114
L103995 77058
L104023 77030
L104079 77002
L104192 77002
L104248 77030
" />
<path d="M104529 77339
L104557 77367
L104529 77395
L104501 77367
L104529 77339
L104529 77395
" />
<path d="M104529 77030
L104557 77058
L104529 77086
L104501 77058
L104529 77030
L104529 77086
" />
<path d="M105570 77395
L105232 77395
" />
<path d="M105401 77395
L105401 76805
L105345 76889
L105289 76946
L105232 76974
" />
<path d="M106245 76777
L105739 77536
" />
<path d="M106751 77395
L106413 77395
" />
<path d="M106582 77395
L106582 76805
L106526 76889
L106470 76946
L106413 76974
" />
</g>
<g style="fill:#000000; fill-opacity:0.0; 
stroke:#000000; stroke-width:39.3701; stroke-opacity:1; 
stroke-linecap:round; stroke-linejoin:round;">
</g>
<g style="fill:#000000; fill-opacity:0.0; 
stroke:#000000; stroke-width:59.0551; stroke-opacity:1; 
stroke-linecap:round; stroke-linejoin:round;">
<path d="M69685 73821
L112205 73821
" />
</g>
<g style="fill:#000000; fill-opacity:0.0; 
stroke:#000000; stroke-width:39.3701; stroke-opacity:1; 
stroke-linecap:round; stroke-linejoin:round;">
</g>
<g style="fill:#000000; fill-opacity:0.0; 
stroke:#000000; stroke-width:157.48; stroke-opacity:1; 
stroke-linecap:round; stroke-linejoin:round;">
<path d="M70360 74099
L70810 74099
" />
<path d="M70486 74886
L70585 74099
" />
<path d="M70974 74886
L71039 74361
" />
<path d="M71072 74099
L71030 74136
L71063 74174
L71105 74136
L71072 74099
L71063 74174
" />
<path d="M71302 74361
L71602 74361
" />
<path d="M71447 74099
L71363 74774
L71391 74849
L71461 74886
L71536 74886
" />
<path d="M71911 74886
L71841 74849
L71813 74774
L71897 74099
" />
<path d="M72516 74849
L72436 74886
L72286 74886
L72216 74849
L72187 74774
L72225 74474
L72272 74399
L72352 74361
L72501 74361
L72572 74399
L72600 74474
L72591 74549
L72206 74624
" />
<path d="M72895 74811
L72928 74849
L72886 74886
L72853 74849
L72895 74811
L72886 74886
" />
<path d="M72947 74399
L72980 74436
L72937 74474
L72905 74436
L72947 74399
L72937 74474
" />
</g>
<g style="fill:#000000; fill-opacity:0.0; 
stroke:#000000; stroke-width:39.3701; stroke-opacity:1; 
stroke-linecap:round; stroke-linejoin:round;">
</g>
<g style="fill:#000000; fill-opacity:0.0; 
stroke:#000000; stroke-width:59.0551; stroke-opacity:1; 
stroke-linecap:round; stroke-linejoin:round;">
<path d="M70446 73070
L70249 73070
" />
<path d="M70249 73380
L70249 72789
L70530 72789
" />
<path d="M70755 73380
L70755 72986
" />
<path d="M70755 72789
L70727 72817
L70755 72845
L70784 72817
L70755 72789
L70755 72845
" />
<path d="M71121 73380
L71065 73352
L71037 73295
L71037 72789
" />
<path d="M71571 73352
L71515 73380
L71402 73380
L71346 73352
L71318 73295
L71318 73070
L71346 73014
L71402 72986
L71515 72986
L71571 73014
L71599 73070
L71599 73127
L71318 73183
" />
<path d="M71852 73323
L71880 73352
L71852 73380
L71824 73352
L71852 73323
L71852 73380
" />
<path d="M71852 73014
L71880 73042
L71852 73070
L71824 73042
L71852 73014
L71852 73070
" />
<path d="M72921 73323
L72893 73352
L72808 73380
L72752 73380
L72668 73352
L72611 73295
L72583 73239
L72555 73127
L72555 73042
L72583 72930
L72611 72874
L72668 72817
L72752 72789
L72808 72789
L72893 72817
L72921 72845
" />
<path d="M73427 73380
L73427 73070
L73399 73014
L73343 72986
L73230 72986
L73174 73014
" />
<path d="M73427 73352
L73371 73380
L73230 73380
L73174 73352
L73146 73295
L73146 73239
L73174 73183
L73230 73155
L73371 73155
L73427 73127
" />
<path d="M73680 73352
L73736 73380
L73849 73380
L73905 73352
L73933 73295
L73933 73267
L73905 73211
L73849 73183
L73764 73183
L73708 73155
L73680 73099
L73680 73070
L73708 73014
L73764 72986
L73849 72986
L73905 73014
" />
<path d="M74102 72986
L74327 72986
" />
<path d="M74186 72789
L74186 73295
L74214 73352
L74271 73380
L74327 73380
" />
<path d="M74439 72789
L74636 73380
L74833 72789
" />
<path d="M75114 73380
L75058 73352
L75030 73323
L75002 73267
L75002 73099
L75030 73042
L75058 73014
L75114 72986
L75199 72986
L75255 73014
L75283 73042
L75311 73099
L75311 73267
L75283 73323
L75255 73352
L75199 73380
L75114 73380
" />
<path d="M75649 73380
L75592 73352
L75564 73295
L75564 72789
" />
<path d="M76127 72986
L76127 73380
" />
<path d="M75874 72986
L75874 73295
L75902 73352
L75958 73380
L76042 73380
L76099 73352
L76127 73323
" />
<path d="M76408 73380
L76408 72986
" />
<path d="M76408 73042
L76436 73014
L76492 72986
L76577 72986
L76633 73014
L76661 73070
L76661 73380
" />
<path d="M76661 73070
L76689 73014
L76745 72986
L76830 72986
L76886 73014
L76914 73070
L76914 73380
" />
<path d="M77420 73352
L77364 73380
L77251 73380
L77195 73352
L77167 73295
L77167 73070
L77195 73014
L77251 72986
L77364 72986
L77420 73014
L77448 73070
L77448 73127
L77167 73183
" />
<path d="M77701 73380
L77701 72789
" />
<path d="M78039 73380
L77786 73042
" />
<path d="M78039 72789
L77701 73127
" />
<path d="M78292 72986
L78292 73380
" />
<path d="M78292 73042
L78320 73014
L78376 72986
L78461 72986
L78517 73014
L78545 73070
L78545 73380
" />
<path d="M78911 73380
L78854 73352
L78826 73323
L78798 73267
L78798 73099
L78826 73042
L78854 73014
L78911 72986
L78995 72986
L79051 73014
L79079 73042
L79108 73099
L79108 73267
L79079 73323
L79051 73352
L78995 73380
L78911 73380
" />
<path d="M79361 73380
L79361 72789
" />
<path d="M79361 73014
L79417 72986
L79529 72986
L79586 73014
L79614 73042
L79642 73099
L79642 73267
L79614 73323
L79586 73352
L79529 73380
L79417 73380
L79361 73352
" />
<path d="M79895 73323
L79923 73352
L79895 73380
L79867 73352
L79895 73323
L79895 73380
" />
<path d="M80176 73380
L80176 72789
" />
<path d="M80232 73155
L80401 73380
" />
<path d="M80401 72986
L80176 73211
" />
<path d="M80654 73380
L80654 72986
" />
<path d="M80654 72789
L80626 72817
L80654 72845
L80682 72817
L80654 72789
L80654 72845
" />
<path d="M81188 73352
L81132 73380
L81020 73380
L80964 73352
L80935 73323
L80907 73267
L80907 73099
L80935 73042
L80964 73014
L81020 72986
L81132 72986
L81188 73014
" />
<path d="M81695 73380
L81695 73070
L81667 73014
L81610 72986
L81498 72986
L81442 73014
" />
<path d="M81695 73352
L81638 73380
L81498 73380
L81442 73352
L81413 73295
L81413 73239
L81442 73183
L81498 73155
L81638 73155
L81695 73127
" />
<path d="M82229 73380
L82229 72789
" />
<path d="M82229 73352
L82173 73380
L82060 73380
L82004 73352
L81976 73323
L81948 73267
L81948 73099
L81976 73042
L82004 73014
L82060 72986
L82173 72986
L82229 73014
" />
<path d="M82370 73436
L82820 73436
" />
<path d="M82960 72986
L82960 73577
" />
<path d="M82960 73014
L83016 72986
L83129 72986
L83185 73014
L83213 73042
L83241 73099
L83241 73267
L83213 73323
L83185 73352
L83129 73380
L83016 73380
L82960 73352
" />
<path d="M83748 73352
L83691 73380
L83579 73380
L83523 73352
L83494 73323
L83466 73267
L83466 73099
L83494 73042
L83523 73014
L83579 72986
L83691 72986
L83748 73014
" />
<path d="M84001 73380
L84001 72789
" />
<path d="M84001 73014
L84057 72986
L84169 72986
L84226 73014
L84254 73042
L84282 73099
L84282 73267
L84254 73323
L84226 73352
L84169 73380
L84057 73380
L84001 73352
" />
</g>
<g style="fill:#000000; fill-opacity:0.0; 
stroke:#000000; stroke-width:39.3701; stroke-opacity:1; 
stroke-linecap:round; stroke-linejoin:round;">
</g>
<g style="fill:#000000; fill-opacity:0.0; 
stroke:#000000; stroke-width:59.0551; stroke-opacity:1; 
stroke-linecap:round; stroke-linejoin:round;">
<path d="M69685 71459
L112205 71459
" />
</g>
<g style="fill:#000000; fill-opacity:0.0; 
stroke:#000000; stroke-width:39.3701; stroke-opacity:1; 
stroke-linecap:round; stroke-linejoin:round;">
</g>
<g style="fill:#000000; fill-opacity:0.0; 
stroke:#000000; stroke-width:59.0551; stroke-opacity:1; 
stroke-linecap:round; stroke-linejoin:round;">
<path d="M70221 72289
L70305 72317
L70446 72317
L70502 72289
L70530 72260
L70559 72204
L70559 72148
L70530 72092
L70502 72064
L70446 72036
L70334 72007
L70277 71979
L70249 71951
L70221 71895
L70221 71839
L70249 71782
L70277 71754
L70334 71726
L70474 71726
L70559 71754
" />
<path d="M70812 72317
L70812 71726
" />
<path d="M71065 72317
L71065 72007
L71037 71951
L70980 71923
L70896 71923
L70840 71951
L70812 71979
" />
<path d="M71571 72289
L71515 72317
L71402 72317
L71346 72289
L71318 72232
L71318 72007
L71346 71951
L71402 71923
L71515 71923
L71571 71951
L71599 72007
L71599 72064
L71318 72120
" />
<path d="M72077 72289
L72021 72317
L71908 72317
L71852 72289
L71824 72232
L71824 72007
L71852 71951
L71908 71923
L72021 71923
L72077 71951
L72105 72007
L72105 72064
L71824 72120
" />
<path d="M72274 71923
L72499 71923
" />
<path d="M72358 71726
L72358 72232
L72386 72289
L72443 72317
L72499 72317
" />
<path d="M72696 72260
L72724 72289
L72696 72317
L72668 72289
L72696 72260
L72696 72317
" />
<path d="M72696 71951
L72724 71979
L72696 72007
L72668 71979
L72696 71951
L72696 72007
" />
</g>
<g style="fill:#000000; fill-opacity:0.0; 
stroke:#000000; stroke-width:39.3701; stroke-opacity:1; 
stroke-linecap:round; stroke-linejoin:round;">
</g>
<g style="fill:#000000; fill-opacity:0.0; 
stroke:#000000; stroke-width:59.0551; stroke-opacity:1; 
stroke-linecap:round; stroke-linejoin:round;">
<path d="M77559 75396
L77559 76577
" />
</g>
<g style="fill:#000000; fill-opacity:0.0; 
stroke:#000000; stroke-width:39.3701; stroke-opacity:1; 
stroke-linecap:round; stroke-linejoin:round;">
</g>
<g style="fill:#000000; fill-opacity:0.0; 
stroke:#000000; stroke-width:59.0551; stroke-opacity:1; 
stroke-linecap:round; stroke-linejoin:round;">
<path d="M102756 75396
L102756 77955
" />
</g>
<g style="fill:#000000; fill-opacity:0.0; 
stroke:#000000; stroke-width:19.685; stroke-opacity:1; 
stroke-linecap:round; stroke-linejoin:round;">
<path d="M45891 43625
L45891 45774
" />
<path d="M45891 43625
L44025 43625
" />
<path d="M44025 45774
L45891 45774
" />
<path d="M44025 45774
L44025 43625
" />
<path d="M49990 48413
L49990 43586
" />
<path d="M48809 48413
L49990 48413
" />
<path d="M48809 43586
L48809 48413
" />
<path d="M49990 43586
L48809 43586
" />
<path d="M52291 52408
L57704 52408
" />
<path d="M57704 52408
L57704 47546
" />
<path d="M57704 47546
L52291 47546
" />
<path d="M52291 47546
L52291 52408
" />
<path d="M67308 33591
L63903 33591
" />
<path d="M63903 33591
L63903 38453
" />
<path d="M63903 38453
L67308 38453
" />
<path d="M67308 38453
L67308 33591
" />
<path d="M50008 29891
L48591 29891
" />
<path d="M50008 38296
L50008 29891
" />
<path d="M48591 38296
L50008 38296
" />
<path d="M48591 29891
L48591 38296
" />
<path d="M60814 29580
L60814 39946
" />
<path d="M60027 40769
L50972 40769
" />
<path d="M50185 39981
L50185 26832
" />
<path d="M50185 26832
L59960 26832
" />
<path d="M50185 39981.9 A787.402 787.402 0.0 0 0 50972.4 40769.3 " />
<path d="M60027.6 40770.1 A788.198 788.198 0.0 0 0 60815 39946.5 " />
<path d="M60814 29580
L60354 29580
" />
<path d="M59960 26832
L59960 29186
" />
<path d="M59960.6 29186.6 A393.701 393.701 0.0 0 0 60354.3 29580.3 " />
<path d="M46166 43359
L46166 35107
" />
<path d="M46166 35107
L42033 35107
" />
<path d="M42033 35107
L42033 43359
" />
<path d="M42033 43359
L46166 43359
" />
<path d="M50974 51074
L48825 51074
" />
<path d="M50974 51074
L50974 49208
" />
<path d="M48825 49208
L48825 51074
" />
<path d="M48825 49208
L50974 49208
" />
<circle cx="45944.9" cy="47374" r="1181.1" /> 
<path d="M63789 45613
L65010 45613
" />
<path d="M65010 45613
L65010 43802
" />
<path d="M65010 43802
L63789 43802
" />
<path d="M63789 43802
L63789 45613
" />
<path d="M48508 29391
L46087 29391
" />
<path d="M46087 29391
L46087 34253
" />
<path d="M46087 34253
L48508 34253
" />
<path d="M48508 34253
L48508 29391
" />
<path d="M60991 29891
L60991 38296
" />
<path d="M60991 38296
L62408 38296
" />
<path d="M62408 38296
L62408 29891
" />
<path d="M62408 29891
L60991 29891
" />
<path d="M65008 46791
L58591 46791
" />
<path d="M58591 46791
L58591 48208
" />
<path d="M58591 48208
L65008 48208
" />
<path d="M65008 48208
L65008 46791
" />
<path d="M50109 48413
L51290 48413
" />
<path d="M51290 48413
L51290 43586
" />
<path d="M51290 43586
L50109 43586
" />
<path d="M50109 43586
L50109 48413
" />
<path d="M46309 44413
L47490 44413
" />
<path d="M47490 44413
L47490 39586
" />
<path d="M47490 39586
L46309 39586
" />
<path d="M46309 39586
L46309 44413
" />
<path d="M47609 39586
L47609 44413
" />
<path d="M48790 39586
L47609 39586
" />
<path d="M48790 44413
L48790 39586
" />
<path d="M47609 44413
L48790 44413
" />
<path d="M59089 41470
L59089 45722
" />
<path d="M59089 45722
L63302 45722
" />
<path d="M63302 45722
L63302 41470
" />
<path d="M63302 41470
L59089 41470
" />
<circle cx="64055.1" cy="31626" r="1181.1" /> 
</g>
<g style="fill:#000000; fill-opacity:0.0; 
stroke:#000000; stroke-width:39.3701; stroke-opacity:1; 
stroke-linecap:round; stroke-linejoin:round;">
<path d="M44123.6 44700 A976.378 976.378 0.0 0 0 45790.4 45390.4 " />
<path d="M45790.4 44009.6 A976.378 976.378 0.0 0 0 44123.6 44700 " />
<path d="M45788 45396
L45788 44018
" />
<path d="M49400 48000
L49400 47240
" />
<path d="M49400 44000
L49400 44759
" />
<path d="M49892 47240
L49892 44759
" />
<path d="M48907 47240
L49892 47240
" />
<path d="M48907 44759
L48907 47240
" />
<path d="M49892 44759
L48907 44759
" />
<path d="M52500 50859
L52500 50109
" />
<path d="M52500 50109
L57500 50109
" />
<path d="M57500 50109
L57500 51109
" />
<path d="M57500 51109
L52750 51109
" />
<path d="M52750 51109
L52500 50859
" />
<path d="M52874 51825
L52874 51109
" />
<path d="M52874 51825
L53125 51825
" />
<path d="M53125 51825
L53125 51109
" />
<path d="M52874 50109
L52874 47747
" />
<path d="M52874 47747
L53125 47747
" />
<path d="M53125 50109
L53125 47747
" />
<path d="M53874 51825
L53874 51109
" />
<path d="M53874 51825
L54125 51825
" />
<path d="M54125 51825
L54125 51109
" />
<path d="M53874 50109
L53874 47747
" />
<path d="M53874 47747
L54125 47747
" />
<path d="M54125 50109
L54125 47747
" />
<path d="M54874 51825
L54874 51109
" />
<path d="M54874 51825
L55125 51825
" />
<path d="M55125 51825
L55125 51109
" />
<path d="M54874 50109
L54874 47747
" />
<path d="M54874 47747
L55125 47747
" />
<path d="M55125 50109
L55125 47747
" />
<path d="M55874 51825
L55874 51109
" />
<path d="M55874 51825
L56125 51825
" />
<path d="M56125 51825
L56125 51109
" />
<path d="M55874 50109
L55874 47747
" />
<path d="M55874 47747
L56125 47747
" />
<path d="M56125 50109
L56125 47747
" />
<path d="M56874 51825
L56874 51109
" />
<path d="M56874 51825
L57125 51825
" />
<path d="M57125 51825
L57125 51109
" />
<path d="M56874 50109
L56874 47747
" />
<path d="M56874 47747
L57125 47747
" />
<path d="M57125 50109
L57125 47747
" />
<path d="M67100 35140
L67100 35890
" />
<path d="M67100 35890
L64100 35890
" />
<path d="M64100 35890
L64100 34890
" />
<path d="M64100 34890
L66850 34890
" />
<path d="M66850 34890
L67100 35140
" />
<path d="M66725 34174
L66725 34890
" />
<path d="M66725 34174
L66474 34174
" />
<path d="M66474 34174
L66474 34890
" />
<path d="M66725 35890
L66725 38252
" />
<path d="M66725 38252
L66474 38252
" />
<path d="M66474 35890
L66474 38252
" />
<path d="M65725 34174
L65725 34890
" />
<path d="M65725 34174
L65474 34174
" />
<path d="M65474 34174
L65474 34890
" />
<path d="M65725 35890
L65725 38252
" />
<path d="M65725 38252
L65474 38252
" />
<path d="M65474 35890
L65474 38252
" />
<path d="M64725 34174
L64725 34890
" />
<path d="M64725 34174
L64474 34174
" />
<path d="M64474 34174
L64474 34890
" />
<path d="M64725 35890
L64725 38252
" />
<path d="M64725 38252
L64474 38252
" />
<path d="M64474 35890
L64474 38252
" />
<path d="M48800 30350
L49050 30100
" />
<path d="M48800 38100
L48800 30350
" />
<path d="M49800 38100
L48800 38100
" />
<path d="M49800 30100
L49800 38100
" />
<path d="M49050 30100
L49800 30100
" />
<circle cx="44100" cy="42159.1" r="728.346" /> 
<path d="M46068 40741
L46068 43261
" />
<path d="M46068 43261
L42131 43261
" />
<path d="M42131 43261
L42131 40741
" />
<path d="M42131 40741
L46068 40741
" />
<path d="M46068 37100
L46068 40741
" />
<path d="M46068 40741
L42131 40741
" />
<path d="M42131 40741
L42131 37100
" />
<path d="M42131 37100
L46068 37100
" />
<path d="M45100 37100
L45100 35600
" />
<path d="M44100 37100
L44100 35600
" />
<path d="M43100 37100
L43100 35600
" />
<path d="M50596 49311
L49218 49311
" />
<path d="M49209.6 49309.6 A976.378 976.378 0.0 0 0 49900 50976.4 " />
<path d="M49900 50976.4 A976.378 976.378 0.0 0 0 50590.4 49309.6 " />
<path d="M63888 45455
L64911 45455
" />
<path d="M64911 45455
L64911 43959
" />
<path d="M64911 43959
L63888 43959
" />
<path d="M63888 43959
L63888 45455
" />
<path d="M48300 30940
L48300 31690
" />
<path d="M48300 31690
L46300 31690
" />
<path d="M46300 31690
L46300 30690
" />
<path d="M46300 30690
L48050 30690
" />
<path d="M48050 30690
L48300 30940
" />
<path d="M47925 29974
L47925 30690
" />
<path d="M47925 29974
L47674 29974
" />
<path d="M47674 29974
L47674 30690
" />
<path d="M47925 31690
L47925 34052
" />
<path d="M47925 34052
L47674 34052
" />
<path d="M47674 31690
L47674 34052
" />
<path d="M46925 29974
L46925 30690
" />
<path d="M46925 29974
L46674 29974
" />
<path d="M46674 29974
L46674 30690
" />
<path d="M46925 31690
L46925 34052
" />
<path d="M46925 34052
L46674 34052
" />
<path d="M46674 31690
L46674 34052
" />
<path d="M61450 30100
L62200 30100
" />
<path d="M62200 30100
L62200 38100
" />
<path d="M62200 38100
L61200 38100
" />
<path d="M61200 38100
L61200 30350
" />
<path d="M61200 30350
L61450 30100
" />
<path d="M64800 47250
L64800 48000
" />
<path d="M64800 48000
L58800 48000
" />
<path d="M58800 48000
L58800 47000
" />
<path d="M58800 47000
L64550 47000
" />
<path d="M64550 47000
L64800 47250
" />
<path d="M50207 47240
L51192 47240
" />
<path d="M51192 47240
L51192 44759
" />
<path d="M51192 44759
L50207 44759
" />
<path d="M50207 44759
L50207 47240
" />
<path d="M50700 48000
L50700 47240
" />
<path d="M50700 44000
L50700 44759
" />
<path d="M46407 43240
L47392 43240
" />
<path d="M47392 43240
L47392 40759
" />
<path d="M47392 40759
L46407 40759
" />
<path d="M46407 40759
L46407 43240
" />
<path d="M46900 44000
L46900 43240
" />
<path d="M46900 40000
L46900 40759
" />
<path d="M48200 40000
L48200 40759
" />
<path d="M48200 44000
L48200 43240
" />
<path d="M47707 40759
L47707 43240
" />
<path d="M48692 40759
L47707 40759
" />
<path d="M48692 43240
L48692 40759
" />
<path d="M47707 43240
L48692 43240
" />
<path d="M60343 41600
L62450 41600
" />
<path d="M62450 41600
L62450 45600
" />
<path d="M62450 45600
L59950 45600
" />
<path d="M59950 45600
L59950 41993
" />
<path d="M59950 41993
L60343 41600
" />
<path d="M59200 41576
L59200 45623
" />
<path d="M59200 45623
L63200 45623
" />
<path d="M63200 45623
L63200 41576
" />
<path d="M63200 41576
L59200 41576
" />
</g>
<g style="fill:#000000; fill-opacity:0.0; 
stroke:#000000; stroke-width:59.0551; stroke-opacity:1; 
stroke-linecap:round; stroke-linejoin:round;">
<path d="M46021 45768
L46003 45749
L45984 45712
L45984 45618
L46003 45581
L46021 45562
L46059 45543
L46096 45543
L46153 45562
L46378 45787
L46378 45543
" />
<path d="M46378 45374
L45984 45374
L46378 45149
L45984 45149
" />
<path d="M45984 44999
L45984 44737
L46378 44906
" />
<path d="M45984 44512
L45984 44475
L46003 44437
L46021 44418
L46059 44400
L46134 44381
L46228 44381
L46303 44400
L46340 44418
L46359 44437
L46378 44475
L46378 44512
L46359 44550
L46340 44568
L46303 44587
L46228 44606
L46134 44606
L46059 44587
L46021 44568
L46003 44550
L45984 44512
" />
<path d="M45984 44137
L45984 44100
L46003 44062
L46021 44043
L46059 44025
L46134 44006
L46228 44006
L46303 44025
L46340 44043
L46359 44062
L46378 44100
L46378 44137
L46359 44175
L46340 44193
L46303 44212
L46228 44231
L46134 44231
L46059 44212
L46021 44193
L46003 44175
L45984 44137
" />
<path d="M45984 43762
L45984 43725
L46003 43687
L46021 43668
L46059 43650
L46134 43631
L46228 43631
L46303 43650
L46340 43668
L46359 43687
L46378 43725
L46378 43762
L46359 43800
L46340 43818
L46303 43837
L46228 43856
L46134 43856
L46059 43837
L46021 43818
L46003 43800
L45984 43762
" />
<path d="M47015 44737
L46996 44774
L46959 44812
L46903 44868
L46884 44906
L46884 44943
" />
<path d="M46978 44924
L46959 44962
L46921 44999
L46846 45018
L46715 45018
L46640 44999
L46603 44962
L46584 44924
L46584 44849
L46603 44812
L46640 44774
L46715 44756
L46846 44756
L46921 44774
L46959 44812
L46978 44849
L46978 44924
" />
<path d="M46978 44381
L46978 44606
" />
<path d="M46978 44493
L46584 44493
L46640 44531
L46678 44568
L46696 44606
" />
<path d="M49590 47012
L49590 47237
" />
<path d="M49590 47124
L49196 47124
L49252 47162
L49290 47199
L49308 47237
" />
<path d="M49196 46768
L49196 46730
L49215 46693
L49233 46674
L49271 46655
L49346 46637
L49440 46637
L49515 46655
L49552 46674
L49571 46693
L49590 46730
L49590 46768
L49571 46805
L49552 46824
L49515 46843
L49440 46862
L49346 46862
L49271 46843
L49233 46824
L49215 46805
L49196 46768
" />
<path d="M49590 46468
L49196 46468
" />
<path d="M49590 46243
L49365 46412
" />
<path d="M49196 46243
L49421 46468
" />
<path d="M49590 45205
L49402 45337
" />
<path d="M49590 45430
L49196 45430
L49196 45280
L49215 45243
L49233 45224
L49271 45205
L49327 45205
L49365 45224
L49383 45243
L49402 45280
L49402 45430
" />
<path d="M49590 44830
L49590 45055
" />
<path d="M49590 44943
L49196 44943
L49252 44980
L49290 45018
L49308 45055
" />
<path d="M52422 50571
L52553 50571
" />
<path d="M52609 50778
L52422 50778
L52422 50384
L52609 50384
" />
<path d="M52778 50515
L52778 50778
" />
<path d="M52778 50553
L52796 50534
L52834 50515
L52890 50515
L52928 50534
L52946 50571
L52946 50778
" />
<path d="M53303 50759
L53265 50778
L53190 50778
L53153 50759
L53134 50740
L53115 50703
L53115 50590
L53134 50553
L53153 50534
L53190 50515
L53265 50515
L53303 50534
" />
<path d="M53528 50778
L53490 50759
L53471 50740
L53453 50703
L53453 50590
L53471 50553
L53490 50534
L53528 50515
L53584 50515
L53621 50534
L53640 50553
L53659 50590
L53659 50703
L53640 50740
L53621 50759
L53584 50778
L53528 50778
" />
<path d="M53996 50778
L53996 50384
" />
<path d="M53996 50759
L53959 50778
L53884 50778
L53846 50759
L53828 50740
L53809 50703
L53809 50590
L53828 50553
L53846 50534
L53884 50515
L53959 50515
L53996 50534
" />
<path d="M54334 50759
L54296 50778
L54221 50778
L54184 50759
L54165 50721
L54165 50571
L54184 50534
L54221 50515
L54296 50515
L54334 50534
L54353 50571
L54353 50609
L54165 50646
" />
<path d="M54521 50778
L54521 50515
" />
<path d="M54521 50590
L54540 50553
L54559 50534
L54596 50515
L54634 50515
" />
<path d="M56868 50484
L56868 50765
L56850 50821
L56812 50859
L56756 50878
L56718 50878
" />
<path d="M57243 50484
L57056 50484
L57037 50671
L57056 50653
L57093 50634
L57187 50634
L57224 50653
L57243 50671
L57262 50709
L57262 50803
L57243 50840
L57224 50859
L57187 50878
L57093 50878
L57056 50859
L57037 50840
" />
<path d="M63778 38227
L63384 38227
L63778 38002
L63384 38002
" />
<path d="M63759 37665
L63778 37702
L63778 37777
L63759 37815
L63721 37834
L63571 37834
L63534 37815
L63515 37777
L63515 37702
L63534 37665
L63571 37646
L63609 37646
L63646 37834
" />
<path d="M63778 37421
L63759 37459
L63740 37477
L63703 37496
L63590 37496
L63553 37477
L63534 37459
L63515 37421
L63515 37365
L63534 37328
L63553 37309
L63590 37290
L63703 37290
L63740 37309
L63759 37328
L63778 37365
L63778 37421
" />
<path d="M63778 37121
L63384 37121
L63384 36971
L63403 36934
L63421 36915
L63459 36896
L63515 36896
L63553 36915
L63571 36934
L63590 36971
L63590 37121
" />
<path d="M63778 36728
L63515 36728
" />
<path d="M63384 36728
L63403 36746
L63421 36728
L63403 36709
L63384 36728
L63421 36728
" />
<path d="M63778 36578
L63515 36371
" />
<path d="M63515 36578
L63778 36371
" />
<path d="M63759 36071
L63778 36109
L63778 36184
L63759 36221
L63721 36240
L63571 36240
L63534 36221
L63515 36184
L63515 36109
L63534 36071
L63571 36053
L63609 36053
L63646 36240
" />
<path d="M63778 35828
L63759 35865
L63721 35884
L63384 35884
" />
<path d="M63778 35453
L63590 35584
" />
<path d="M63778 35678
L63384 35678
L63384 35528
L63403 35490
L63421 35471
L63459 35453
L63515 35453
L63553 35471
L63571 35490
L63590 35528
L63590 35678
" />
<path d="M63778 35284
L63515 35284
" />
<path d="M63384 35284
L63403 35303
L63421 35284
L63403 35265
L63384 35284
L63421 35284
" />
<path d="M63515 35097
L63778 35097
" />
<path d="M63553 35097
L63534 35078
L63515 35040
L63515 34984
L63534 34947
L63571 34928
L63778 34928
" />
<path d="M63515 34572
L63834 34572
L63871 34590
L63890 34609
L63909 34647
L63909 34703
L63890 34740
" />
<path d="M63759 34572
L63778 34609
L63778 34684
L63759 34722
L63740 34740
L63703 34759
L63590 34759
L63553 34740
L63534 34722
L63515 34684
L63515 34609
L63534 34572
" />
<path d="M65468 35174
L65468 35456
L65450 35512
L65412 35549
L65356 35568
L65318 35568
" />
<path d="M65618 35174
L65862 35174
L65731 35324
L65787 35324
L65824 35343
L65843 35362
L65862 35399
L65862 35493
L65843 35531
L65824 35549
L65787 35568
L65674 35568
L65637 35549
L65618 35531
" />
<path d="M47828 38657
L47809 38676
L47753 38695
L47715 38695
L47659 38676
L47622 38639
L47603 38601
L47584 38526
L47584 38470
L47603 38395
L47622 38357
L47659 38320
L47715 38301
L47753 38301
L47809 38320
L47828 38339
" />
<path d="M48053 38695
L48015 38676
L47997 38657
L47978 38620
L47978 38507
L47997 38470
L48015 38451
L48053 38432
L48109 38432
L48147 38451
L48165 38470
L48184 38507
L48184 38620
L48165 38657
L48147 38676
L48109 38695
L48053 38695
" />
<path d="M48353 38432
L48353 38695
" />
<path d="M48353 38470
L48371 38451
L48409 38432
L48465 38432
L48503 38451
L48521 38489
L48521 38695
" />
<path d="M48709 38432
L48709 38695
" />
<path d="M48709 38470
L48728 38451
L48765 38432
L48821 38432
L48859 38451
L48878 38489
L48878 38695
" />
<path d="M48971 38732
L49271 38732
" />
<path d="M49440 38301
L49478 38301
L49515 38320
L49534 38339
L49553 38376
L49571 38451
L49571 38545
L49553 38620
L49534 38657
L49515 38676
L49478 38695
L49440 38695
L49403 38676
L49384 38657
L49365 38620
L49346 38545
L49346 38451
L49365 38376
L49384 38339
L49403 38320
L49440 38301
" />
<path d="M49946 38695
L49721 38695
" />
<path d="M49834 38695
L49834 38301
L49796 38357
L49759 38395
L49721 38414
" />
<path d="M50078 38695
L50284 38432
" />
<path d="M50078 38432
L50284 38695
" />
<path d="M50509 38301
L50546 38301
L50584 38320
L50602 38339
L50621 38376
L50640 38451
L50640 38545
L50621 38620
L50602 38657
L50584 38676
L50546 38695
L50509 38695
L50471 38676
L50452 38657
L50434 38620
L50415 38545
L50415 38451
L50434 38376
L50452 38339
L50471 38320
L50509 38301
" />
<path d="M50865 38470
L50827 38451
L50809 38432
L50790 38395
L50790 38376
L50809 38339
L50827 38320
L50865 38301
L50940 38301
L50977 38320
L50996 38339
L51015 38376
L51015 38395
L50996 38432
L50977 38451
L50940 38470
L50865 38470
L50827 38489
L50809 38507
L50790 38545
L50790 38620
L50809 38657
L50827 38676
L50865 38695
L50940 38695
L50977 38676
L50996 38657
L51015 38620
L51015 38545
L50996 38507
L50977 38489
L50940 38470
" />
<path d="M49084 34231
L49365 34231
L49421 34249
L49459 34287
L49478 34343
L49478 34381
" />
<path d="M49121 34062
L49103 34043
L49084 34006
L49084 33912
L49103 33875
L49121 33856
L49159 33837
L49196 33837
L49253 33856
L49478 34081
L49478 33837
" />
<path d="M53922 31984
L54015 32378
L54090 32096
L54165 32378
L54259 31984
" />
<path d="M54559 32359
L54522 32378
L54447 32378
L54409 32359
L54390 32321
L54390 32171
L54409 32134
L54447 32115
L54522 32115
L54559 32134
L54578 32171
L54578 32209
L54390 32246
" />
<path d="M54746 32378
L54746 31984
L54878 32265
L55009 31984
L55009 32378
" />
<path d="M55253 32378
L55215 32359
L55196 32340
L55178 32303
L55178 32190
L55196 32153
L55215 32134
L55253 32115
L55309 32115
L55346 32134
L55365 32153
L55384 32190
L55384 32303
L55365 32340
L55346 32359
L55309 32378
L55253 32378
" />
<path d="M55534 32359
L55571 32378
L55646 32378
L55684 32359
L55703 32321
L55703 32303
L55684 32265
L55646 32246
L55590 32246
L55553 32228
L55534 32190
L55534 32171
L55553 32134
L55590 32115
L55646 32115
L55684 32134
" />
<path d="M55778 32415
L56078 32415
" />
<path d="M56171 32378
L56171 32115
" />
<path d="M56171 32153
L56190 32134
L56228 32115
L56284 32115
L56321 32134
L56340 32171
L56340 32378
" />
<path d="M56340 32171
L56359 32134
L56396 32115
L56453 32115
L56490 32134
L56509 32171
L56509 32378
" />
<path d="M56696 32378
L56696 32115
" />
<path d="M56696 31984
L56677 32003
L56696 32021
L56715 32003
L56696 31984
L56696 32021
" />
<path d="M56884 32115
L56884 32378
" />
<path d="M56884 32153
L56902 32134
L56940 32115
L56996 32115
L57034 32134
L57052 32171
L57052 32378
" />
<path d="M57240 32378
L57240 32115
" />
<path d="M57240 31984
L57221 32003
L57240 32021
L57259 32003
L57240 31984
L57240 32021
" />
<path d="M42878 39178
L42878 38784
" />
<path d="M43290 39178
L43159 38990
" />
<path d="M43065 39178
L43065 38784
L43215 38784
L43253 38803
L43271 38821
L43290 38859
L43290 38915
L43271 38953
L43253 38971
L43215 38990
L43065 38990
" />
<path d="M43590 38971
L43459 38971
" />
<path d="M43459 39178
L43459 38784
L43646 38784
" />
<path d="M43815 39178
L43890 39178
L43928 39159
L43946 39140
L43984 39084
L44003 39009
L44003 38859
L43984 38821
L43965 38803
L43928 38784
L43853 38784
L43815 38803
L43796 38821
L43778 38859
L43778 38953
L43796 38990
L43815 39009
L43853 39028
L43928 39028
L43965 39009
L43984 38990
L44003 38953
" />
<path d="M44359 38784
L44171 38784
L44153 38971
L44171 38953
L44209 38934
L44303 38934
L44340 38953
L44359 38971
L44378 39009
L44378 39103
L44359 39140
L44340 39159
L44303 39178
L44209 39178
L44171 39159
L44153 39140
" />
<path d="M44715 38915
L44715 39178
" />
<path d="M44621 38765
L44528 39046
L44771 39046
" />
<path d="M44996 38784
L45034 38784
L45071 38803
L45090 38821
L45109 38859
L45128 38934
L45128 39028
L45109 39103
L45090 39140
L45071 39159
L45034 39178
L44996 39178
L44959 39159
L44940 39140
L44921 39103
L44903 39028
L44903 38934
L44921 38859
L44940 38821
L44959 38803
L44996 38784
" />
<path d="M45296 39178
L45296 38784
L45521 39178
L45521 38784
" />
<path d="M45062 37815
L45025 37796
L44987 37759
L44931 37703
L44893 37684
L44856 37684
" />
<path d="M44875 37778
L44837 37759
L44800 37721
L44781 37646
L44781 37515
L44800 37440
L44837 37403
L44875 37384
L44950 37384
L44987 37403
L45025 37440
L45043 37515
L45043 37646
L45025 37721
L44987 37759
L44950 37778
L44875 37778
" />
<path d="M45174 37384
L45418 37384
L45287 37534
L45343 37534
L45381 37553
L45399 37571
L45418 37609
L45418 37703
L45399 37740
L45381 37759
L45343 37778
L45231 37778
L45193 37759
L45174 37740
" />
<path d="M48831 48723
L48850 48704
L48887 48685
L48981 48685
L49018 48704
L49037 48723
L49056 48760
L49056 48798
L49037 48854
L48812 49079
L49056 49079
" />
<path d="M49225 49079
L49225 48685
L49450 49079
L49450 48685
" />
<path d="M49600 48685
L49843 48685
L49712 48835
L49768 48835
L49806 48854
L49825 48873
L49843 48910
L49843 49004
L49825 49042
L49806 49060
L49768 49079
L49656 49079
L49618 49060
L49600 49042
" />
<path d="M50031 49079
L50106 49079
L50143 49060
L50162 49042
L50199 48985
L50218 48910
L50218 48760
L50199 48723
L50181 48704
L50143 48685
L50068 48685
L50031 48704
L50012 48723
L49993 48760
L49993 48854
L50012 48892
L50031 48910
L50068 48929
L50143 48929
L50181 48910
L50199 48892
L50218 48854
" />
<path d="M50462 48685
L50499 48685
L50537 48704
L50556 48723
L50574 48760
L50593 48835
L50593 48929
L50574 49004
L50556 49042
L50537 49060
L50499 49079
L50462 49079
L50424 49060
L50406 49042
L50387 49004
L50368 48929
L50368 48835
L50387 48760
L50406 48723
L50424 48704
L50462 48685
" />
<path d="M50931 48817
L50931 49079
" />
<path d="M50837 48667
L50743 48948
L50987 48948
" />
<path d="M49862 51617
L49825 51598
L49787 51560
L49731 51504
L49693 51485
L49656 51485
" />
<path d="M49675 51579
L49637 51560
L49600 51523
L49581 51448
L49581 51317
L49600 51242
L49637 51204
L49675 51185
L49750 51185
L49787 51204
L49825 51242
L49843 51317
L49843 51448
L49825 51523
L49787 51560
L49750 51579
L49675 51579
" />
<path d="M49993 51223
L50012 51204
L50049 51185
L50143 51185
L50181 51204
L50199 51223
L50218 51260
L50218 51298
L50199 51354
L49974 51579
L50218 51579
" />
<path d="M65188 45354
L65188 45317
L65207 45279
L65225 45260
L65263 45242
L65338 45223
L65432 45223
L65507 45242
L65544 45260
L65563 45279
L65582 45317
L65582 45354
L65563 45392
L65544 45410
L65507 45429
L65432 45448
L65338 45448
L65263 45429
L65225 45410
L65207 45392
L65188 45354
" />
<path d="M65544 45054
L65563 45035
L65582 45054
L65563 45073
L65544 45054
L65582 45054
" />
<path d="M65188 44904
L65188 44661
L65338 44792
L65338 44735
L65357 44698
L65375 44679
L65413 44661
L65507 44661
L65544 44679
L65563 44698
L65582 44735
L65582 44848
L65563 44885
L65544 44904
" />
<path d="M65319 44323
L65582 44323
" />
<path d="M65319 44492
L65525 44492
L65563 44473
L65582 44436
L65582 44379
L65563 44342
L65544 44323
" />
<path d="M65375 44004
L65375 44136
" />
<path d="M65582 44136
L65188 44136
L65188 43948
" />
</g>
<g style="fill:#000000; fill-opacity:0.0; 
stroke:#000000; stroke-width:44.8819; stroke-opacity:1; 
stroke-linecap:round; stroke-linejoin:round;">
<path d="M64506 44757
L64521 44771
L64535 44814
L64535 44843
L64521 44885
L64492 44914
L64464 44928
L64407 44942
L64364 44942
L64307 44928
L64278 44914
L64250 44885
L64236 44843
L64236 44814
L64250 44771
L64264 44757
" />
<path d="M64535 44472
L64535 44643
" />
<path d="M64535 44558
L64236 44558
L64278 44586
L64307 44615
L64321 44643
" />
</g>
<g style="fill:#000000; fill-opacity:0.0; 
stroke:#000000; stroke-width:59.0551; stroke-opacity:1; 
stroke-linecap:round; stroke-linejoin:round;">
<path d="M45978 33915
L45584 33915
L45584 33765
L45603 33727
L45621 33709
L45659 33690
L45715 33690
L45753 33709
L45771 33727
L45790 33765
L45790 33915
" />
<path d="M45584 33446
L45584 33371
L45603 33334
L45640 33296
L45715 33278
L45846 33278
L45921 33296
L45959 33334
L45978 33371
L45978 33446
L45959 33484
L45921 33521
L45846 33540
L45715 33540
L45640 33521
L45603 33484
L45584 33446
" />
<path d="M45584 33146
L45978 33053
L45696 32978
L45978 32903
L45584 32809
" />
<path d="M45771 32659
L45771 32528
" />
<path d="M45978 32471
L45978 32659
L45584 32659
L45584 32471
" />
<path d="M45978 32078
L45790 32209
" />
<path d="M45978 32303
L45584 32303
L45584 32153
L45603 32115
L45621 32096
L45659 32078
L45715 32078
L45753 32096
L45771 32115
L45790 32153
L45790 32303
" />
<path d="M46015 32003
L46015 31703
" />
<path d="M45584 31422
L45584 31609
L45771 31628
L45753 31609
L45734 31571
L45734 31478
L45753 31440
L45771 31422
L45809 31403
L45903 31403
L45940 31422
L45959 31440
L45978 31478
L45978 31571
L45959 31609
L45940 31628
" />
<path d="M45584 31290
L45978 31159
L45584 31028
" />
<path d="M47168 32884
L47168 33165
L47150 33221
L47112 33259
L47056 33278
L47018 33278
" />
<path d="M47562 33278
L47337 33278
" />
<path d="M47449 33278
L47449 32884
L47412 32940
L47374 32978
L47337 32996
" />
<path d="M60228 38657
L60209 38676
L60153 38695
L60115 38695
L60059 38676
L60022 38639
L60003 38601
L59984 38526
L59984 38470
L60003 38395
L60022 38357
L60059 38320
L60115 38301
L60153 38301
L60209 38320
L60228 38339
" />
<path d="M60453 38695
L60415 38676
L60397 38657
L60378 38620
L60378 38507
L60397 38470
L60415 38451
L60453 38432
L60509 38432
L60547 38451
L60565 38470
L60584 38507
L60584 38620
L60565 38657
L60547 38676
L60509 38695
L60453 38695
" />
<path d="M60753 38432
L60753 38695
" />
<path d="M60753 38470
L60771 38451
L60809 38432
L60865 38432
L60903 38451
L60921 38489
L60921 38695
" />
<path d="M61109 38432
L61109 38695
" />
<path d="M61109 38470
L61128 38451
L61165 38432
L61221 38432
L61259 38451
L61278 38489
L61278 38695
" />
<path d="M61371 38732
L61671 38732
" />
<path d="M61840 38301
L61878 38301
L61915 38320
L61934 38339
L61953 38376
L61971 38451
L61971 38545
L61953 38620
L61934 38657
L61915 38676
L61878 38695
L61840 38695
L61803 38676
L61784 38657
L61765 38620
L61746 38545
L61746 38451
L61765 38376
L61784 38339
L61803 38320
L61840 38301
" />
<path d="M62346 38695
L62121 38695
" />
<path d="M62234 38695
L62234 38301
L62196 38357
L62159 38395
L62121 38414
" />
<path d="M62478 38695
L62684 38432
" />
<path d="M62478 38432
L62684 38695
" />
<path d="M62909 38301
L62946 38301
L62984 38320
L63002 38339
L63021 38376
L63040 38451
L63040 38545
L63021 38620
L63002 38657
L62984 38676
L62946 38695
L62909 38695
L62871 38676
L62852 38657
L62834 38620
L62815 38545
L62815 38451
L62834 38376
L62852 38339
L62871 38320
L62909 38301
" />
<path d="M63265 38470
L63227 38451
L63209 38432
L63190 38395
L63190 38376
L63209 38339
L63227 38320
L63265 38301
L63340 38301
L63377 38320
L63396 38339
L63415 38376
L63415 38395
L63396 38432
L63377 38451
L63340 38470
L63265 38470
L63227 38489
L63209 38507
L63190 38545
L63190 38620
L63209 38657
L63227 38676
L63265 38695
L63340 38695
L63377 38676
L63396 38657
L63415 38620
L63415 38545
L63396 38507
L63377 38489
L63340 38470
" />
<path d="M61484 34231
L61765 34231
L61821 34249
L61859 34287
L61878 34343
L61878 34381
" />
<path d="M61615 33875
L61878 33875
" />
<path d="M61465 33968
L61746 34062
L61746 33818
" />
<path d="M58762 48465
L58950 48465
" />
<path d="M58725 48578
L58856 48184
L58987 48578
" />
<path d="M59062 48184
L59287 48184
" />
<path d="M59175 48578
L59175 48184
" />
<path d="M59362 48184
L59587 48184
" />
<path d="M59475 48578
L59475 48184
" />
<path d="M59718 48578
L59718 48184
" />
<path d="M59906 48578
L59906 48184
L60131 48578
L60131 48184
" />
<path d="M60393 48390
L60393 48578
" />
<path d="M60262 48184
L60393 48390
L60524 48184
" />
<path d="M60712 48353
L60674 48334
L60656 48315
L60637 48278
L60637 48259
L60656 48221
L60674 48203
L60712 48184
L60787 48184
L60824 48203
L60843 48221
L60862 48259
L60862 48278
L60843 48315
L60824 48334
L60787 48353
L60712 48353
L60674 48371
L60656 48390
L60637 48428
L60637 48503
L60656 48540
L60674 48559
L60712 48578
L60787 48578
L60824 48559
L60843 48540
L60862 48503
L60862 48428
L60843 48390
L60824 48371
L60787 48353
" />
<path d="M61218 48184
L61031 48184
L61012 48371
L61031 48353
L61068 48334
L61162 48334
L61199 48353
L61218 48371
L61237 48409
L61237 48503
L61218 48540
L61199 48559
L61162 48578
L61068 48578
L61031 48559
L61012 48540
" />
<path d="M61668 47284
L61668 47565
L61650 47621
L61612 47659
L61556 47678
L61518 47678
" />
<path d="M62024 47284
L61949 47284
L61912 47303
L61893 47321
L61856 47378
L61837 47453
L61837 47603
L61856 47640
L61874 47659
L61912 47678
L61987 47678
L62024 47659
L62043 47640
L62062 47603
L62062 47509
L62043 47471
L62024 47453
L61987 47434
L61912 47434
L61874 47453
L61856 47471
L61837 47509
" />
<path d="M50866 45531
L50866 45756
" />
<path d="M50866 45644
L50472 45644
L50528 45681
L50566 45719
L50584 45756
" />
<path d="M50472 45287
L50472 45250
L50491 45212
L50509 45194
L50547 45175
L50622 45156
L50716 45156
L50791 45175
L50828 45194
L50847 45212
L50866 45250
L50866 45287
L50847 45325
L50828 45344
L50791 45362
L50716 45381
L50622 45381
L50547 45362
L50509 45344
L50491 45325
L50472 45287
" />
<path d="M50866 44987
L50472 44987
" />
<path d="M50866 44762
L50641 44931
" />
<path d="M50472 44762
L50697 44987
" />
<path d="M50878 46925
L50690 47056
" />
<path d="M50878 47150
L50484 47150
L50484 47000
L50503 46962
L50521 46944
L50559 46925
L50615 46925
L50653 46944
L50671 46962
L50690 47000
L50690 47150
" />
<path d="M50521 46775
L50503 46756
L50484 46719
L50484 46625
L50503 46587
L50521 46569
L50559 46550
L50596 46550
L50653 46569
L50878 46794
L50878 46550
" />
<path d="M47066 41531
L47066 41756
" />
<path d="M47066 41644
L46672 41644
L46728 41681
L46766 41719
L46784 41756
" />
<path d="M46672 41287
L46672 41250
L46691 41212
L46709 41194
L46747 41175
L46822 41156
L46916 41156
L46991 41175
L47028 41194
L47047 41212
L47066 41250
L47066 41287
L47047 41325
L47028 41344
L46991 41362
L46916 41381
L46822 41381
L46747 41362
L46709 41344
L46691 41325
L46672 41287
" />
<path d="M47066 40987
L46672 40987
" />
<path d="M47066 40762
L46841 40931
" />
<path d="M46672 40762
L46897 40987
" />
<path d="M47078 42925
L46890 43056
" />
<path d="M47078 43150
L46684 43150
L46684 43000
L46703 42962
L46721 42944
L46759 42925
L46815 42925
L46853 42944
L46871 42962
L46890 43000
L46890 43150
" />
<path d="M46684 42794
L46684 42550
L46834 42681
L46834 42625
L46853 42587
L46871 42569
L46909 42550
L47003 42550
L47040 42569
L47059 42587
L47078 42625
L47078 42737
L47059 42775
L47040 42794
" />
<path d="M48366 41144
L48366 41369
" />
<path d="M48366 41256
L47972 41256
L48028 41294
L48066 41331
L48084 41369
" />
<path d="M48366 40975
L47972 40975
" />
<path d="M48366 40750
L48141 40919
" />
<path d="M47972 40750
L48197 40975
" />
<path d="M48378 42925
L48190 43056
" />
<path d="M48378 43150
L47984 43150
L47984 43000
L48003 42962
L48021 42944
L48059 42925
L48115 42925
L48153 42944
L48171 42962
L48190 43000
L48190 43150
" />
<path d="M48115 42587
L48378 42587
" />
<path d="M47965 42681
L48246 42775
L48246 42531
" />
<path d="M59025 41265
L59212 41265
" />
<path d="M58987 41378
L59119 40984
L59250 41378
" />
<path d="M59325 40984
L59550 40984
" />
<path d="M59437 41378
L59437 40984
" />
<path d="M59625 41115
L59775 41115
" />
<path d="M59681 40984
L59681 41321
L59700 41359
L59737 41378
L59775 41378
" />
<path d="M59906 41378
L59906 41115
" />
<path d="M59906 40984
L59887 41003
L59906 41021
L59925 41003
L59906 40984
L59906 41021
" />
<path d="M60093 41115
L60093 41378
" />
<path d="M60093 41153
L60112 41134
L60150 41115
L60206 41115
L60243 41134
L60262 41171
L60262 41378
" />
<path d="M60412 41115
L60506 41378
" />
<path d="M60600 41115
L60506 41378
L60468 41471
L60450 41490
L60412 41509
" />
<path d="M60806 41153
L60768 41134
L60750 41115
L60731 41078
L60731 41059
L60750 41021
L60768 41003
L60806 40984
L60881 40984
L60918 41003
L60937 41021
L60956 41059
L60956 41078
L60937 41115
L60918 41134
L60881 41153
L60806 41153
L60768 41171
L60750 41190
L60731 41228
L60731 41303
L60750 41340
L60768 41359
L60806 41378
L60881 41378
L60918 41359
L60937 41340
L60956 41303
L60956 41228
L60937 41190
L60918 41171
L60881 41153
" />
<path d="M61312 40984
L61125 40984
L61106 41171
L61125 41153
L61162 41134
L61256 41134
L61293 41153
L61312 41171
L61331 41209
L61331 41303
L61312 41340
L61293 41359
L61256 41378
L61162 41378
L61125 41359
L61106 41340
" />
<path d="M61499 41228
L61799 41228
" />
<path d="M61968 41021
L61987 41003
L62024 40984
L62118 40984
L62156 41003
L62174 41021
L62193 41059
L62193 41096
L62174 41153
L61949 41378
L62193 41378
" />
<path d="M62437 40984
L62474 40984
L62512 41003
L62531 41021
L62549 41059
L62568 41134
L62568 41228
L62549 41303
L62531 41340
L62512 41359
L62474 41378
L62437 41378
L62399 41359
L62381 41340
L62362 41303
L62343 41228
L62343 41134
L62362 41059
L62381 41021
L62399 41003
L62437 40984
" />
<path d="M62737 41378
L62737 40984
L62887 40984
L62924 41003
L62943 41021
L62962 41059
L62962 41115
L62943 41153
L62924 41171
L62887 41190
L62737 41190
" />
<path d="M63131 40984
L63131 41303
L63149 41340
L63168 41359
L63205 41378
L63280 41378
L63318 41359
L63337 41340
L63355 41303
L63355 40984
" />
<path d="M60984 43199
L61303 43199
L61340 43181
L61359 43162
L61378 43124
L61378 43049
L61359 43012
L61340 42993
L61303 42974
L60984 42974
" />
<path d="M61021 42806
L61003 42787
L60984 42750
L60984 42656
L61003 42618
L61021 42600
L61059 42581
L61096 42581
L61153 42600
L61378 42825
L61378 42581
" />
</g>
<g style="fill:#000000; fill-opacity:0.0; 
stroke:#000000; stroke-width:39.3701; stroke-opacity:1; 
stroke-linecap:round; stroke-linejoin:round;">
<circle cx="55000" cy="39500" r="2362.2" /> 
</g>
<g style="fill:#000000; fill-opacity:0.0; 
stroke:#000000; stroke-width:78.7402; stroke-opacity:1; 
stroke-linecap:round; stroke-linejoin:round;">
<circle cx="55000" cy="39500" r="13779.5" /> 
</g> 
</svg>
